<?xml version="1.0" encoding="UTF-8" standalone="no"?>
<!-- Created with Inkscape (http://www.inkscape.org/) -->

<svg
   xmlns:dc="http://purl.org/dc/elements/1.1/"
   xmlns:cc="http://creativecommons.org/ns#"
   xmlns:rdf="http://www.w3.org/1999/02/22-rdf-syntax-ns#"
   xmlns:svg="http://www.w3.org/2000/svg"
   xmlns="http://www.w3.org/2000/svg"
   xmlns:sodipodi="http://sodipodi.sourceforge.net/DTD/sodipodi-0.dtd"
   xmlns:inkscape="http://www.inkscape.org/namespaces/inkscape"
   width="744.09448819"
   height="1052.3622047"
   id="svg2"
   version="1.1"
   inkscape:version="0.48.5 r10040"
   sodipodi:docname="animals.svg">
  <defs
     id="defs4">
    <inkscape:path-effect
       effect="skeletal"
       id="path-effect3005"
       is_visible="true"
       pattern="M 0,5 C 0,2.24 2.24,0 5,0 7.76,0 10,2.24 10,5 10,7.76 7.76,10 5,10 2.24,10 0,7.76 0,5 z"
       copytype="single_stretched"
       prop_scale="1"
       scale_y_rel="false"
       spacing="0"
       normal_offset="0"
       tang_offset="0"
       prop_units="false"
       vertical_pattern="false"
       fuse_tolerance="0" />
  </defs>
  <sodipodi:namedview
     id="base"
     pagecolor="#ffffff"
     bordercolor="#666666"
     borderopacity="1.0"
     inkscape:pageopacity="0.0"
     inkscape:pageshadow="2"
     inkscape:zoom="1"
     inkscape:cx="106.95329"
     inkscape:cy="964.72388"
     inkscape:document-units="px"
     inkscape:current-layer="layer3"
     showgrid="false"
     inkscape:window-width="1366"
     inkscape:window-height="724"
     inkscape:window-x="0"
     inkscape:window-y="-5"
     inkscape:window-maximized="1" />
  <metadata
     id="metadata7">
    <rdf:RDF>
      <cc:Work
         rdf:about="">
        <dc:format>image/svg+xml</dc:format>
        <dc:type
           rdf:resource="http://purl.org/dc/dcmitype/StillImage" />
      </cc:Work>
    </rdf:RDF>
  </metadata>
  <g
     inkscape:label="Layer 1"
     inkscape:groupmode="layer"
     id="layer1"
     style="display:none"
     sodipodi:insensitive="true">
    <path
       sodipodi:nodetypes="csc"
       inkscape:connector-curvature="0"
       id="path3781"
       d="m 110.75723,116.7732 c 4.38841,10.64896 -3.32119,9.52032 -5.76793,13.74645 -1.7633,3.04568 -5.368471,9.60308 3.04634,7.79054"
       style="fill:none;stroke:#784421;stroke-width:6.5;stroke-linecap:round;stroke-linejoin:round;stroke-miterlimit:4;stroke-opacity:1;stroke-dasharray:none"
       inkscape:transform-center-x="1.9342525"
       inkscape:transform-center-y="9.4511798" />
    <path
       style="fill:#784421;stroke:none"
       d="m 164.06039,86.33973 c -6.08121,1.29785 -7.41056,-4.519847 -9.78001,-9.730058 -2.42914,-5.341463 -5.83666,-10.095462 -7.11467,-10.095462 -0.41881,0 0.51413,10.6066 -3.03045,10.6066 -6.23203,0 -10.95375,-10.10152 -11.11168,-10.10152 -0.0696,0 -8.69831,20.01078 -7.07107,23.23351 7.35016,14.55688 27.68399,13.28884 38.10788,-3.91307 z"
       id="path2991"
       inkscape:connector-curvature="0"
       sodipodi:nodetypes="csssssc" />
    <path
       style="fill:#784421;fill-opacity:1;stroke:none"
       d="m 133.875,91.61218 c -2.05671,1.094469 -1.36237,5.879353 -3.61886,8.255835 -3.51189,3.698645 -10.26025,7.619165 -15.50614,7.619165 -4.13247,0 -10.67355,-3.66322 -17.5,-0.25 -4.847765,2.42388 -7.854097,5.07289 -13.25,7 -2.39093,0.8539 -10.637884,3.10709 -13.5,5 -12.26079,8.10887 -22.322552,16.10693 -2.555993,9.66134 2.926645,-0.95433 10.910599,-6.71106 14.305993,-7.4668 7.325806,-1.63057 8.878694,-2.7929 10.625,-3.375 3.034879,1.40608 5.851665,3.10621 7.375,4.80546 3.89439,4.24914 18.88046,0.92132 22.75,-2.94822 4.61642,-4.61643 15.64063,4.0779 15.5,-13.92678 -0.0381,-4.88138 -0.87057,-13.43639 -4.625,-14.375 z"
       id="path2999"
       inkscape:connector-curvature="0"
       sodipodi:nodetypes="csssssssccssc" />
    <path
       style="fill:none;stroke:#784421;stroke-width:6.5;stroke-linecap:round;stroke-linejoin:round;stroke-miterlimit:4;stroke-opacity:1;stroke-dasharray:none"
       d="m 101.29306,117.96544 c 0.72683,11.19011 -6.342188,8.49804 -10.096064,12.0682 -2.705331,2.57295 -8.345374,8.1523 0.373327,8.1523"
       id="path3779"
       inkscape:connector-curvature="0"
       sodipodi:nodetypes="csc" />
    <path
       style="fill:none;stroke:#784421;stroke-width:6;stroke-linecap:round;stroke-linejoin:miter;stroke-miterlimit:4;stroke-opacity:1;stroke-dasharray:none"
       d="m 130.9494,112.41001 c -1.0911,-0.0849 -5.82912,7.6972 -6.41177,8.89381 -0.17044,0.34999 1.14948,13.89693 1.54258,15.93697 0.31396,1.62939 3.08256,1.24619 4.54654,2.02737"
       id="path3783"
       inkscape:connector-curvature="0"
       sodipodi:nodetypes="ccsc" />
    <path
       sodipodi:nodetypes="ccsc"
       inkscape:connector-curvature="0"
       id="path3785"
       d="m 134.8638,111.47189 c -1.09156,0.0787 -2.49494,6.88932 -2.89265,8.15943 -0.11639,0.37149 3.20873,13.57019 3.90162,15.52881 0.55341,1.56436 1.99648,0.77263 3.56056,1.32679"
       style="fill:none;stroke:#784421;stroke-width:6;stroke-linecap:round;stroke-linejoin:miter;stroke-miterlimit:4;stroke-opacity:1;stroke-dasharray:none" />
  </g>
  <g
     inkscape:groupmode="layer"
     id="layer2"
     inkscape:label="Layer"
     style="display:inline"
     sodipodi:insensitive="true">
    <path
       sodipodi:nodetypes="csc"
       inkscape:connector-curvature="0"
       id="path3781-7"
       d="m 110.75723,116.7732 c 4.38841,10.64896 -3.32119,9.52032 -5.76793,13.74645 -1.7633,3.04568 -5.368471,9.60308 3.04634,7.79054"
       style="fill:none;stroke:#784421;stroke-width:6.5;stroke-linecap:round;stroke-linejoin:round;stroke-miterlimit:4;stroke-opacity:1;stroke-dasharray:none"
       inkscape:transform-center-x="1.9342525"
       inkscape:transform-center-y="9.4511798" />
    <path
       style="fill:#784421;stroke:none"
       d="m 178.78922,105.03945 c -6.21809,0.0285 -6.33121,-5.938115 -7.58657,-11.522437 -1.28699,-5.724998 -11.99547,-11.074741 -13.24654,-11.335763 -0.40999,-0.08554 6.68074,10.488026 3.21087,9.764078 -6.10066,-1.272836 -23.54419,-12.125786 -23.6988,-12.158047 -0.0422,-0.0088 6.55536,6.911138 5.54763,12.943185 -0.61975,3.709617 -2.68633,7.02847 -2.33039,8.356374 4.22208,15.75124 24.38631,18.66292 38.1038,3.95261 z"
       id="path2991-6"
       inkscape:connector-curvature="0"
       sodipodi:nodetypes="cssssssc" />
    <path
       style="fill:#784421;fill-opacity:1;stroke:none"
       d="m 148.05855,96.711256 c -2.32072,-0.205273 -9.53822,4.522274 -12.72598,5.282254 -4.96129,1.1828 -15.33668,5.49367 -20.58257,5.49367 -4.13247,0 -10.67355,-3.66322 -17.5,-0.25 -4.847765,2.42388 -7.854097,5.07289 -13.25,7 -2.39093,0.8539 -10.637884,3.10709 -13.5,5 -12.26079,8.10887 -22.322552,16.10693 -2.555993,9.66134 2.926645,-0.95433 10.910599,-6.71106 14.305993,-7.4668 7.325806,-1.63057 8.878694,-2.7929 10.625,-3.375 3.034879,1.40608 5.851665,3.10621 7.375,4.80546 3.89439,4.24914 18.88046,0.92132 22.75,-2.94822 4.61642,-4.61643 6.19344,6.87009 15.90123,-8.29392 2.63197,-4.11122 11.79117,-12.073371 9.15732,-14.908784 z"
       id="path2999-2"
       inkscape:connector-curvature="0"
       sodipodi:nodetypes="csssssssccssc" />
    <path
       style="fill:none;stroke:#784421;stroke-width:6.5;stroke-linecap:round;stroke-linejoin:round;stroke-miterlimit:4;stroke-opacity:1;stroke-dasharray:none"
       d="m 101.29306,117.96544 c 0.72683,11.19011 -6.342188,8.49804 -10.096064,12.0682 -2.705331,2.57295 -8.345374,8.1523 0.373327,8.1523"
       id="path3779-8"
       inkscape:connector-curvature="0"
       sodipodi:nodetypes="csc" />
    <path
       style="fill:none;stroke:#784421;stroke-width:6;stroke-linecap:round;stroke-linejoin:miter;stroke-miterlimit:4;stroke-opacity:1;stroke-dasharray:none"
       d="m 130.48208,113.7302 c -0.86988,0.66408 1.49339,10.68393 1.85679,11.96428 0.10627,0.3745 10.12097,4.81931 11.77394,6.07788 1.32022,1.00522 -3.74485,4.66747 -3.74485,4.66747"
       id="path3783-9"
       inkscape:connector-curvature="0"
       sodipodi:nodetypes="ccsc"
       inkscape:transform-center-x="-10.0399"
       inkscape:transform-center-y="9.2702874" />
    <path
       sodipodi:nodetypes="ccsc"
       inkscape:connector-curvature="0"
       id="path3785-8"
       d="m 132.77444,110.42147 c -0.76117,0.78633 4.85428,9.80361 5.40453,11.01546 0.16089,0.35449 10.02388,1.25846 11.84603,2.25648 1.45536,0.79713 -2.29516,4.80256 -2.29516,4.80256"
       style="fill:none;stroke:#784421;stroke-width:6;stroke-linecap:round;stroke-linejoin:miter;stroke-miterlimit:4;stroke-opacity:1;stroke-dasharray:none"
       inkscape:transform-center-x="-13.611924"
       inkscape:transform-center-y="3.5543653" />
  </g>
  <g
     inkscape:groupmode="layer"
     id="layer4"
     inkscape:label="onion"
     sodipodi:insensitive="true">
    <rect
       style="opacity:0.5;fill:#ffffff;fill-opacity:1;stroke:none"
       id="rect3891"
       width="204"
       height="149"
       x="27"
       y="36.362183"
       rx="10"
       ry="10" />
  </g>
  <g
     inkscape:groupmode="layer"
     id="layer3"
     inkscape:label="Layer#1"
     style="display:inline">
    <path
       sodipodi:nodetypes="csc"
       inkscape:connector-curvature="0"
       id="path3781-7-9"
       d="m 122.13896,113.46254 c -4.80398,12.77028 -7.27614,5.77032 -9.72288,9.99645 -1.7633,3.04568 -1.41137,8.65333 -7.63044,11.3512"
       style="fill:none;stroke:#784421;stroke-width:6.5;stroke-linecap:round;stroke-linejoin:round;stroke-miterlimit:4;stroke-opacity:1;stroke-dasharray:none;display:inline"
       inkscape:transform-center-x="1.9342525"
       inkscape:transform-center-y="9.4511798" />
    <path
       style="fill:#784421;stroke:none;display:inline"
       d="m 174.09488,94.344175 c -6.2117,-0.283054 -6.02575,-6.247842 -6.99978,-11.888042 -0.99854,-5.78229 -16.82588,-11.367805 -18.0623,-11.691178 -0.40519,-0.105974 10.63444,12.114989 8.11798,9.618678 -5.52403,-5.479816 -28.22248,-13.652504 -28.46024,-13.036088 -0.0156,0.04025 11.60122,6.936877 10.29253,12.910866 -0.80482,3.673906 -3.03508,6.885058 -2.7461,8.229123 3.42763,15.942986 23.42067,19.861236 37.85791,5.856641 z"
       id="path2991-6-5"
       inkscape:connector-curvature="0"
       sodipodi:nodetypes="cssssssc" />
    <path
       style="fill:#784421;fill-opacity:1;stroke:none;display:inline"
       d="m 157.25524,84.289891 c -2.32977,0.0081 -9.08395,5.376845 -12.18872,6.425588 -4.8321,1.632218 -14.76907,6.875223 -19.9929,7.355678 -4.11511,0.378474 -10.9642,-2.670262 -17.44935,1.353819 -4.60539,2.857684 -7.35647,5.770904 -12.553199,8.184104 -2.302675,1.0693 -5.855655,2.25631 -9.286996,2.28273 -14.699249,0.11319 -27.494625,1.3324 -7.410038,6.70566 2.973729,0.79557 12.301408,-0.60026 15.613316,-1.6638 7.145677,-2.29467 8.585587,-3.59434 10.271237,-4.33393 3.1509,1.12222 6.11156,2.55722 7.78412,4.10981 4.26718,3.87461 18.88548,-0.81176 22.38436,-5.01944 4.17422,-5.01983 6.79662,6.27397 15.07478,-9.715403 2.24438,-4.334995 10.63585,-13.102547 7.75339,-15.684816 z"
       id="path2999-2-0"
       inkscape:connector-curvature="0"
       sodipodi:nodetypes="csssssssccssc"
       inkscape:transform-center-x="3.3962958"
       inkscape:transform-center-y="-5.1789696" />
    <path
       style="fill:none;stroke:#784421;stroke-width:6.5;stroke-linecap:round;stroke-linejoin:round;stroke-miterlimit:4;stroke-opacity:1;stroke-dasharray:none;display:inline"
       d="m 110.37669,110.76569 c -3.51581,10.30623 -6.45094,5.68738 -10.20482,9.25754 -2.705331,2.57295 -3.698928,12.1523 -11.851547,14.41271"
       id="path3779-8-1"
       inkscape:connector-curvature="0"
       sodipodi:nodetypes="csc" />
    <path
       style="fill:none;stroke:#784421;stroke-width:6;stroke-linecap:round;stroke-linejoin:miter;stroke-miterlimit:4;stroke-opacity:1;stroke-dasharray:none;display:inline"
       d="m 137.10344,101.03832 c -0.90328,0.61788 6.10624,11.41974 6.10624,11.41974 0,0 7.98128,4.83981 9.56647,6.18275 1.26608,1.0726 3.01717,4.71613 3.01717,4.71613"
       id="path3783-9-6"
       inkscape:connector-curvature="0"
       sodipodi:nodetypes="ccsc"
       inkscape:transform-center-x="-9.6255985"
       inkscape:transform-center-y="9.6822807" />
    <path
       sodipodi:nodetypes="ccsc"
       inkscape:connector-curvature="0"
       id="path3785-8-2"
       d="m 142.18999,100.47845 c -0.80109,0.74563 8.44858,6.53195 8.44858,6.53195 0,0 6.69474,2.77874 8.46245,3.87029 1.41188,0.87184 4.08287,5.42653 4.08287,5.42653"
       style="fill:none;stroke:#784421;stroke-width:6;stroke-linecap:round;stroke-linejoin:miter;stroke-miterlimit:4;stroke-opacity:1;stroke-dasharray:none;display:inline"
       inkscape:transform-center-x="-13.511235"
       inkscape:transform-center-y="4.1917203" />
  </g>
</svg>
