<?xml version="1.0" encoding="UTF-8" standalone="no"?>
<!-- Created with Inkscape (http://www.inkscape.org/) -->

<svg
   xmlns:dc="http://purl.org/dc/elements/1.1/"
   xmlns:cc="http://creativecommons.org/ns#"
   xmlns:rdf="http://www.w3.org/1999/02/22-rdf-syntax-ns#"
   xmlns:svg="http://www.w3.org/2000/svg"
   xmlns="http://www.w3.org/2000/svg"
   xmlns:sodipodi="http://sodipodi.sourceforge.net/DTD/sodipodi-0.dtd"
   xmlns:inkscape="http://www.inkscape.org/namespaces/inkscape"
   width="70"
   height="40"
   id="svg2"
   version="1.1"
   inkscape:version="0.48.5 r10040"
   sodipodi:docname="fox.xcf">
  <defs
     id="defs4">
    <inkscape:path-effect
       effect="skeletal"
       id="path-effect3005"
       is_visible="true"
       pattern="M 0,5 C 0,2.24 2.24,0 5,0 7.76,0 10,2.24 10,5 10,7.76 7.76,10 5,10 2.24,10 0,7.76 0,5 z"
       copytype="single_stretched"
       prop_scale="1"
       scale_y_rel="false"
       spacing="0"
       normal_offset="0"
       tang_offset="0"
       prop_units="false"
       vertical_pattern="false"
       fuse_tolerance="0" />
  </defs>
  <sodipodi:namedview
     id="base"
     pagecolor="#ffffff"
     bordercolor="#666666"
     borderopacity="1.0"
     inkscape:pageopacity="0.0"
     inkscape:pageshadow="2"
     inkscape:zoom="8"
     inkscape:cx="30.464684"
     inkscape:cy="15.420362"
     inkscape:document-units="px"
     inkscape:current-layer="g4505"
     showgrid="false"
     inkscape:window-width="1366"
     inkscape:window-height="724"
     inkscape:window-x="0"
     inkscape:window-y="-5"
     inkscape:window-maximized="1"
     fit-margin-top="0"
     fit-margin-left="0"
     fit-margin-right="0"
     fit-margin-bottom="0" />
  <metadata
     id="metadata7">
    <rdf:RDF>
      <cc:Work
         rdf:about="">
        <dc:format>image/svg+xml</dc:format>
        <dc:type
           rdf:resource="http://purl.org/dc/dcmitype/StillImage" />
        <dc:title></dc:title>
      </cc:Work>
    </rdf:RDF>
  </metadata>
  <g
     inkscape:label="alert1 - look behind"
     inkscape:groupmode="layer"
     id="g4071"
     style="display:inline"
     transform="translate(-56.769229,-101.87172)">
    <path
       sodipodi:nodetypes="csc"
       inkscape:connector-curvature="0"
       id="path4073"
       d="m 84.990818,129.27049 c 2.237269,5.42898 -0.34134,5.84494 -2.940566,7.00813 -1.637673,0.73287 -2.736917,4.89577 1.553064,3.97171"
       style="fill:none;stroke:#784421;stroke-width:3.31378531;stroke-linecap:round;stroke-linejoin:round;stroke-miterlimit:4;stroke-opacity:1;stroke-dasharray:none"
       inkscape:transform-center-x="0.98610736"
       inkscape:transform-center-y="4.8183313" />
    <path
       style="fill:#784421;fill-opacity:1;stroke:none"
       d="m 98.062254,120.91547 c -1.127121,0.37466 -1.186295,2.8389 -2.523183,3.84089 -2.080675,1.55946 -5.807006,2.95437 -8.443729,2.50687 -2.077086,-0.35251 -5.052314,-2.75172 -8.774628,-1.61846 -2.643377,0.80477 -5.585918,2.48982 -8.002917,4.13018 -1.070975,0.72686 -2.687684,1.56958 -4.172128,2.49522 -7.314533,4.56102 -10.561042,11.21945 -1.871537,5.14972 1.286573,-0.89868 5.276182,-4.09744 6.855451,-4.90414 3.407384,-1.74053 3.141807,-1.66238 4.069201,-1.806 1.405465,0.96561 2.676229,2.06042 3.296946,3.04446 1.594958,2.46793 9.411219,2.07364 11.686235,0.4588 2.714123,-1.92655 7.513524,3.38385 8.978696,-5.67777 0.397252,-2.45676 0.7086,-6.82774 -1.098407,-7.61977 z"
       id="path4077"
       inkscape:connector-curvature="0"
       sodipodi:nodetypes="csssssssccssc" />
    <path
       style="fill:none;stroke:#784421;stroke-width:3.31378531;stroke-linecap:round;stroke-linejoin:round;stroke-miterlimit:4;stroke-opacity:1;stroke-dasharray:none"
       d="m 80.16586,129.87831 c 0.370547,5.70487 -2.241978,5.68426 -5.147108,6.15253 -1.879123,0.30289 -4.254581,4.15615 0.190327,4.15615"
       id="path4079"
       inkscape:connector-curvature="0"
       sodipodi:nodetypes="csc" />
    <path
       style="fill:none;stroke:#784421;stroke-width:3.0588789;stroke-linecap:round;stroke-linejoin:miter;stroke-miterlimit:4;stroke-opacity:1;stroke-dasharray:none"
       d="m 94.647785,127.04608 c -0.556257,-0.0433 -2.778706,8.13009 -3.075748,8.74014 -0.08689,0.17843 2.432216,2.87888 2.632624,3.91892 0.160061,0.83069 1.571529,0.63532 2.317886,1.03358"
       id="path4081"
       inkscape:connector-curvature="0"
       sodipodi:nodetypes="ccsc" />
    <path
       sodipodi:nodetypes="ccsc"
       inkscape:connector-curvature="0"
       id="path4083"
       d="m 96.643398,126.56782 c -0.556492,0.0401 -0.419765,7.73368 -0.622523,8.3812 -0.05934,0.18939 2.822917,2.69684 3.176161,3.69537 0.282136,0.79753 1.017834,0.3939 1.815224,0.67642"
       style="fill:none;stroke:#784421;stroke-width:3.0588789;stroke-linecap:round;stroke-linejoin:miter;stroke-miterlimit:4;stroke-opacity:1;stroke-dasharray:none" />
    <path
       style="fill:#784421;stroke:none;display:inline"
       d="m 81.818679,118.35139 c 3.100281,0.66166 3.778001,-2.30428 4.985978,-4.96051 1.238407,-2.72315 8.743484,-4.65112 9.39503,-4.65112 0.213515,0 -5.92616,5.51542 -4.222915,4.9117 2.945186,-1.04392 10.312518,-4.24083 11.477818,-4.20359 0.52346,0.0167 -4.043631,1.52221 -3.734756,4.22625 0.337446,2.95424 1.948256,5.83741 1.526746,6.6722 -3.747201,7.4213 -14.113665,6.77483 -19.427901,-1.99493 z"
       id="path2991-4"
       inkscape:connector-curvature="0"
       sodipodi:nodetypes="cssssssc" />
  </g>
  <g
     transform="translate(-56.769229,-101.87172)"
     style="display:inline"
     id="g4054"
     inkscape:groupmode="layer"
     inkscape:label="alert0 - look front">
    <path
       inkscape:transform-center-y="4.8183313"
       inkscape:transform-center-x="0.98610736"
       style="fill:none;stroke:#784421;stroke-width:3.31378531;stroke-linecap:round;stroke-linejoin:round;stroke-miterlimit:4;stroke-opacity:1;stroke-dasharray:none"
       d="m 84.990818,129.27049 c 2.237269,5.42898 -0.34134,5.84494 -2.940566,7.00813 -1.637673,0.73287 -2.736917,4.89577 1.553064,3.97171"
       id="path4056"
       inkscape:connector-curvature="0"
       sodipodi:nodetypes="csc" />
    <path
       sodipodi:nodetypes="zcssssz"
       inkscape:connector-curvature="0"
       id="path4058"
       d="m 106.48772,121.32545 c 1.69657,-1.69658 -3.86316,-13.81133 -4.91809,-13.9826 -0.21351,0 -1.630474,5.40738 -3.437547,5.40738 -3.177171,0 -3.691782,-5.14989 -3.772296,-5.14989 -0.03548,0 -6.597467,10.38201 -5.767878,12.025 1.945054,3.85215 7.115507,5.35035 10.995134,4.84732 3.594597,-0.46606 5.204097,-1.45063 6.900677,-3.14721 z"
       style="fill:#784421;stroke:none" />
    <path
       sodipodi:nodetypes="csssssssccssc"
       inkscape:connector-curvature="0"
       id="path4060"
       d="m 97.413338,117.85955 c -1.087921,0.47666 -0.920386,2.9359 -2.159538,4.05652 -1.928562,1.74406 -5.510937,3.4755 -8.177627,3.27221 -2.10069,-0.16014 -5.28381,-2.27578 -8.886229,-0.80525 -2.558236,1.04428 -4.824018,1.90732 -7.353236,3.36874 -1.120698,0.64756 -2.82234,2.08772 -4.402136,2.83914 -7.784362,3.70257 -11.764644,9.95012 -2.443166,4.90441 1.380142,-0.74706 5.75975,-3.43234 7.393184,-4.12281 3.52425,-1.48976 3.251819,-1.43081 4.162091,-1.65904 1.488256,0.83237 2.854252,1.80577 3.562773,2.7286 1.815003,2.31091 9.561955,1.2 11.678944,-0.61708 2.525599,-2.16781 7.792697,2.67907 8.418937,-6.47885 0.169798,-2.48287 0.07815,-6.86397 -1.793997,-7.48659 z"
       style="fill:#784421;fill-opacity:1;stroke:none" />
    <path
       sodipodi:nodetypes="csc"
       inkscape:connector-curvature="0"
       id="path4062"
       d="m 80.16586,129.87831 c 0.370547,5.70487 -2.241978,5.68426 -5.147108,6.15253 -1.879123,0.30289 -4.254581,4.15615 0.190327,4.15615"
       style="fill:none;stroke:#784421;stroke-width:3.31378531;stroke-linecap:round;stroke-linejoin:round;stroke-miterlimit:4;stroke-opacity:1;stroke-dasharray:none" />
    <path
       sodipodi:nodetypes="ccsc"
       inkscape:connector-curvature="0"
       id="path4064"
       d="m 95.285052,127.04608 c -0.556258,-0.0433 -4.053239,3.92414 -4.350282,4.53418 -0.08689,0.17843 1.667497,7.08484 1.867905,8.12488 0.160061,0.83069 1.571529,0.63532 2.317885,1.03358"
       style="fill:none;stroke:#784421;stroke-width:3.0588789;stroke-linecap:round;stroke-linejoin:miter;stroke-miterlimit:4;stroke-opacity:1;stroke-dasharray:none" />
    <path
       style="fill:none;stroke:#784421;stroke-width:3.0588789;stroke-linecap:round;stroke-linejoin:miter;stroke-miterlimit:4;stroke-opacity:1;stroke-dasharray:none"
       d="m 97.280664,126.56782 c -0.556491,0.0401 -2.713924,3.78263 -2.916682,4.43015 -0.05934,0.18939 3.077824,6.64789 3.431068,7.64642 0.282136,0.79753 1.017832,0.3939 1.815221,0.67642"
       id="path4066"
       inkscape:connector-curvature="0"
       sodipodi:nodetypes="ccsc" />
  </g>
  <g
     inkscape:label="stand0"
     inkscape:groupmode="layer"
     id="layer1"
     style="display:inline"
     transform="translate(-56.769229,-101.87172)">
    <path
       sodipodi:nodetypes="csc"
       inkscape:connector-curvature="0"
       id="path3781"
       d="m 84.990818,129.27049 c 2.237269,5.42898 -1.693186,4.85359 -2.940566,7.00813 -0.898954,1.55272 -2.736917,4.89577 1.553064,3.97171"
       style="fill:none;stroke:#784421;stroke-width:3.31378531;stroke-linecap:round;stroke-linejoin:round;stroke-miterlimit:4;stroke-opacity:1;stroke-dasharray:none"
       inkscape:transform-center-x="0.98610742"
       inkscape:transform-center-y="4.8183314" />
    <path
       style="fill:#784421;stroke:none"
       d="m 112.16547,113.75511 c -3.10028,0.66166 -3.778,-2.30428 -4.98598,-4.96051 -1.23841,-2.72315 -2.9756,-5.1468 -3.62715,-5.1468 -0.21352,0 0.26211,5.40739 -1.54496,5.40739 -3.177175,0 -5.584369,-5.14989 -5.664884,-5.14989 -0.03548,0 -4.434513,10.20176 -3.604925,11.84475 3.747209,7.42128 14.113659,6.77482 19.427899,-1.99494 z"
       id="path2991"
       inkscape:connector-curvature="0"
       sodipodi:nodetypes="csssssc" />
    <path
       style="fill:#784421;fill-opacity:1;stroke:none"
       d="m 96.776561,116.44308 c -1.048538,0.55797 -0.694554,2.99737 -1.844942,4.20893 -1.790408,1.88562 -5.230811,3.88435 -7.905234,3.88435 -2.106788,0 -5.441516,-1.86756 -8.921732,-0.12745 -2.471454,1.23572 -4.004121,2.58622 -6.755024,3.56869 -1.218927,0.43533 -5.423333,1.58403 -6.882477,2.54906 -6.250712,4.13401 -11.38033,8.21153 -1.303079,4.92548 1.492042,-0.48653 5.562367,-3.42138 7.293383,-3.80667 3.734792,-0.83129 4.526475,-1.42386 5.416765,-1.72062 1.547221,0.71684 2.983256,1.58359 3.759873,2.44989 1.985411,2.16626 9.625507,0.4697 11.598249,-1.50304 2.353512,-2.35352 7.973799,2.07896 7.902104,-7.10006 -0.01942,-2.48859 -0.443828,-6.85005 -2.357886,-7.32856 z"
       id="path2999"
       inkscape:connector-curvature="0"
       sodipodi:nodetypes="csssssssccssc" />
    <path
       style="fill:none;stroke:#784421;stroke-width:3.31378531;stroke-linecap:round;stroke-linejoin:round;stroke-miterlimit:4;stroke-opacity:1;stroke-dasharray:none"
       d="m 80.16586,129.87831 c 0.370547,5.70487 -3.233332,4.33242 -5.147108,6.15253 -1.379213,1.31172 -4.254581,4.15615 0.190327,4.15615"
       id="path3779"
       inkscape:connector-curvature="0"
       sodipodi:nodetypes="csc" />
    <path
       style="fill:none;stroke:#784421;stroke-width:3.0588789;stroke-linecap:round;stroke-linejoin:miter;stroke-miterlimit:4;stroke-opacity:1;stroke-dasharray:none"
       d="m 95.285052,127.04608 c -0.556258,-0.0433 -2.971762,3.92414 -3.268805,4.53418 -0.08689,0.17843 0.58602,7.08484 0.786428,8.12488 0.160061,0.83069 1.571529,0.63532 2.317885,1.03358"
       id="path3783"
       inkscape:connector-curvature="0"
       sodipodi:nodetypes="ccsc" />
    <path
       sodipodi:nodetypes="ccsc"
       inkscape:connector-curvature="0"
       id="path3785"
       d="m 97.280664,126.56782 c -0.556491,0.0401 -1.271953,3.51226 -1.474711,4.15978 -0.05934,0.18939 1.635853,6.91826 1.989097,7.91679 0.282136,0.79753 1.017832,0.3939 1.815221,0.67642"
       style="fill:none;stroke:#784421;stroke-width:3.0588789;stroke-linecap:round;stroke-linejoin:miter;stroke-miterlimit:4;stroke-opacity:1;stroke-dasharray:none" />
  </g>
  <g
     transform="translate(-56.769229,-101.87172)"
     style="display:inline"
     id="g4191"
     inkscape:groupmode="layer"
     inkscape:label="stand1">
    <path
       inkscape:transform-center-y="4.8183314"
       inkscape:transform-center-x="0.98610734"
       style="fill:none;stroke:#784421;stroke-width:3.31378531;stroke-linecap:round;stroke-linejoin:round;stroke-miterlimit:4;stroke-opacity:1;stroke-dasharray:none"
       d="m 84.990818,129.27049 c 2.237269,5.42898 -1.756913,4.34378 -3.004293,6.49831 -0.898953,1.55273 -2.67319,5.40559 1.616791,4.48153"
       id="path4193"
       inkscape:connector-curvature="0"
       sodipodi:nodetypes="csc" />
    <path
       sodipodi:nodetypes="cssscsc"
       inkscape:connector-curvature="0"
       id="path4195"
       d="m 110.88548,112.5321 c -3.0777,0.75976 -3.84926,-2.18316 -5.14096,-4.79971 -1.32424,-2.68245 -5.36683,-4.9789 -6.018048,-4.95822 -0.213408,0.007 2.632618,5.71761 0.856808,5.3829 -1.95257,-0.36803 -6.509876,-5.73612 -8.628088,-4.8784 3.443375,5.86093 -1.165219,10.48353 -0.424471,11.86421 3.93043,7.32589 14.321649,6.32329 19.354759,-2.61078 z"
       style="fill:#784421;stroke:none"
       inkscape:transform-center-x="-4.6137791"
       inkscape:transform-center-y="-7.5605814" />
    <path
       sodipodi:nodetypes="cssssssssccssc"
       inkscape:connector-curvature="0"
       id="path4197"
       d="m 96.776561,115.61463 c -1.048538,0.55797 -0.694554,2.99737 -1.844942,4.20893 -1.790408,1.88562 -5.230811,3.88435 -7.905234,3.88435 -2.106788,0 -5.441516,-1.86755 -8.921732,-0.12745 -2.471454,1.23573 -2.474682,2.26759 -5.225584,3.25006 -1.218928,0.43533 -6.399453,2.51392 -7.929134,3.36272 -2.744191,1.52271 -6.340479,1.51239 -7.202323,2.08453 -1.19616,0.79407 1.317259,2.45356 7.305024,1.00426 1.525317,-0.3692 3.163991,-0.61401 4.895007,-0.99929 3.734792,-0.83129 5.100015,-2.12485 5.990305,-2.42162 1.547221,0.71684 2.919529,0.81887 3.696146,1.68517 1.985411,2.16627 9.56178,1.80796 11.534522,-0.16478 2.353512,-2.35352 9.312054,1.4417 9.240364,-7.73732 -0.0194,-2.4886 -1.718361,-7.55104 -3.632419,-8.02956 z"
       style="fill:#784421;fill-opacity:1;stroke:none" />
    <path
       sodipodi:nodetypes="csc"
       inkscape:connector-curvature="0"
       id="path4199"
       d="m 80.16586,129.87831 c 0.370547,5.70487 -3.806872,3.24906 -5.720647,5.06918 -1.379214,1.31172 -3.681042,5.2395 0.763866,5.2395"
       style="fill:none;stroke:#784421;stroke-width:3.31378531;stroke-linecap:round;stroke-linejoin:round;stroke-miterlimit:4;stroke-opacity:1;stroke-dasharray:none" />
    <path
       sodipodi:nodetypes="ccsc"
       inkscape:connector-curvature="0"
       id="path4201"
       d="m 95.285052,127.04608 c -0.556258,-0.0433 -1.952136,3.98786 -2.249179,4.59791 -0.08689,0.17843 -0.433606,7.02111 -0.233198,8.06115 0.160061,0.83069 1.571529,0.63532 2.317885,1.03358"
       style="fill:none;stroke:#784421;stroke-width:3.0588789;stroke-linecap:round;stroke-linejoin:miter;stroke-miterlimit:4;stroke-opacity:1;stroke-dasharray:none" />
    <path
       style="fill:none;stroke:#784421;stroke-width:3.0588789;stroke-linecap:round;stroke-linejoin:miter;stroke-miterlimit:4;stroke-opacity:1;stroke-dasharray:none"
       d="m 97.280664,126.56782 c -0.556491,0.0401 -0.37978,3.57599 -0.582538,4.22351 -0.05934,0.18939 0.74368,6.85453 1.096924,7.85306 0.282136,0.79753 1.017832,0.3939 1.815221,0.67642"
       id="path4203"
       inkscape:connector-curvature="0"
       sodipodi:nodetypes="ccsc" />
  </g>
  <g
     inkscape:groupmode="layer"
     id="layer2"
     inkscape:label="run0 - jumping"
     style="display:inline"
     transform="translate(-56.769229,-101.87172)">
    <path
       sodipodi:nodetypes="csc"
       inkscape:connector-curvature="0"
       id="path3781-7"
       d="m 84.990818,129.27049 c 2.237269,5.42898 -1.693186,4.85359 -2.940566,7.00813 -0.898954,1.55272 -2.736917,4.89577 1.553064,3.97171"
       style="fill:none;stroke:#784421;stroke-width:3.31378531;stroke-linecap:round;stroke-linejoin:round;stroke-miterlimit:4;stroke-opacity:1;stroke-dasharray:none"
       inkscape:transform-center-x="0.98610742"
       inkscape:transform-center-y="4.8183314" />
    <path
       style="fill:#784421;stroke:none"
       d="m 119.67442,123.28847 c -3.17006,0.0145 -3.22773,-3.02732 -3.86773,-5.87429 -0.65613,-2.91867 -6.11545,-5.64604 -6.75326,-5.77912 -0.20902,-0.0436 3.40593,5.34694 1.63694,4.97786 -3.1102,-0.64891 -12.003137,-6.18189 -12.081959,-6.19833 -0.02151,-0.004 3.342009,3.52339 2.828259,6.5986 -0.31596,1.89121 -1.36953,3.58321 -1.18807,4.26019 2.15247,8.03019 12.43246,9.5146 19.42582,2.01509 z"
       id="path2991-6"
       inkscape:connector-curvature="0"
       sodipodi:nodetypes="cssssssc" />
    <path
       style="fill:#784421;fill-opacity:1;stroke:none"
       d="m 104.00752,119.04265 c -1.18313,-0.10465 -4.862709,2.30552 -6.487871,2.69296 -2.529331,0.60301 -7.818841,2.80075 -10.493264,2.80075 -2.106788,0 -5.441516,-1.86756 -8.921732,-0.12745 -2.471454,1.23572 -4.004121,2.58622 -6.755024,3.56869 -1.218927,0.43533 -5.423333,1.58403 -6.882477,2.54906 -6.250712,4.13401 -11.38033,8.21153 -1.303079,4.92548 1.492042,-0.48653 5.562367,-3.42138 7.293383,-3.80667 3.734792,-0.83129 4.526475,-1.42386 5.416765,-1.72062 1.547221,0.71684 2.983256,1.58359 3.759873,2.44989 1.985411,2.16626 9.625507,0.4697 11.598249,-1.50304 2.353512,-2.35352 3.157497,3.50246 8.106656,-4.22835 1.341811,-2.09596 6.011291,-6.15517 4.668521,-7.6007 z"
       id="path2999-2"
       inkscape:connector-curvature="0"
       sodipodi:nodetypes="csssssssccssc" />
    <path
       style="fill:none;stroke:#784421;stroke-width:3.31378531;stroke-linecap:round;stroke-linejoin:round;stroke-miterlimit:4;stroke-opacity:1;stroke-dasharray:none"
       d="m 80.16586,129.87831 c 0.370547,5.70487 -3.233332,4.33242 -5.147108,6.15253 -1.379213,1.31172 -4.254581,4.15615 0.190327,4.15615"
       id="path3779-8"
       inkscape:connector-curvature="0"
       sodipodi:nodetypes="csc" />
    <path
       style="fill:none;stroke:#784421;stroke-width:3.0588789;stroke-linecap:round;stroke-linejoin:miter;stroke-miterlimit:4;stroke-opacity:1;stroke-dasharray:none"
       d="m 95.046806,127.71913 c -0.443477,0.33856 0.76135,5.44681 0.946616,6.09955 0.05418,0.19093 5.159808,2.45695 6.002508,3.09858 0.67307,0.51248 -1.90917,2.37954 -1.90917,2.37954"
       id="path3783-9"
       inkscape:connector-curvature="0"
       sodipodi:nodetypes="ccsc"
       inkscape:transform-center-x="-5.1184731"
       inkscape:transform-center-y="4.7261123" />
    <path
       sodipodi:nodetypes="ccsc"
       inkscape:connector-curvature="0"
       id="path3785-8"
       d="m 96.215481,126.0323 c -0.388055,0.40088 2.474776,4.99801 2.7553,5.61583 0.08202,0.18072 5.110309,0.64157 6.039259,1.15038 0.74196,0.40639 -1.1701,2.44841 -1.1701,2.44841"
       style="fill:none;stroke:#784421;stroke-width:3.0588789;stroke-linecap:round;stroke-linejoin:miter;stroke-miterlimit:4;stroke-opacity:1;stroke-dasharray:none"
       inkscape:transform-center-x="-6.9395359"
       inkscape:transform-center-y="1.8120642" />
  </g>
  <g
     inkscape:groupmode="layer"
     id="layer3"
     inkscape:label="run1 - jumping"
     style="display:inline"
     transform="translate(-56.769229,-101.87172)">
    <path
       sodipodi:nodetypes="csc"
       inkscape:connector-curvature="0"
       id="path3781-7-9"
       d="m 90.793374,127.58268 c -2.449133,6.51045 -3.709472,2.94178 -4.956852,5.09632 -0.898954,1.55273 -0.719535,4.41158 -3.890099,5.78699"
       style="fill:none;stroke:#784421;stroke-width:3.31378531;stroke-linecap:round;stroke-linejoin:round;stroke-miterlimit:4;stroke-opacity:1;stroke-dasharray:none;display:inline"
       inkscape:transform-center-x="0.98610718"
       inkscape:transform-center-y="4.8183378" />
    <path
       style="fill:#784421;stroke:none;display:inline"
       d="m 117.28118,117.83588 c -3.1668,-0.1443 -3.072,-3.18523 -3.56858,-6.06068 -0.50906,-2.94788 -8.57805,-5.79545 -9.20839,-5.96031 -0.20657,-0.054 5.42157,6.17638 4.13865,4.90373 -2.81622,-2.79369 -14.388192,-6.96023 -14.509405,-6.64597 -0.008,0.0205 5.914455,3.53651 5.247267,6.58213 -0.410308,1.873 -1.547324,3.51009 -1.399998,4.19531 1.747451,8.12794 11.940166,10.12552 19.300456,2.98579 z"
       id="path2991-6-5"
       inkscape:connector-curvature="0"
       sodipodi:nodetypes="cssssssc" />
    <path
       style="fill:#784421;fill-opacity:1;stroke:none;display:inline"
       d="m 108.69611,112.71008 c -1.18774,0.004 -4.63111,2.74118 -6.21397,3.27585 -2.46346,0.83212 -7.529461,3.50508 -10.192638,3.75002 -2.097937,0.19295 -5.589693,-1.36134 -8.895908,0.69019 -2.347888,1.45689 -5.884128,3.26379 -8.184133,5.06454 -1.428841,1.11868 -1.836689,1.88959 -3.234157,2.94195 -5.886463,4.43279 -8.643128,9.55118 -0.979744,4.76737 1.331269,-0.83103 3.757299,-4.32512 5.445753,-4.86732 3.642962,-1.16985 4.377047,-1.83244 5.236413,-2.2095 1.60637,0.57213 3.115754,1.30371 3.968447,2.09524 2.175464,1.97533 9.628065,-0.41385 11.41184,-2.55898 2.128073,-2.55917 3.465007,3.19855 7.685317,-4.95304 1.14422,-2.21004 5.4223,-6.67985 3.95278,-7.99632 z"
       id="path2999-2-0"
       inkscape:connector-curvature="0"
       sodipodi:nodetypes="csssssssccssc"
       inkscape:transform-center-x="1.7314775"
       inkscape:transform-center-y="-2.6403058" />
    <path
       style="fill:none;stroke:#784421;stroke-width:3.31378531;stroke-linecap:round;stroke-linejoin:round;stroke-miterlimit:4;stroke-opacity:1;stroke-dasharray:none;display:inline"
       d="m 84.796814,126.20779 c -1.792406,5.25425 -3.288774,2.8995 -5.202551,4.71961 -1.379215,1.31173 -1.885764,6.1954 -6.042076,7.34779"
       id="path3779-8-1"
       inkscape:connector-curvature="0"
       sodipodi:nodetypes="csc" />
    <path
       style="fill:none;stroke:#784421;stroke-width:3.0588789;stroke-linecap:round;stroke-linejoin:miter;stroke-miterlimit:4;stroke-opacity:1;stroke-dasharray:none;display:inline"
       d="m 98.422462,121.24865 c -0.460504,0.315 3.113038,5.82193 3.113038,5.82193 0,0 4.06896,2.4674 4.87712,3.15205 0.64546,0.54682 1.53819,2.40434 1.53819,2.40434"
       id="path3783-9-6"
       inkscape:connector-curvature="0"
       sodipodi:nodetypes="ccsc"
       inkscape:transform-center-x="-4.9072574"
       inkscape:transform-center-y="4.936155" />
    <path
       sodipodi:nodetypes="ccsc"
       inkscape:connector-curvature="0"
       id="path3785-8-2"
       d="m 101.01565,120.96322 c -0.4084,0.38013 4.3072,3.33007 4.3072,3.33007 0,0 3.41307,1.41664 4.31427,1.97313 0.71979,0.44447 2.0815,2.76651 2.0815,2.76651"
       style="fill:none;stroke:#784421;stroke-width:3.0588789;stroke-linecap:round;stroke-linejoin:miter;stroke-miterlimit:4;stroke-opacity:1;stroke-dasharray:none;display:inline"
       inkscape:transform-center-x="-6.8882054"
       inkscape:transform-center-y="2.1369947" />
  </g>
  <g
     inkscape:groupmode="layer"
     id="layer5"
     inkscape:label="run2 - floating"
     style="display:inline"
     transform="translate(-56.769229,-101.87172)">
    <path
       sodipodi:nodetypes="csc"
       inkscape:connector-curvature="0"
       id="path3781-7-9-8"
       d="m 91.422549,125.45778 c -4.738004,5.0927 -4.548731,1.31275 -6.520851,2.8322 -1.421257,1.09503 -2.340925,3.80787 -5.796291,3.87623"
       style="fill:none;stroke:#784421;stroke-width:3.31378531;stroke-linecap:round;stroke-linejoin:round;stroke-miterlimit:4;stroke-opacity:1;stroke-dasharray:none;display:inline"
       inkscape:transform-center-x="6.4179331"
       inkscape:transform-center-y="4.0306743" />
    <path
       style="fill:#784421;stroke:none;display:inline"
       d="m 120.93824,122.46562 c -2.91665,-1.24205 -1.76498,-4.05806 -1.22524,-6.92572 0.55338,-2.93989 -6.01147,-8.42808 -6.54444,-8.80285 -0.17466,-0.12282 2.92094,7.68175 2.16373,6.04097 -1.66218,-3.6018 -11.04807,-11.55011 -11.27148,-11.29803 -0.0146,0.0164 4.30538,5.38064 2.6158,8.00099 -1.03907,1.61147 -2.67656,2.74791 -2.77802,3.4414 -1.20356,8.22609 7.64814,13.66016 17.03965,9.54324 z"
       id="path2991-6-5-5"
       inkscape:connector-curvature="0"
       sodipodi:nodetypes="cssssssc" />
    <path
       style="fill:#784421;fill-opacity:1;stroke:none;display:inline"
       d="m 113.0124,116.16352 c -0.99327,-0.65128 -5.37501,-0.2657 -6.99039,-0.69212 -2.5141,-0.66365 -8.925903,2.79793 -11.590391,2.56768 -2.098967,-0.18138 -5.260532,-2.3291 -8.877631,-0.89508 -2.568663,1.01836 -4.211908,2.23189 -7.03718,2.97387 -1.251882,0.32878 -4.125439,0.85847 -5.836331,1.22348 -7.329159,1.5636 -15.320989,7.36978 -3.013037,4.10852 1.517012,-0.40197 5.886968,-1.51972 7.644729,-1.75454 3.792491,-0.50667 4.632256,-1.02888 5.544785,-1.24789 1.479759,0.84738 2.835846,1.83454 3.534994,2.76449 1.791534,2.32915 5.583912,1.9275 7.719172,0.13192 2.547399,-2.14215 6.5997,0.31784 9.75348,-1.44304 0.5895,-0.32914 0.68794,-3.16567 1.82184,-3.74799 3.04566,-1.56411 7.69062,-2.59861 7.32596,-3.9893 z"
       id="path2999-2-0-7"
       inkscape:connector-curvature="0"
       sodipodi:nodetypes="csssssssccsssc"
       inkscape:transform-center-x="1.0849564"
       inkscape:transform-center-y="-0.81107401" />
    <path
       style="fill:none;stroke:#784421;stroke-width:3.31378531;stroke-linecap:round;stroke-linejoin:round;stroke-miterlimit:4;stroke-opacity:1;stroke-dasharray:none;display:inline"
       d="m 85.8185,122.92366 c -3.777129,4.06857 -4.184613,1.3085 -6.673802,2.19128 -1.793904,0.6362 -4.245739,4.89007 -8.511029,4.24959"
       id="path3779-8-1-2"
       inkscape:connector-curvature="0"
       sodipodi:nodetypes="csc"
       inkscape:transform-center-x="8.2941985"
       inkscape:transform-center-y="3.5580698" />
    <path
       style="fill:none;stroke:#784421;stroke-width:3.0588789;stroke-linecap:round;stroke-linejoin:miter;stroke-miterlimit:4;stroke-opacity:1;stroke-dasharray:none;display:inline"
       d="m 98.758092,120.79354 c -0.508982,0.22853 2.033548,6.28098 2.033548,6.28098 0,0 3.56805,3.14857 4.24228,3.96543 0.5385,0.65243 2.89086,1.0164 2.89086,1.0164"
       id="path3783-9-6-7"
       inkscape:connector-curvature="0"
       sodipodi:nodetypes="ccsc"
       inkscape:transform-center-x="-3.9426872"
       inkscape:transform-center-y="5.7303358" />
    <path
       sodipodi:nodetypes="ccsc"
       inkscape:connector-curvature="0"
       id="path3785-8-2-1"
       d="m 101.36086,120.97156 c -0.46923,0.30185 3.64986,4.03978 3.64986,4.03978 0,0 3.10847,1.99832 3.89697,2.70551 0.62976,0.56485 3.001,0.74803 3.001,0.74803"
       style="fill:none;stroke:#784421;stroke-width:3.0588789;stroke-linecap:round;stroke-linejoin:miter;stroke-miterlimit:4;stroke-opacity:1;stroke-dasharray:none;display:inline"
       inkscape:transform-center-x="-6.3949879"
       inkscape:transform-center-y="3.3245421" />
  </g>
  <g
     style="display:inline"
     inkscape:label="run3 - falling"
     id="g3927"
     inkscape:groupmode="layer"
     transform="translate(-56.769229,-101.87172)">
    <path
       inkscape:transform-center-y="2.8607092"
       inkscape:transform-center-x="7.0337465"
       style="fill:none;stroke:#784421;stroke-width:3.31378531;stroke-linecap:round;stroke-linejoin:round;stroke-miterlimit:4;stroke-opacity:1;stroke-dasharray:none;display:inline"
       d="m 93.829545,125.0402 c -0.799269,8.93716 -6.151879,-0.78101 -8.363306,0.36247 -1.593727,0.82408 2.244799,5.31218 -1.16739,4.76337"
       id="path3929"
       inkscape:connector-curvature="0"
       sodipodi:nodetypes="csc" />
    <path
       sodipodi:nodetypes="cssssssc"
       inkscape:connector-curvature="0"
       id="path3931"
       d="m 126.61989,125.07026 c -3.16789,0.11842 -3.3252,-2.91993 -4.05817,-5.74439 -0.7514,-2.89561 -9.02847,-5.06526 -9.67031,-5.17736 -0.21034,-0.0367 5.91439,5.70624 4.53048,4.54419 -3.03787,-2.5509 -14.9151,-5.74494 -15.00987,-5.42173 -0.006,0.0211 6.18697,3.03464 5.77426,6.12504 -0.25381,1.90055 -1.25137,3.62616 -1.0478,4.29684 2.41446,7.95534 12.73758,9.10207 19.48141,1.37741 z"
       style="fill:#784421;stroke:none;display:inline" />
    <path
       inkscape:transform-center-y="-7.2005831"
       inkscape:transform-center-x="10.585361"
       sodipodi:nodetypes="csssssssccsssc"
       inkscape:connector-curvature="0"
       id="path3933"
       d="m 114.79064,124.43642 c -0.53201,-1.06194 -6.6409,0.71632 -7.82382,-0.4635 -1.84104,-1.83622 -5.75429,-1.45118 -7.943003,-2.98809 -1.724167,-1.21071 -3.380035,-4.65545 -7.228171,-5.23135 -2.732736,-0.40897 -4.763138,-0.18451 -7.57903,-0.96133 -1.247727,-0.34421 -3.998791,-1.32887 -5.66167,-1.87221 -7.123474,-2.32756 -16.950139,-1.31877 -4.668539,2.04036 1.513765,0.41403 5.854197,1.64144 7.492253,2.32088 3.534213,1.46596 4.522654,1.43596 5.421791,1.70471 0.854273,1.4758 1.531417,3.01038 1.669154,4.16564 0.379943,2.91379 3.861329,4.47051 6.609477,3.98971 3.278573,-0.57358 5.547988,3.58844 9.159538,3.64904 0.67508,0.0113 2.18437,-2.39235 3.45736,-2.32665 3.41926,0.17649 6.71179,-2.64142 7.09466,-4.02721 z"
       style="fill:#784421;fill-opacity:1;stroke:none;display:inline" />
    <path
       inkscape:transform-center-y="0.96845644"
       inkscape:transform-center-x="8.9864807"
       sodipodi:nodetypes="csc"
       inkscape:connector-curvature="0"
       id="path3935"
       d="m 92.354452,122.69831 c -4.881629,2.64378 -6.726235,-2.4248 -9.36725,-2.40588 -3.885893,0.0278 0.359357,9.58043 -3.47583,4.54285"
       style="fill:none;stroke:#784421;stroke-width:3.31378531;stroke-linecap:round;stroke-linejoin:round;stroke-miterlimit:4;stroke-opacity:1;stroke-dasharray:none;display:inline" />
    <path
       inkscape:transform-center-y="6.3474898"
       inkscape:transform-center-x="-2.8294789"
       sodipodi:nodetypes="ccsc"
       inkscape:connector-curvature="0"
       id="path3937"
       d="m 100.43719,126.26475 c -0.541572,0.13412 0.8811,6.5429 0.8811,6.5429 0,0 2.94951,3.73429 3.46729,4.65827 0.41354,0.73799 2.66332,1.51555 2.66332,1.51555"
       style="fill:none;stroke:#784421;stroke-width:3.0588789;stroke-linecap:round;stroke-linejoin:miter;stroke-miterlimit:4;stroke-opacity:1;stroke-dasharray:none;display:inline" />
    <path
       inkscape:transform-center-y="4.41479"
       inkscape:transform-center-x="-5.6913928"
       style="fill:none;stroke:#784421;stroke-width:3.0588789;stroke-linecap:round;stroke-linejoin:miter;stroke-miterlimit:4;stroke-opacity:1;stroke-dasharray:none;display:inline"
       d="m 102.96651,126.90397 c -0.51552,0.21335 2.87111,4.62581 2.87111,4.62581 0,0 2.70238,2.52052 3.35215,3.35697 0.51897,0.66808 2.81954,1.27111 2.81954,1.27111"
       id="path3939"
       inkscape:connector-curvature="0"
       sodipodi:nodetypes="ccsc" />
  </g>
  <g
     inkscape:groupmode="layer"
     id="g3941"
     inkscape:label="run4 - jump"
     style="display:inline"
     transform="translate(-56.769229,-101.87172)">
    <path
       style="fill:#784421;stroke:none;display:inline"
       d="m 122.76124,129.07038 c -3.16484,-0.18251 -3.03335,-3.22208 -3.49518,-6.10331 -0.47345,-2.95382 5.47817,-6.22887 4.83028,-6.29773 -6.26721,-0.66614 -7.07362,3.30866 -8.41503,4.13574 -3.29719,2.03296 -0.006,-5.06074 4.20281,-7.14422 0.0198,-0.01 -8.41744,2.33393 -11.08959,5.35611 -1.27008,1.43646 -5.43536,6.14796 -5.29631,6.83492 1.64923,8.14844 11.81711,10.26887 19.26302,3.21849 z"
       id="path3945"
       inkscape:connector-curvature="0"
       sodipodi:nodetypes="cssssssc"
       inkscape:transform-center-x="-13.241457"
       inkscape:transform-center-y="-7.3664419" />
    <path
       style="fill:#784421;fill-opacity:1;stroke:none;display:inline"
       d="m 112.38786,120.71097 c -0.99057,-0.65537 -6.54692,1.50986 -8.16052,1.07677 -2.51133,-0.67403 -5.711756,1.61051 -8.375269,1.36926 -2.098207,-0.19006 -5.250866,-2.35082 -8.873859,-0.93176 -2.572848,1.00775 -2.009489,1.06843 -4.877112,0.51213 -1.270643,-0.24649 -2.850732,-0.61119 -3.964011,-1.96064 -5.766481,-6.98975 -11.788306,-10.4739 -4.588814,0.25807 2.170989,3.2362 5.636465,5.63878 7.322244,6.18927 2.70516,1.34162 3.857154,1.03337 6.912321,3.0725 1.781894,2.33653 5.575893,1.95056 7.718556,0.16381 2.556228,-2.13161 6.598334,0.3451 9.759354,-1.40273 0.59086,-0.32672 0.70101,-3.16281 1.83731,-3.74044 3.0521,-1.55151 5.64871,-3.21405 5.2898,-4.60624 z"
       id="path3947"
       inkscape:connector-curvature="0"
       sodipodi:nodetypes="cssssssccsssc"
       inkscape:transform-center-x="13.524457"
       inkscape:transform-center-y="-2.934542" />
    <path
       style="fill:none;stroke:#784421;stroke-width:3.0588789;stroke-linecap:round;stroke-linejoin:miter;stroke-miterlimit:4;stroke-opacity:1;stroke-dasharray:none;display:inline"
       d="m 101.48266,127.64006 c -0.23046,-0.50811 -6.273209,2.05738 -6.273209,2.05738 0,0 -3.134999,3.57998 -3.949293,4.25731 -0.650383,0.54096 -1.005427,2.89469 -1.005427,2.89469"
       id="path3951"
       inkscape:connector-curvature="0"
       sodipodi:nodetypes="ccsc"
       inkscape:transform-center-x="5.7152019"
       inkscape:transform-center-y="3.9647853" />
    <path
       sodipodi:nodetypes="ccsc"
       inkscape:connector-curvature="0"
       id="path3953"
       d="m 101.05965,128.43652 c -0.30362,-0.46808 -4.025893,3.66517 -4.025893,3.66517 0,0 -1.986503,3.11604 -2.690697,3.90721 -0.562452,0.63191 -0.736634,3.00382 -0.736634,3.00382"
       style="fill:none;stroke:#784421;stroke-width:3.0588789;stroke-linecap:round;stroke-linejoin:miter;stroke-miterlimit:4;stroke-opacity:1;stroke-dasharray:none;display:inline"
       inkscape:transform-center-x="3.3001756"
       inkscape:transform-center-y="6.4077109" />
    <path
       sodipodi:nodetypes="csc"
       inkscape:connector-curvature="0"
       id="path3781-9"
       d="m 92.356063,127.75322 c 5.840842,0.60318 4.249568,5.3645 6.242213,6.85693 1.436064,1.07556 3.477614,1.77637 6.039734,0.54609"
       style="fill:none;stroke:#784421;stroke-width:3.31378531;stroke-linecap:round;stroke-linejoin:round;stroke-miterlimit:4;stroke-opacity:1;stroke-dasharray:none;display:inline"
       inkscape:transform-center-x="-7.3711975"
       inkscape:transform-center-y="3.4126783" />
    <path
       inkscape:transform-center-y="4.3059787"
       inkscape:transform-center-x="-6.88747"
       style="fill:none;stroke:#784421;stroke-width:3.31378531;stroke-linecap:round;stroke-linejoin:round;stroke-miterlimit:4;stroke-opacity:1;stroke-dasharray:none;display:inline"
       d="m 89.597984,127.70453 c 5.719833,1.32772 2.555112,5.05023 3.450563,7.37319 0.645332,1.67411 2.00273,3.35237 4.826998,3.67106"
       id="path3976"
       inkscape:connector-curvature="0"
       sodipodi:nodetypes="csc" />
  </g>
  <g
     inkscape:label="falling-asleep0"
     inkscape:groupmode="layer"
     id="g4445"
     style="display:inline"
     transform="translate(-56.769229,-101.87172)">
    <path
       sodipodi:nodetypes="csc"
       inkscape:connector-curvature="0"
       id="path4447"
       d="m 84.990818,129.27049 c 2.237269,5.42898 -0.34134,5.84494 -2.940566,7.00813 -1.637673,0.73287 -2.736917,4.89577 1.553064,3.97171"
       style="fill:none;stroke:#784421;stroke-width:3.31378531;stroke-linecap:round;stroke-linejoin:round;stroke-miterlimit:4;stroke-opacity:1;stroke-dasharray:none"
       inkscape:transform-center-x="0.98610736"
       inkscape:transform-center-y="4.8183313" />
    <path
       style="fill:#784421;stroke:none"
       d="m 106.48772,121.32545 c 1.69657,-1.69658 -3.86316,-13.81133 -4.91809,-13.9826 -0.21351,0 -1.630474,5.40738 -3.437547,5.40738 -3.177171,0 -3.691782,-5.14989 -3.772296,-5.14989 -0.03548,0 -6.597467,10.38201 -5.767878,12.025 1.945054,3.85215 7.115507,5.35035 10.995134,4.84732 3.594597,-0.46606 5.204097,-1.45063 6.900677,-3.14721 z"
       id="path4449"
       inkscape:connector-curvature="0"
       sodipodi:nodetypes="zcssssz" />
    <path
       style="fill:#784421;fill-opacity:1;stroke:none"
       d="m 97.413338,117.85955 c -1.087921,0.47666 -0.920386,2.9359 -2.159538,4.05652 -1.928562,1.74406 -5.510937,3.4755 -8.177627,3.27221 -2.10069,-0.16014 -5.28381,-2.27578 -8.886229,-0.80525 -2.558236,1.04428 -4.824018,1.90732 -7.353236,3.36874 -1.120698,0.64756 -2.82234,2.08772 -4.402136,2.83914 -7.784362,3.70257 -11.764644,9.95012 -2.443166,4.90441 1.380142,-0.74706 5.75975,-3.43234 7.393184,-4.12281 3.52425,-1.48976 3.251819,-1.43081 4.162091,-1.65904 1.488256,0.83237 2.854252,1.80577 3.562773,2.7286 1.815003,2.31091 9.561955,1.2 11.678944,-0.61708 2.525599,-2.16781 7.792697,2.67907 8.418937,-6.47885 0.169798,-2.48287 0.07815,-6.86397 -1.793997,-7.48659 z"
       id="path4451"
       inkscape:connector-curvature="0"
       sodipodi:nodetypes="csssssssccssc" />
    <path
       style="fill:none;stroke:#784421;stroke-width:3.31378531;stroke-linecap:round;stroke-linejoin:round;stroke-miterlimit:4;stroke-opacity:1;stroke-dasharray:none"
       d="m 80.16586,129.87831 c 0.370547,5.70487 -2.241978,5.68426 -5.147108,6.15253 -1.879123,0.30289 -4.254581,4.15615 0.190327,4.15615"
       id="path4453"
       inkscape:connector-curvature="0"
       sodipodi:nodetypes="csc" />
    <path
       style="fill:none;stroke:#784421;stroke-width:3.0588789;stroke-linecap:round;stroke-linejoin:miter;stroke-miterlimit:4;stroke-opacity:1;stroke-dasharray:none"
       d="m 95.285052,127.04608 c -0.556258,-0.0433 -4.053239,3.92414 -4.350282,4.53418 -0.08689,0.17843 1.667497,7.08484 1.867905,8.12488 0.160061,0.83069 1.571529,0.63532 2.317885,1.03358"
       id="path4455"
       inkscape:connector-curvature="0"
       sodipodi:nodetypes="ccsc" />
    <path
       sodipodi:nodetypes="ccsc"
       inkscape:connector-curvature="0"
       id="path4457"
       d="m 97.280664,126.56782 c -0.556491,0.0401 -2.713924,3.78263 -2.916682,4.43015 -0.05934,0.18939 3.077824,6.64789 3.431068,7.64642 0.282136,0.79753 1.017832,0.3939 1.815221,0.67642"
       style="fill:none;stroke:#784421;stroke-width:3.0588789;stroke-linecap:round;stroke-linejoin:miter;stroke-miterlimit:4;stroke-opacity:1;stroke-dasharray:none" />
  </g>
  <g
     transform="translate(-56.769229,-101.87172)"
     style="display:inline"
     id="g4459"
     inkscape:groupmode="layer"
     inkscape:label="falling-asleep1">
    <path
       inkscape:transform-center-y="4.8183313"
       inkscape:transform-center-x="0.98610736"
       style="fill:none;stroke:#784421;stroke-width:3.31378531;stroke-linecap:round;stroke-linejoin:round;stroke-miterlimit:4;stroke-opacity:1;stroke-dasharray:none"
       d="m 84.990818,129.27049 c 2.237269,5.42898 -0.34134,5.84494 -2.940566,7.00813 -1.637673,0.73287 -2.736917,4.89577 1.553064,3.97171"
       id="path4461"
       inkscape:connector-curvature="0"
       sodipodi:nodetypes="csc" />
    <path
       sodipodi:nodetypes="csssssssccssc"
       inkscape:connector-curvature="0"
       id="path4463"
       d="m 99.246484,123.77188 c -1.169849,0.20549 -1.589405,2.63447 -3.058663,3.42979 -2.286692,1.2378 -6.177175,2.07174 -8.719888,1.24278 -2.00303,-0.65301 -4.594663,-3.46221 -8.44284,-2.88651 -2.732757,0.40882 -7.271616,2.39659 -8.521654,2.91316 -1.274118,0.52652 -4.192797,3.55891 -2.372842,6.16559 4.748662,6.80141 8.677812,8.28507 3.435707,-0.46218 -0.806723,-1.34614 -0.09179,-2.18163 1.588625,-2.74826 3.625613,-1.22255 2.03988,-1.31536 2.03988,-1.31536 0,0 2.345494,2.43027 2.815348,3.49463 1.216187,2.67497 9.005877,3.43004 11.492926,2.16593 2.967084,-1.50814 6.936707,4.44809 9.713631,-4.3011 0.752891,-2.37205 1.701246,-6.65026 0.02977,-7.69847 z"
       style="fill:#784421;fill-opacity:1;stroke:none" />
    <path
       sodipodi:nodetypes="csc"
       inkscape:connector-curvature="0"
       id="path4465"
       d="m 80.16586,129.87831 c 0.370547,5.70487 -2.241978,5.68426 -5.147108,6.15253 -1.879123,0.30289 -4.254581,4.15615 0.190327,4.15615"
       style="fill:none;stroke:#784421;stroke-width:3.31378531;stroke-linecap:round;stroke-linejoin:round;stroke-miterlimit:4;stroke-opacity:1;stroke-dasharray:none" />
    <path
       sodipodi:nodetypes="ccsc"
       inkscape:connector-curvature="0"
       id="path4467"
       d="m 94.647785,127.04608 c -0.556257,-0.0433 -4.153706,10.13009 -4.450748,10.74014 -0.08689,0.17843 3.807216,0.87888 4.007624,1.91892 0.160061,0.83069 1.571529,0.63532 2.317886,1.03358"
       style="fill:none;stroke:#784421;stroke-width:3.0588789;stroke-linecap:round;stroke-linejoin:miter;stroke-miterlimit:4;stroke-opacity:1;stroke-dasharray:none" />
    <path
       style="fill:none;stroke:#784421;stroke-width:3.0588789;stroke-linecap:round;stroke-linejoin:miter;stroke-miterlimit:4;stroke-opacity:1;stroke-dasharray:none"
       d="m 96.643398,126.56782 c -0.556492,0.0401 -1.794765,9.73368 -1.997523,10.3812 -0.05934,0.18939 4.197917,0.69684 4.551161,1.69537 0.282136,0.79753 1.017834,0.3939 1.815224,0.67642"
       id="path4469"
       inkscape:connector-curvature="0"
       sodipodi:nodetypes="ccsc" />
    <path
       sodipodi:nodetypes="cssssssc"
       inkscape:connector-curvature="0"
       id="path4471"
       d="m 86.302796,125.67039 c 3.149406,0.36164 3.539903,-2.65558 4.487886,-5.4153 0.971865,-2.82926 8.257753,-5.46727 8.906303,-5.52968 0.212535,-0.0205 -5.370592,6.05772 -3.73301,5.29362 2.831647,-1.32123 9.858875,-5.20915 11.022375,-5.28371 0.52266,-0.0335 -3.87922,1.90255 -3.31275,4.56457 0.61888,2.90833 2.49846,5.62394 2.15885,6.49527 -3.01909,7.74612 -13.399805,8.09561 -19.529654,-0.12477 z"
       style="fill:#784421;stroke:none;display:inline" />
  </g>
  <g
     inkscape:label="asleep0"
     inkscape:groupmode="layer"
     id="g4491"
     style="display:inline"
     transform="translate(-56.769229,-101.87172)">
    <path
       sodipodi:nodetypes="csc"
       inkscape:connector-curvature="0"
       id="path4493"
       d="m 83.990818,132.14549 c 2.237269,5.42898 0.65866,2.96994 -1.940566,4.13313 -1.637673,0.73287 -2.736917,4.89577 1.553064,3.97171"
       style="fill:none;stroke:#784421;stroke-width:3.31378531;stroke-linecap:round;stroke-linejoin:round;stroke-miterlimit:4;stroke-opacity:1;stroke-dasharray:none"
       inkscape:transform-center-x="0.98610736"
       inkscape:transform-center-y="4.8183313" />
    <path
       style="fill:#784421;fill-opacity:1;stroke:none"
       d="m 94.746484,127.27188 c -1.169849,0.20549 2.035595,2.25947 0.566337,3.05479 -2.286692,1.2378 -6.302175,0.69674 -8.844888,-0.13222 -2.00303,-0.65301 -2.969663,-3.71221 -6.81784,-3.13651 -2.732757,0.40882 -8.771616,4.02159 -10.021654,4.53816 -1.274118,0.52652 0.23412,8.18775 3.377158,8.66559 1.50427,1.60751 3.919649,0.7193 8.189212,0.7242 15.76865,-0.34087 15.836441,-2.57201 17.146905,-6.39054 0.752891,-2.37205 -1.923754,-6.27526 -3.59523,-7.32347 z"
       id="path4495"
       inkscape:connector-curvature="0"
       sodipodi:nodetypes="csssscccc" />
    <path
       style="fill:none;stroke:#784421;stroke-width:3.31378531;stroke-linecap:round;stroke-linejoin:round;stroke-miterlimit:4;stroke-opacity:1;stroke-dasharray:none"
       d="m 80.16586,129.87831 c 0.370547,5.70487 -2.241978,5.68426 -5.147108,6.15253 -1.879123,0.30289 -4.254581,4.15615 0.190327,4.15615"
       id="path4497"
       inkscape:connector-curvature="0"
       sodipodi:nodetypes="csc" />
    <path
       style="fill:none;stroke:#784421;stroke-width:3.0588789;stroke-linecap:round;stroke-linejoin:miter;stroke-miterlimit:4;stroke-opacity:1;stroke-dasharray:none"
       d="m 93.522785,130.29608 c -0.556257,-0.0433 -3.028706,6.88009 -3.325748,7.49014 -0.08689,0.17843 3.807216,0.87888 4.007624,1.91892 0.160061,0.83069 1.571529,0.63532 2.317886,1.03358"
       id="path4499"
       inkscape:connector-curvature="0"
       sodipodi:nodetypes="ccsc" />
    <path
       sodipodi:nodetypes="ccsc"
       inkscape:connector-curvature="0"
       id="path4501"
       d="m 96.643398,129.31782 c -0.556492,0.0401 -1.794765,6.98368 -1.997523,7.6312 -0.05934,0.18939 4.197917,0.69684 4.551161,1.69537 0.282136,0.79753 1.017834,0.3939 1.815224,0.67642"
       style="fill:none;stroke:#784421;stroke-width:3.0588789;stroke-linecap:round;stroke-linejoin:miter;stroke-miterlimit:4;stroke-opacity:1;stroke-dasharray:none" />
    <path
       style="fill:#784421;stroke:none;display:inline"
       d="m 80.052796,131.54539 c 3.149406,0.36164 3.539903,-2.65558 4.487886,-5.4153 0.971865,-2.82926 5.007753,-3.71727 5.656303,-3.77968 0.212535,-0.0205 -1.269937,5.17036 -0.48301,3.54362 2.831647,-5.85358 9.858875,-3.603 11.022375,-1.78371 0.28217,0.44122 -3.87922,0.15255 -3.31275,2.81457 0.61888,2.90833 2.49846,3.87394 2.15885,4.74527 -3.01909,7.74612 -13.399805,8.09561 -19.529654,-0.12477 z"
       id="path4503"
       inkscape:connector-curvature="0"
       sodipodi:nodetypes="cssssssc" />
  </g>
  <g
     transform="translate(-56.769229,-101.87172)"
     style="display:inline"
     id="g4505"
     inkscape:groupmode="layer"
     inkscape:label="asleep1">
    <path
       inkscape:transform-center-y="4.8183313"
       inkscape:transform-center-x="0.98610736"
       style="fill:none;stroke:#784421;stroke-width:3.31378531;stroke-linecap:round;stroke-linejoin:round;stroke-miterlimit:4;stroke-opacity:1;stroke-dasharray:none"
       d="m 83.990818,132.14549 c 2.237269,5.42898 0.65866,2.96994 -1.940566,4.13313 -1.637673,0.73287 -2.736917,4.89577 1.553064,3.97171"
       id="path4507"
       inkscape:connector-curvature="0"
       sodipodi:nodetypes="csc" />
    <path
       sodipodi:nodetypes="csssscccc"
       inkscape:connector-curvature="0"
       id="path4509"
       d="m 94.746484,124.69954 c -1.169849,0.24337 2.035595,2.67598 0.566337,3.61791 -2.286692,1.46597 -6.302175,0.82517 -8.844888,-0.1566 -2.00303,-0.77338 -2.969663,-4.39651 -6.81784,-3.71469 -2.732757,0.48418 -11.021616,4.38793 -12.271654,4.99972 -1.274118,0.62358 2.48412,10.07207 5.627158,10.638 1.50427,1.90383 3.919649,0.85189 8.189212,0.85769 15.76865,-0.4037 15.836441,-3.04613 17.146905,-7.56856 0.752891,-2.80931 -1.923754,-7.43203 -3.59523,-8.67347 z"
       style="fill:#784421;fill-opacity:1;stroke:none" />
    <path
       sodipodi:nodetypes="csc"
       inkscape:connector-curvature="0"
       id="path4511"
       d="m 80.16586,129.87831 c 0.370547,5.70487 -2.241978,5.68426 -5.147108,6.15253 -1.879123,0.30289 -4.254581,4.15615 0.190327,4.15615"
       style="fill:none;stroke:#784421;stroke-width:3.31378531;stroke-linecap:round;stroke-linejoin:round;stroke-miterlimit:4;stroke-opacity:1;stroke-dasharray:none" />
    <path
       sodipodi:nodetypes="ccsc"
       inkscape:connector-curvature="0"
       id="path4513"
       d="m 93.522785,130.29608 c -0.556257,-0.0433 -3.028706,6.88009 -3.325748,7.49014 -0.08689,0.17843 3.807216,0.87888 4.007624,1.91892 0.160061,0.83069 1.571529,0.63532 2.317886,1.03358"
       style="fill:none;stroke:#784421;stroke-width:3.0588789;stroke-linecap:round;stroke-linejoin:miter;stroke-miterlimit:4;stroke-opacity:1;stroke-dasharray:none" />
    <path
       style="fill:none;stroke:#784421;stroke-width:3.0588789;stroke-linecap:round;stroke-linejoin:miter;stroke-miterlimit:4;stroke-opacity:1;stroke-dasharray:none"
       d="m 96.643398,129.31782 c -0.556492,0.0401 -1.794765,6.98368 -1.997523,7.6312 -0.05934,0.18939 4.197917,0.69684 4.551161,1.69537 0.282136,0.79753 1.017834,0.3939 1.815224,0.67642"
       id="path4515"
       inkscape:connector-curvature="0"
       sodipodi:nodetypes="ccsc" />
    <path
       sodipodi:nodetypes="cssssssc"
       inkscape:connector-curvature="0"
       id="path4517"
       d="m 80.725414,126.74675 c 2.941435,1.18216 4.116444,-1.62416 5.760925,-4.03464 1.685914,-2.47122 5.812917,-2.25958 6.454863,-2.14814 0.210383,0.0365 -2.592875,4.64999 -1.403524,3.28948 4.279709,-4.89558 10.460862,-0.86565 11.101452,1.19668 0.15536,0.50016 -3.781295,-0.87943 -3.939457,1.83759 -0.172801,2.96843 1.384247,4.397 0.82617,5.1474 -4.961284,6.67105 -15.064423,4.26108 -18.800429,-5.28837 z"
       style="fill:#784421;stroke:none;display:inline" />
  </g>
</svg>
