<?xml version="1.0" encoding="UTF-8" standalone="no"?>
<!-- Created with Inkscape (http://www.inkscape.org/) -->

<svg
   xmlns:dc="http://purl.org/dc/elements/1.1/"
   xmlns:cc="http://creativecommons.org/ns#"
   xmlns:rdf="http://www.w3.org/1999/02/22-rdf-syntax-ns#"
   xmlns:svg="http://www.w3.org/2000/svg"
   xmlns="http://www.w3.org/2000/svg"
   xmlns:sodipodi="http://sodipodi.sourceforge.net/DTD/sodipodi-0.dtd"
   xmlns:inkscape="http://www.inkscape.org/namespaces/inkscape"
   width="86.602539"
   height="50"
   id="svg3299"
   version="1.1"
   inkscape:version="0.48.5 r10040"
   inkscape:export-filename="/home/vg/Project/unjueyguito/assets/floor.png"
   inkscape:export-xdpi="90"
   inkscape:export-ydpi="90"
   sodipodi:docname="floor.svg">
  <defs
     id="defs3301" />
  <sodipodi:namedview
     id="base"
     pagecolor="#ffffff"
     bordercolor="#666666"
     borderopacity="1.0"
     inkscape:pageopacity="0.0"
     inkscape:pageshadow="2"
     inkscape:zoom="1"
     inkscape:cx="36.333438"
     inkscape:cy="16.18956"
     inkscape:document-units="px"
     inkscape:current-layer="layer1"
     showgrid="true"
     inkscape:snap-global="true"
     fit-margin-top="0"
     fit-margin-left="0"
     fit-margin-right="0"
     fit-margin-bottom="0"
     inkscape:window-width="1366"
     inkscape:window-height="724"
     inkscape:window-x="0"
     inkscape:window-y="-5"
     inkscape:window-maximized="1">
    <inkscape:grid
       type="axonomgrid"
       id="grid3307"
       units="px"
       empspacing="5"
       visible="true"
       enabled="true"
       snapvisiblegridlinesonly="true"
       spacingy="5px"
       originx="-21.650635px"
       originy="-987.5px" />
  </sodipodi:namedview>
  <metadata
     id="metadata3304">
    <rdf:RDF>
      <cc:Work
         rdf:about="">
        <dc:format>image/svg+xml</dc:format>
        <dc:type
           rdf:resource="http://purl.org/dc/dcmitype/StillImage" />
        <dc:title></dc:title>
      </cc:Work>
    </rdf:RDF>
  </metadata>
  <g
     inkscape:label="Layer 1"
     inkscape:groupmode="layer"
     id="layer1"
     transform="translate(-21.650635,-14.862183)">
    <path
       style="fill:#5c3a23;stroke:none;fill-opacity:1"
       d="M 9.4610968e-8,37.5 43.30127,12.5 l 43.30127,25 -43.30127,25 z"
       id="path4390"
       inkscape:connector-curvature="0"
       transform="translate(21.650635,2.3621826)" />
    <path
       sodipodi:type="arc"
       style="fill:#445500;stroke:none;stroke-width:0.50000000000000000;stroke-linecap:round;stroke-linejoin:round;stroke-miterlimit:4;stroke-opacity:1;stroke-dasharray:none;fill-opacity:0.71980672999999995"
       id="path4478"
       sodipodi:cx="30.310888"
       sodipodi:cy="17.5"
       sodipodi:rx="4.1827555"
       sodipodi:ry="2.5850849"
       d="m 34.493644,17.5 c 0,1.427703 -1.872684,2.585085 -4.182756,2.585085 -2.310072,0 -4.182755,-1.157382 -4.182755,-2.585085 0,-1.427703 1.872683,-2.585085 4.182755,-2.585085 2.310072,0 4.182756,1.157382 4.182756,2.585085 z"
       transform="translate(21.650635,14.862183)" />
    <path
       transform="matrix(3.0704662,0,0,3.0704662,-58.427543,-13.956061)"
       d="m 34.493644,17.5 c 0,1.427703 -1.872684,2.585085 -4.182756,2.585085 -2.310072,0 -4.182755,-1.157382 -4.182755,-2.585085 0,-1.427703 1.872683,-2.585085 4.182755,-2.585085 2.310072,0 4.182756,1.157382 4.182756,2.585085 z"
       sodipodi:ry="2.5850849"
       sodipodi:rx="4.1827555"
       sodipodi:cy="17.5"
       sodipodi:cx="30.310888"
       id="path4480"
       style="fill:#445500;fill-opacity:0.71980672999999995;stroke:none"
       sodipodi:type="arc" />
    <path
       sodipodi:type="arc"
       style="fill:#445500;fill-opacity:0.71980672999999995;stroke:none"
       id="path4482"
       sodipodi:cx="30.310888"
       sodipodi:cy="17.5"
       sodipodi:rx="4.1827555"
       sodipodi:ry="2.5850849"
       d="m 34.493644,17.5 c 0,1.427703 -1.872684,2.585085 -4.182756,2.585085 -2.310072,0 -4.182755,-1.157382 -4.182755,-2.585085 0,-1.427703 1.872683,-2.585085 4.182755,-2.585085 2.310072,0 4.182756,1.157382 4.182756,2.585085 z"
       transform="matrix(3.0704662,0,0,3.0704662,-41.107034,-14.308391)" />
    <path
       sodipodi:type="arc"
       style="fill:#445500;fill-opacity:0.71980672999999995;stroke:none"
       id="path4484"
       sodipodi:cx="38.971142"
       sodipodi:cy="12.5"
       sodipodi:rx="8.6602545"
       sodipodi:ry="8.6602545"
       d="m 47.631396,12.5 c 0,4.782926 -3.877328,8.660254 -8.660254,8.660254 -4.782927,0 -8.660255,-3.877328 -8.660255,-8.660254 0,-4.7829265 3.877328,-8.6602545 8.660255,-8.6602545 4.782926,0 8.660254,3.877328 8.660254,8.6602545 z"
       transform="translate(21.650635,14.862183)" />
    <path
       sodipodi:type="arc"
       style="fill:#445500;fill-opacity:0.71980672999999995;stroke:none"
       id="path4486"
       sodipodi:cx="30.310888"
       sodipodi:cy="37.5"
       sodipodi:rx="3.169873"
       sodipodi:ry="3.169873"
       d="m 33.480761,37.5 c 0,1.750673 -1.4192,3.169873 -3.169873,3.169873 -1.750672,0 -3.169873,-1.4192 -3.169873,-3.169873 0,-1.750673 1.419201,-3.169873 3.169873,-3.169873 1.750673,0 3.169873,1.4192 3.169873,3.169873 z"
       transform="translate(21.650635,14.862183)" />
    <path
       sodipodi:type="arc"
       style="fill:#445500;fill-opacity:0.71980672999999995;stroke:none"
       id="path4488"
       sodipodi:cx="43.30127"
       sodipodi:cy="35"
       sodipodi:rx="12.548266"
       sodipodi:ry="7.7552552"
       d="m 55.849536,35 c 0,4.283109 -5.61805,7.755255 -12.548266,7.755255 -6.930217,0 -12.548267,-3.472146 -12.548267,-7.755255 0,-4.283109 5.61805,-7.755255 12.548267,-7.755255 6.930216,0 12.548266,3.472146 12.548266,7.755255 z"
       transform="translate(21.650635,14.862183)" />
    <path
       sodipodi:type="arc"
       style="fill:#445500;fill-opacity:0.71980672999999995;stroke:none"
       id="path4490"
       sodipodi:cx="51.961525"
       sodipodi:cy="20"
       sodipodi:rx="4.8045335"
       sodipodi:ry="7.7738986"
       d="m 56.766058,20 c 0,4.293406 -2.151062,7.773899 -4.804533,7.773899 -2.653471,0 -4.804534,-3.480493 -4.804534,-7.773899 0,-4.293406 2.151063,-7.773899 4.804534,-7.773899 2.653471,0 4.804533,3.480493 4.804533,7.773899 z"
       transform="translate(21.650635,14.862183)" />
    <path
       sodipodi:type="arc"
       style="fill:#445500;fill-opacity:0.71980672999999995;stroke:none"
       id="path4492"
       sodipodi:cx="60.621777"
       sodipodi:cy="30"
       sodipodi:rx="3.169873"
       sodipodi:ry="3.169873"
       d="m 63.79165,30 c 0,1.750673 -1.419201,3.169873 -3.169873,3.169873 -1.750673,0 -3.169873,-1.4192 -3.169873,-3.169873 0,-1.750673 1.4192,-3.169873 3.169873,-3.169873 1.750672,0 3.169873,1.4192 3.169873,3.169873 z"
       transform="translate(21.650635,14.862183)" />
    <path
       sodipodi:type="arc"
       style="fill:#445500;fill-opacity:0.71980672999999995;stroke:none"
       id="path4494"
       sodipodi:cx="69.282036"
       sodipodi:cy="20"
       sodipodi:rx="8.6602545"
       sodipodi:ry="8.6602545"
       d="m 77.94229,20 c 0,4.782926 -3.877328,8.660254 -8.660254,8.660254 -4.782927,0 -8.660255,-3.877328 -8.660255,-8.660254 0,-4.782926 3.877328,-8.660254 8.660255,-8.660254 4.782926,0 8.660254,3.877328 8.660254,8.660254 z"
       transform="translate(21.650635,14.862183)" />
    <path
       sodipodi:type="arc"
       style="fill:#445500;fill-opacity:0.71980672999999995;stroke:none"
       id="path4496"
       sodipodi:cx="17.320509"
       sodipodi:cy="10"
       sodipodi:rx="10.980762"
       sodipodi:ry="3.660254"
       d="m 28.30127,10 c 0,2.021502 -4.916254,3.660254 -10.980761,3.660254 -6.064507,0 -10.9807616,-1.638752 -10.9807616,-3.660254 0,-2.0215025 4.9162546,-3.660254 10.9807616,-3.660254 6.064507,0 10.980761,1.6387515 10.980761,3.660254 z"
       transform="translate(21.650635,14.862183)" />
    <path
       sodipodi:type="arc"
       style="fill:#445500;fill-opacity:0.71980672999999995;stroke:none"
       id="path4498"
       sodipodi:cx="47.631397"
       sodipodi:cy="7.5"
       sodipodi:rx="3.5145686"
       sodipodi:ry="7.0291371"
       d="m 51.145966,7.5 c 0,3.882085 -1.573526,7.029137 -3.514569,7.029137 -1.941042,0 -3.514568,-3.147052 -3.514568,-7.029137 0,-3.8820852 1.573526,-7.02913713 3.514568,-7.02913713 1.941043,0 3.514569,3.14705193 3.514569,7.02913713 z"
       transform="translate(21.650635,14.862183)" />
    <path
       sodipodi:type="arc"
       style="fill:#445500;fill-opacity:0.71980672999999995;stroke:none"
       id="path4500"
       sodipodi:cx="60.621777"
       sodipodi:cy="10"
       sodipodi:rx="1.0441301"
       sodipodi:ry="9.397171"
       d="m 61.665907,10 c 0,5.189914 -0.467473,9.397171 -1.04413,9.397171 -0.576658,0 -1.044131,-4.207257 -1.044131,-9.397171 0,-5.1899142 0.467473,-9.39717102 1.044131,-9.39717102 0.576657,0 1.04413,4.20725682 1.04413,9.39717102 z"
       transform="translate(21.650635,14.862183)" />
    <path
       sodipodi:type="arc"
       style="fill:#445500;fill-opacity:0.71980672999999995;stroke:none"
       id="path4502"
       sodipodi:cx="60.621777"
       sodipodi:cy="10"
       sodipodi:rx="8.6602545"
       sodipodi:ry="4.3301272"
       d="m 69.282031,10 c 0,2.391463 -3.877328,4.330127 -8.660254,4.330127 -4.782927,0 -8.660255,-1.938664 -8.660255,-4.330127 0,-2.3914632 3.877328,-4.3301272 8.660255,-4.3301272 4.782926,0 8.660254,1.938664 8.660254,4.3301272 z"
       transform="translate(21.650635,14.862183)" />
    <path
       sodipodi:type="arc"
       style="fill:#445500;fill-opacity:0.71980672999999995;stroke:none"
       id="path4504"
       sodipodi:cx="56.291653"
       sodipodi:cy="27.5"
       sodipodi:rx="16.471144"
       sodipodi:ry="5.4903812"
       d="m 72.762796,27.5 c 0,3.032254 -7.374382,5.490381 -16.471143,5.490381 -9.096762,0 -16.471144,-2.458127 -16.471144,-5.490381 0,-3.032254 7.374382,-5.490381 16.471144,-5.490381 9.096761,0 16.471143,2.458127 16.471143,5.490381 z"
       transform="translate(21.650635,14.862183)" />
    <path
       sodipodi:type="arc"
       style="fill:#445500;fill-opacity:0.71980672999999995;stroke:none"
       id="path4506"
       sodipodi:cx="51.961525"
       sodipodi:cy="45"
       sodipodi:rx="8.6602545"
       sodipodi:ry="2.8867514"
       d="m 60.621779,45 c 0,1.594309 -3.877328,2.886751 -8.660254,2.886751 -4.782927,0 -8.660255,-1.292442 -8.660255,-2.886751 0,-1.594309 3.877328,-2.886751 8.660255,-2.886751 4.782926,0 8.660254,1.292442 8.660254,2.886751 z"
       transform="translate(21.650635,14.862183)" />
    <path
       sodipodi:type="arc"
       style="fill:#445500;fill-opacity:0.71980672999999995;stroke:none"
       id="path4508"
       sodipodi:cx="34.641018"
       sodipodi:cy="50"
       sodipodi:rx="8.6602545"
       sodipodi:ry="4.3301272"
       d="m 43.301272,50 c 0,2.391463 -3.877328,4.330127 -8.660254,4.330127 -4.782927,0 -8.660255,-1.938664 -8.660255,-4.330127 0,-2.391463 3.877328,-4.330127 8.660255,-4.330127 4.782926,0 8.660254,1.938664 8.660254,4.330127 z"
       transform="translate(21.650635,14.862183)" />
    <path
       sodipodi:type="arc"
       style="fill:#445500;fill-opacity:0.71980675000000005;stroke:none"
       id="path4510"
       sodipodi:cx="47.631397"
       sodipodi:cy="17.5"
       sodipodi:rx="4.3301272"
       sodipodi:ry="7.5"
       d="m 51.961524,17.5 c 0,4.142136 -1.938664,7.5 -4.330127,7.5 -2.391463,0 -4.330127,-3.357864 -4.330127,-7.5 0,-4.142136 1.938664,-7.5 4.330127,-7.5 2.391463,0 4.330127,3.357864 4.330127,7.5 z"
       transform="translate(21.650635,14.862183)" />
    <path
       sodipodi:type="arc"
       style="fill:#445500;fill-opacity:0.71980675000000005;stroke:none"
       id="path4512"
       sodipodi:cx="51.961525"
       sodipodi:cy="15"
       sodipodi:rx="8.6602545"
       sodipodi:ry="5"
       d="m 60.621779,15 c 0,2.761424 -3.877328,5 -8.660254,5 -4.782927,0 -8.660255,-2.238576 -8.660255,-5 0,-2.761424 3.877328,-5 8.660255,-5 4.782926,0 8.660254,2.238576 8.660254,5 z"
       transform="translate(21.650635,14.862183)" />
    <path
       sodipodi:type="arc"
       style="fill:#445500;fill-opacity:0.71980675000000005;stroke:none"
       id="path4514"
       sodipodi:cx="30.310888"
       sodipodi:cy="32.5"
       sodipodi:rx="4.3301272"
       sodipodi:ry="7.5"
       d="m 34.641016,32.5 c 0,4.142136 -1.938664,7.5 -4.330128,7.5 -2.391463,0 -4.330127,-3.357864 -4.330127,-7.5 0,-4.142136 1.938664,-7.5 4.330127,-7.5 2.391464,0 4.330128,3.357864 4.330128,7.5 z"
       transform="translate(21.650635,14.862183)" />
    <path
       sodipodi:type="arc"
       style="fill:#445500;fill-opacity:0.71980675000000005;stroke:none"
       id="path4516"
       sodipodi:cx="21.650635"
       sodipodi:cy="32.5"
       sodipodi:rx="4.3301272"
       sodipodi:ry="2.5"
       d="m 25.980762,32.5 c 0,1.380712 -1.938664,2.5 -4.330127,2.5 -2.391463,0 -4.330127,-1.119288 -4.330127,-2.5 0,-1.380712 1.938664,-2.5 4.330127,-2.5 2.391463,0 4.330127,1.119288 4.330127,2.5 z"
       transform="translate(21.650635,14.862183)" />
    <rect
       style="fill:#445500;fill-opacity:0.71980675000000005;stroke:none"
       id="rect4518"
       width="25.980762"
       height="35"
       x="56.291653"
       y="17.5"
       transform="translate(21.650635,14.862183)" />
    <path
       sodipodi:type="star"
       style="fill:#4a8300;fill-opacity:0.64601767;stroke:none"
       id="path8020"
       sodipodi:sides="5"
       sodipodi:cx="43.30127"
       sodipodi:cy="15"
       sodipodi:r1="8.660254"
       sodipodi:r2="4.330127"
       sodipodi:arg1="1.0471976"
       sodipodi:arg2="1.6755161"
       inkscape:flatsided="false"
       inkscape:rounded="0"
       inkscape:randomized="0"
       d="m 47.631396,22.5 -4.782748,-3.193594 -5.342219,2.129416 1.559337,-5.535538 -3.676032,-4.422727 5.746472,-0.227557 3.070307,-4.8628117 1.992177,5.3949007 5.573586,1.417343 -4.515239,3.561789 z"
       transform="translate(21.650635,14.862183)"
       inkscape:transform-center-x="-0.27973549"
       inkscape:transform-center-y="-0.55640613" />
    <path
       sodipodi:type="star"
       style="fill:#4a8300;fill-opacity:0.6460177;stroke:none"
       id="path8534"
       sodipodi:sides="5"
       sodipodi:cx="25.980762"
       sodipodi:cy="25"
       sodipodi:r1="13.228757"
       sodipodi:r2="6.6143784"
       sodipodi:arg1="2.3561945"
       sodipodi:arg2="2.984513"
       inkscape:flatsided="false"
       inkscape:rounded="0.1"
       inkscape:randomized="0.2"
       d="m 15.10991,32.678157 c -0.743003,-0.47882 4.08532,-7.861008 3.861813,-8.652983 -0.223507,-0.791975 -6.391728,-4.617927 -5.957313,-5.352743 0.434415,-0.734815 7.826155,1.714609 8.681556,1.425643 0.855401,-0.288966 4.478506,-8.097657 5.437112,-7.997722 0.958607,0.09994 2.212721,9.305146 2.733842,10.04864 0.521121,0.743495 10.775026,0.673409 10.772196,1.567708 -0.0028,0.894299 -10.263333,5.267824 -10.740694,5.996154 -0.47736,0.728331 4.722254,5.345341 3.941137,5.67628 -0.781117,0.33094 -9.085225,-4.126475 -10.036951,-4.274184 -0.951726,-0.147709 -7.949696,2.042028 -8.692698,1.563207 z"
       transform="translate(21.650635,14.862183)"
       inkscape:transform-center-x="-0.83504819"
       inkscape:transform-center-y="-1.2469574" />
    <path
       sodipodi:type="star"
       style="fill:#4a8300;fill-opacity:0.6460177;stroke:none"
       id="path8536"
       sodipodi:sides="5"
       sodipodi:cx="64.951905"
       sodipodi:cy="27.5"
       sodipodi:r1="0.001"
       sodipodi:r2="1.0658141e-13"
       sodipodi:arg1="-1.5707963"
       sodipodi:arg2="-0.9424778"
       inkscape:flatsided="false"
       inkscape:rounded="0.1"
       inkscape:randomized="0.2"
       d="m 64.951705,27.498961 c 1.03e-4,-3.3e-5 -7.2e-5,9.81e-4 0,0.001 7.2e-5,6.4e-5 9.44e-4,-2.13e-4 9.73e-4,-1.25e-4 2.9e-5,8.8e-5 -9.6e-4,8e-5 -9.73e-4,1.79e-4 -1.4e-5,9.8e-5 7.01e-4,5.65e-4 6.09e-4,5.93e-4 -9.2e-5,2.8e-5 -5.12e-4,-6.11e-4 -6.09e-4,-5.93e-4 -9.8e-5,1.7e-5 -5.04e-4,8.62e-4 -5.88e-4,8.09e-4 -8.4e-5,-5.3e-5 6.35e-4,-7.22e-4 5.88e-4,-8.09e-4 -4.7e-5,-8.8e-5 -6.41e-4,-4.75e-4 -5.72e-4,-5.48e-4 6.8e-5,-7.3e-5 4.89e-4,5.42e-4 5.72e-4,4.94e-4 8.3e-5,-4.9e-5 -1.03e-4,-0.001 0,-0.001 z"
       transform="translate(21.650635,14.862183)"
       inkscape:transform-center-x="1.0149392e-05"
       inkscape:transform-center-y="-8.4181682e-05" />
    <path
       sodipodi:type="star"
       style="fill:#4a8300;fill-opacity:0.6460177;stroke:none"
       id="path8538"
       sodipodi:sides="5"
       sodipodi:cx="51.961524"
       sodipodi:cy="35"
       sodipodi:r1="5"
       sodipodi:r2="0.05"
       sodipodi:arg1="0.52359878"
       sodipodi:arg2="1.1519173"
       inkscape:flatsided="false"
       inkscape:rounded="0.1"
       inkscape:randomized="0.2"
       d="m 56.975214,38.478501 c -0.286182,0.463945 -5.248028,-3.417513 -5.747871,-3.27014 -0.499842,0.147374 0.51987,3.960605 0.04875,3.99233 -0.471118,0.03172 0.479164,-4.501336 0.109005,-4.815694 -0.370158,-0.314357 -4.198892,0.822213 -4.3836,0.337795 -0.184708,-0.484417 5.404775,1.602581 5.622726,1.141865 0.217951,-0.460716 -3.004195,-5.573101 -2.58094,-5.796921 0.423256,-0.22382 1.622161,5.155138 2.094676,5.178243 0.472515,0.0231 2.99633,-4.483692 3.225767,-4.096365 0.229437,0.387328 -3.71823,4.025051 -3.556902,4.460851 0.161327,0.435801 5.45457,2.404091 5.168387,2.868036 z"
       transform="translate(21.650635,14.862183)"
       inkscape:transform-center-x="-0.030191699"
       inkscape:transform-center-y="-0.36910195" />
    <path
       sodipodi:type="star"
       style="fill:#4a8300;fill-opacity:0.6460177;stroke:none"
       id="path8540"
       sodipodi:sides="5"
       sodipodi:cx="38.971143"
       sodipodi:cy="37.5"
       sodipodi:r1="8.660254"
       sodipodi:r2="0.08660254"
       sodipodi:arg1="-1.0471976"
       sodipodi:arg2="-0.41887902"
       inkscape:flatsided="false"
       inkscape:rounded="0.1"
       inkscape:randomized="0.2"
       d="m 44.320122,31.457909 c 0.881605,0.19903 -7.318855,4.803853 -6.764569,5.443009 0.554286,0.639156 10.219346,0.649608 9.839336,1.45075 -0.38001,0.801143 -6.649078,-2.459163 -7.415293,-1.979161 -0.766216,0.480003 -0.125922,10.23327 -1.005474,10.505392 -0.879552,0.272122 1.856628,-10.173608 0.988934,-10.537455 -0.867695,-0.363847 -9.379035,7.029646 -9.898486,6.292134 -0.51945,-0.737512 7.971099,-2.949977 8.196409,-3.760505 0.22531,-0.810527 -4.578657,-7.485901 -3.830674,-7.91882 0.747983,-0.432919 3.080629,6.822454 3.989871,6.681394 0.909242,-0.14106 5.018341,-6.375768 5.899946,-6.176738 z"
       transform="translate(21.650635,14.862183)"
       inkscape:transform-center-x="0.24740094"
       inkscape:transform-center-y="1.4088713" />
    <path
       sodipodi:type="star"
       style="fill:#4a8300;fill-opacity:0.6460177;stroke:none"
       id="path8542"
       sodipodi:sides="5"
       sodipodi:cx="60.621778"
       sodipodi:cy="20"
       sodipodi:r1="13.228757"
       sodipodi:r2="0.13228757"
       sodipodi:arg1="0.78539816"
       sodipodi:arg2="1.4137167"
       inkscape:flatsided="false"
       inkscape:rounded="0.1"
       inkscape:randomized="0.2"
       d="m 71.088326,29.499771 c -0.848378,1.030687 -9.007178,-11.760822 -10.269071,-11.82373 -1.261892,-0.06291 -3.689744,12.328495 -4.977833,11.965176 -1.288089,-0.363319 4.344916,-8.215747 3.859366,-9.429304 -0.48555,-1.213557 -11.526773,-1.637969 -11.004772,-2.894366 0.522001,-1.256396 12.040028,5.411806 12.865894,4.495084 0.825865,-0.916722 -5.55714,-13.6634116 -4.310956,-13.7538479 1.246185,-0.090436 4.238805,10.0110079 5.2897,10.9406569 1.050895,0.92965 11.20293,-6.037995 11.72771,-4.820681 0.524779,1.217314 -15.759503,3.694871 -15.620468,4.996032 0.139035,1.301161 13.288809,9.294293 12.44043,10.32498 z"
       transform="translate(21.650635,14.862183)"
       inkscape:transform-center-x="-0.85765352"
       inkscape:transform-center-y="-1.1463835" />
    <path
       sodipodi:type="star"
       style="fill:#4a8300;fill-opacity:0.6460177;stroke:none"
       id="path8544"
       sodipodi:sides="5"
       sodipodi:cx="38.971143"
       sodipodi:cy="12.5"
       sodipodi:r1="13.228757"
       sodipodi:r2="0.13228757"
       sodipodi:arg1="0.78539816"
       sodipodi:arg2="1.4137167"
       inkscape:flatsided="false"
       inkscape:rounded="0.1"
       inkscape:randomized="0.2"
       d="M 49.837051,20.75945 C 48.851416,21.558978 37.976901,13.284816 36.745824,13.815813 35.514747,14.346811 35.721518,26.774966 34.590147,26.192399 33.458776,25.609832 41.500346,15.047863 40.633598,13.909323 39.76685,12.770783 27.049863,9.458516 27.246617,8.1573393 27.44337,6.8561627 39.762901,13.245226 40.683033,12.245645 c 0.920131,-0.99958 -5.882283,-12.95822306 -4.6888,-13.3843067 1.193482,-0.4260836 3.892365,10.349885 5.097022,10.9778937 1.204657,0.628009 11.667615,-5.6338619 11.925833,-4.400794 0.258218,1.2330678 -13.061328,3.2017141 -13.15112,4.584623 -0.08979,1.382908 10.956718,9.936861 9.971083,10.736389 z"
       transform="translate(21.650635,14.862183)"
       inkscape:transform-center-x="-1.1614341"
       inkscape:transform-center-y="0.03064186" />
    <path
       sodipodi:type="star"
       style="fill:#4a8300;fill-opacity:0.6460177;stroke:none"
       id="path8546"
       sodipodi:sides="5"
       sodipodi:cx="38.971143"
       sodipodi:cy="22.5"
       sodipodi:r1="8.660254"
       sodipodi:r2="0.08660254"
       sodipodi:arg1="1.0471976"
       sodipodi:arg2="1.6755161"
       inkscape:flatsided="false"
       inkscape:rounded="0.1"
       inkscape:randomized="0.2"
       d="m 44.323576,30.990042 c -0.750233,0.45538 -4.987064,-9.28601 -5.900057,-9.418129 -0.912993,-0.13212 -3.228355,6.317185 -3.997448,5.815085 -0.769093,-0.502101 3.906924,-4.674466 3.837136,-5.456941 -0.06979,-0.782474 -8.372593,-3.113235 -8.219137,-3.929121 0.153456,-0.815887 9.202259,4.951314 9.924222,4.603321 0.721963,-0.347993 -1.765534,-8.20052 -0.997178,-7.879721 0.768356,0.320799 0.407454,5.467518 1.014944,5.979128 0.607489,0.51161 7.203007,-1.178655 7.397355,-0.292569 0.194348,0.886087 -9.237165,3.036966 -9.823515,3.765296 -0.58635,0.72833 7.51391,6.358271 6.763678,6.813651 z"
       transform="translate(21.650635,14.862183)"
       inkscape:transform-center-x="0.25696975"
       inkscape:transform-center-y="0.36024672" />
    <path
       sodipodi:type="star"
       style="fill:#4a8300;fill-opacity:0.6460177;stroke:none"
       id="path8548"
       sodipodi:sides="5"
       sodipodi:cx="25.980762"
       sodipodi:cy="20"
       sodipodi:r1="8.660254"
       sodipodi:r2="0.08660254"
       sodipodi:arg1="1.0471976"
       sodipodi:arg2="1.6755161"
       inkscape:flatsided="false"
       inkscape:rounded="0.1"
       inkscape:randomized="0.2"
       d="m 30.94212,26.826503 c -0.764319,0.16773 -4.948846,-7.594193 -5.71331,-7.819228 -0.764463,-0.225034 -3.677485,8.329269 -4.184195,7.680285 -0.506709,-0.648983 3.979308,-6.491554 4.023883,-7.32214 0.04458,-0.830586 -7.508908,-1.818432 -7.20495,-2.68976 0.303958,-0.871329 7.767181,4.113693 8.536541,3.630258 0.76936,-0.483435 -1.715511,-9.832723 -0.810431,-9.744921 0.90508,0.0878 0.642307,10.414915 1.201691,11.042131 0.559384,0.627216 6.42024,-5.044849 6.506963,-4.11066 0.08672,0.934189 -5.344997,1.740083 -5.655768,2.520384 -0.310772,0.780302 4.063895,6.645922 3.299576,6.813651 z"
       transform="translate(21.650635,14.862183)"
       inkscape:transform-center-x="0.40378604"
       inkscape:transform-center-y="-1.3052174" />
    <path
       sodipodi:type="star"
       style="fill:#4a8300;fill-opacity:0.6460177;stroke:none"
       id="path8550"
       sodipodi:sides="5"
       sodipodi:cx="34.641016"
       sodipodi:cy="35"
       sodipodi:r1="8.660254"
       sodipodi:r2="0.08660254"
       sodipodi:arg1="0"
       sodipodi:arg2="0.62831853"
       inkscape:flatsided="false"
       inkscape:rounded="0.1"
       inkscape:randomized="0.2"
       d="m 44.280903,36.630176 c -0.139843,0.806518 -8.551457,-3.040931 -9.139915,-2.351842 -0.588458,0.68909 3.143658,10.130997 2.374222,10.43068 -0.769436,0.299683 -1.035267,-10.716274 -1.828379,-10.978958 -0.793112,-0.262683 -7.24981,8.452803 -7.697148,7.753101 -0.447338,-0.699703 7.450122,-4.373618 7.449167,-5.16701 -9.55e-4,-0.793393 -7.951109,-4.016574 -7.427998,-4.752431 0.523112,-0.735857 6.912159,3.47846 7.676647,3.140255 0.764489,-0.338205 0.886809,-8.330587 1.823923,-8.301244 0.937113,0.02934 -2.986869,9.483376 -2.373108,10.147433 0.613761,0.664056 9.282433,-0.726502 9.142589,0.08002 z"
       transform="translate(21.650635,14.862183)"
       inkscape:transform-center-x="-1.4873898"
       inkscape:transform-center-y="0.55883282" />
    <path
       sodipodi:type="star"
       style="fill:#4a8300;fill-opacity:0.6460177;stroke:none"
       id="path8552"
       sodipodi:sides="5"
       sodipodi:cx="51.961524"
       sodipodi:cy="25"
       sodipodi:r1="20"
       sodipodi:r2="0.2"
       sodipodi:arg1="0.52359878"
       sodipodi:arg2="1.1519173"
       inkscape:flatsided="false"
       inkscape:rounded="0.1"
       inkscape:randomized="0.2"
       d="m 72.878267,31.300253 c -0.685164,1.709514 -20.908089,-6.706278 -22.938688,-6.447595 -2.030598,0.258684 -0.69737,21.146326 -2.725602,20.410141 -2.028231,-0.736185 3.418687,-20.487769 1.906166,-21.879124 -1.51252,-1.391355 -15.309658,2.93591 -15.778947,0.850599 -0.46929,-2.085312 14.23358,1.765067 15.711653,0.424054 C 50.530922,23.317315 41.859391,8.3900551 43.968814,8.0548857 46.078238,7.7197163 53.822975,28.550866 55.782687,28.586756 57.742399,28.622645 64.063291,7.0586568 65.731901,8.3314801 67.400511,9.6043033 49.723913,23.732895 50.484551,25.767592 51.24519,27.80229 73.563432,29.59074 72.878267,31.300253 z"
       transform="translate(21.650635,14.862183)"
       inkscape:transform-center-x="-1.1747619"
       inkscape:transform-center-y="1.6663475" />
    <path
       sodipodi:type="star"
       style="fill:#4a8300;fill-opacity:0.6460177;stroke:none"
       id="path8554"
       sodipodi:sides="5"
       sodipodi:cx="34.641016"
       sodipodi:cy="20"
       sodipodi:r1="13.228757"
       sodipodi:r2="0.13228757"
       sodipodi:arg1="0.78539816"
       sodipodi:arg2="1.4137167"
       inkscape:flatsided="false"
       inkscape:rounded="0.1"
       inkscape:randomized="0.2"
       d="M 44.225297,29.145556 C 43.072859,29.881024 33.974069,18.667615 32.88139,19.22346 31.78871,19.779305 27.577793,32.414865 26.596183,31.720887 25.614572,31.026909 37.631098,20.3116 36.769163,19.31697 35.907229,18.322339 23.278156,20.053165 23.382182,18.856489 23.486207,17.659812 33.049845,21.63147 33.909305,20.51091 34.768764,19.39035 30.918886,6.6678388 32.222381,6.7485839 c 1.303495,0.080745 3.867367,13.2858381 5.004439,13.7897971 1.137072,0.50396 9.28193,-7.733516 10.178514,-6.713837 0.896585,1.01968 -11.401927,5.626626 -11.403801,6.897666 -0.0019,1.27104 9.376201,7.687878 8.223764,8.423346 z"
       transform="translate(21.650635,14.862183)"
       inkscape:transform-center-x="-0.77579605"
       inkscape:transform-center-y="-0.75167403" />
    <path
       sodipodi:type="star"
       style="fill:#4a8300;fill-opacity:0.6460177;stroke:none"
       id="path8556"
       sodipodi:sides="5"
       sodipodi:cx="38.971143"
       sodipodi:cy="32.5"
       sodipodi:r1="18.027756"
       sodipodi:r2="0.18027756"
       sodipodi:arg1="0.26179939"
       sodipodi:arg2="0.89011792"
       inkscape:flatsided="false"
       inkscape:rounded="0.1"
       inkscape:randomized="0.2"
       d="M 55.566414,38.109269 C 54.577427,39.68778 41.326529,30.474156 39.861971,31.431221 38.397413,32.388287 41.300599,47.822422 39.461063,47.341842 37.621528,46.861262 44.027209,31.055235 42.159259,30.488829 40.29131,29.922422 19.334335,41.336603 18.942157,39.671168 18.549979,38.005733 34.691453,37.19332 35.472086,35.464806 36.252719,33.736292 23.893282,22.561676 24.827493,21.205729 25.761705,19.849781 35.573548,32.522582 37.403364,32.050886 39.23318,31.579191 49.58917,19.34967 51.33768,19.818754 53.08619,20.287838 37.567113,32.152323 37.976922,33.7223 c 0.409809,1.569978 18.578478,2.808459 17.589492,4.386969 z"
       transform="translate(21.650635,14.862183)"
       inkscape:transform-center-x="1.7008966"
       inkscape:transform-center-y="1.0792164" />
    <path
       sodipodi:type="star"
       style="fill:#4a8300;fill-opacity:0.6460177;stroke:none"
       id="path8558"
       sodipodi:sides="5"
       sodipodi:cx="60.621778"
       sodipodi:cy="30"
       sodipodi:r1="8.660254"
       sodipodi:r2="0.08660254"
       sodipodi:arg1="0"
       sodipodi:arg2="0.62831853"
       inkscape:flatsided="false"
       inkscape:rounded="0.1"
       inkscape:randomized="0.2"
       d="m 70.878463,31.689797 c -0.01118,0.882652 -11.322531,-0.748044 -11.900371,-0.132652 -0.57784,0.615392 4.803475,5.209858 4.063447,5.648107 -0.740028,0.43825 -2.430846,-7.897777 -3.330857,-8.061585 -0.900011,-0.163809 -6.237631,6.564922 -6.898315,6.080639 -0.660684,-0.484282 6.772981,-2.630501 6.650334,-3.494549 -0.122646,-0.864047 -7.314532,-5.854713 -6.629165,-6.424891 0.685367,-0.570179 6.100555,5.29603 6.877815,4.812716 0.777259,-0.483315 2.622863,-8.13554 3.3264,-7.754515 0.703536,0.381025 -4.604226,7.357021 -4.062333,8.001802 0.541893,0.644781 11.914224,0.442275 11.903045,1.324928 z"
       transform="translate(21.650635,14.862183)"
       inkscape:transform-center-x="-1.2058834"
       inkscape:transform-center-y="-0.21437681" />
    <path
       sodipodi:type="star"
       style="fill:#4a8300;fill-opacity:0.6460177;stroke:none"
       id="path8560"
       sodipodi:sides="5"
       sodipodi:cx="56.291651"
       sodipodi:cy="17.5"
       sodipodi:r1="20"
       sodipodi:r2="0.2"
       sodipodi:arg1="0.52359878"
       sodipodi:arg2="1.1519173"
       inkscape:flatsided="false"
       inkscape:rounded="0.1"
       inkscape:randomized="0.2"
       d="m 76.504333,26.963594 c -0.866667,1.81936 -21.632827,-10.688759 -23.070426,-9.50529 -1.437599,1.183469 2.00232,19.432126 0.04783,18.964829 -1.954484,-0.467298 0.422248,-19.079278 -0.867272,-20.433812 -1.289519,-1.354535 -15.477377,2.77969 -15.778947,0.850598 -0.30157,-1.929092 15.22526,2.168314 15.711653,0.424055 0.486393,-1.74426 -8.086665,-18.11602146 -6.285994,-18.7270437 1.800672,-0.6110222 10.851732,22.4719567 13.015832,22.6554707 2.164101,0.183515 8.507871,-21.51416545 9.949215,-20.2552752 1.441343,1.2588903 -15.818402,15.5326452 -15.24735,17.4361122 0.571051,1.903468 23.392121,6.770997 22.525454,8.590356 z"
       transform="translate(21.650635,14.862183)"
       inkscape:transform-center-x="-0.40616369"
       inkscape:transform-center-y="-0.021517544" />
    <path
       sodipodi:type="star"
       style="fill:#4a8300;fill-opacity:0.6460177;stroke:none"
       id="path8562"
       sodipodi:sides="5"
       sodipodi:cx="73.612159"
       sodipodi:cy="27.5"
       sodipodi:r1="8.660254"
       sodipodi:r2="0.08660254"
       sodipodi:arg1="0"
       sodipodi:arg2="0.62831853"
       inkscape:flatsided="false"
       inkscape:rounded="0.1"
       inkscape:randomized="0.2"
       d="m 80.591248,27.758146 c -0.02635,0.937976 -6.309715,-2.343309 -6.876748,-1.726003 -0.567033,0.617306 3.298915,10.251173 2.503925,10.70556 -0.79499,0.454387 -2.547451,-7.906482 -3.330857,-8.061585 -0.783406,-0.155104 -6.200829,3.144523 -6.898315,2.616538 -0.697487,-0.527986 6.766608,-2.573528 6.650334,-3.494549 -0.116273,-0.921021 -7.232792,-5.93827 -6.629165,-6.424892 0.603626,-0.486622 6.192793,5.224164 6.877815,4.812716 0.685021,-0.411448 2.580327,-8.173584 3.3264,-7.754515 0.746073,0.41907 -3.04786,9.238265 -2.502811,9.872552 0.545049,0.634288 6.905773,-1.483798 6.879422,-0.545822 z"
       transform="translate(21.650635,14.862183)"
       inkscape:transform-center-x="0.3448768"
       inkscape:transform-center-y="0.08530894" />
    <path
       sodipodi:type="star"
       style="fill:#4a8300;fill-opacity:0.6460177;stroke:none"
       id="path8564"
       sodipodi:sides="5"
       sodipodi:cx="30.310889"
       sodipodi:cy="2.5"
       sodipodi:r1="15"
       sodipodi:r2="0.15"
       sodipodi:arg1="0.52359878"
       sodipodi:arg2="1.1519173"
       inkscape:flatsided="false"
       inkscape:rounded="0.1"
       inkscape:randomized="0.2"
       d="M 45.041275,10.451854 C 44.743151,11.767922 33.189177,3.7022828 32.052505,4.4416402 30.915834,5.1809975 30.508139,19.803722 29.092265,19.839862 27.67639,19.876001 31.828798,2.0430993 30.798446,0.95601042 29.768094,-0.13107842 12.941872,4.2125562 12.844807,2.8072794 12.747743,1.4020026 32.122984,5.1764217 33.012262,3.9619997 33.90154,2.7475778 22.672575,-13.405845 24.069248,-13.649397 25.465921,-13.89295 26.406722,0.17110088 27.673157,0.84560688 28.939592,1.5201129 42.280249,-10.375211 42.891128,-9.0315959 43.502006,-7.6879807 28.232786,-0.57988699 28.115955,1.046913 c -0.11683,1.6268 17.223444,8.0888735 16.92532,9.404941 z"
       transform="translate(21.650635,14.862183)"
       inkscape:transform-center-x="1.3528716"
       inkscape:transform-center-y="0.5936963" />
    <path
       sodipodi:type="star"
       style="fill:#4a8300;fill-opacity:0.6460177;stroke:none"
       id="path8566"
       sodipodi:sides="5"
       sodipodi:cx="17.320508"
       sodipodi:cy="25"
       sodipodi:r1="13.228757"
       sodipodi:r2="0.13228757"
       sodipodi:arg1="0.26179939"
       sodipodi:arg2="0.89011792"
       inkscape:flatsided="false"
       inkscape:rounded="0.1"
       inkscape:randomized="0.2"
       d="m 30.524544,28.469802 c -0.14173,1.323077 -12.821177,-4.543637 -13.801716,-3.652611 -0.980539,0.891026 3.208096,13.458398 1.86132,13.842354 -1.346776,0.383957 0.318,-15.251827 -0.746349,-15.884805 -1.064348,-0.632979 -9.9491244,7.131864 -10.5541203,5.986679 -0.6049959,-1.145186 9.2696193,-0.08 9.2545863,-1.508444 -0.01503,-1.428447 -10.2917079,-12.098074 -9.1612345,-12.655359 1.1304733,-0.557285 9.1696775,9.044326 10.4250085,8.759242 1.255331,-0.285084 7.032116,-10.561163 8.294974,-9.878012 1.262859,0.683152 -9.907333,8.843722 -9.75072,10.037993 0.156613,1.19427 14.319981,3.629887 14.178251,4.952963 z"
       transform="translate(21.650635,14.862183)"
       inkscape:transform-center-x="-1.5707791"
       inkscape:transform-center-y="1.0563724" />
    <path
       sodipodi:type="star"
       style="fill:#4a8300;fill-opacity:0.6460177;stroke:none"
       id="path8568"
       sodipodi:sides="5"
       sodipodi:cx="8.6602541"
       sodipodi:cy="20"
       sodipodi:r1="8.660254"
       sodipodi:r2="0.08660254"
       sodipodi:arg1="0"
       sodipodi:arg2="0.62831853"
       inkscape:flatsided="false"
       inkscape:rounded="0.1"
       inkscape:randomized="0.2"
       d="M 18.927063,21.071707 C 18.808392,21.863701 8.7695245,20.387219 8.3994668,21.210904 8.0294092,22.034589 11.734351,29.607722 10.960436,29.776384 10.186521,29.945046 8.3289742,20.807022 7.572535,20.390777 6.8160959,19.974533 1.2661813,25.083519 0.73126414,24.331336 0.19634694,23.579153 7.1758911,20.320512 7.3245542,19.512766 7.4732173,18.705021 0.30894772,15.105841 0.752433,14.411896 c 0.4434853,-0.693946 5.9802965,7.152512 6.8207705,6.952796 0.8404741,-0.199716 2.4954775,-10.06365 3.3834445,-9.894595 0.887967,0.169054 -2.91265,7.719378 -2.5598551,8.548531 0.3527949,0.829154 10.6489421,0.261086 10.5302701,1.053079 z"
       transform="translate(21.650635,14.862183)"
       inkscape:transform-center-x="-1.1574064"
       inkscape:transform-center-y="0.62331918" />
    <path
       sodipodi:type="star"
       style="fill:#4a8300;fill-opacity:0.6460177;stroke:none"
       id="path8570"
       sodipodi:sides="5"
       sodipodi:cx="34.641016"
       sodipodi:cy="10"
       sodipodi:r1="20"
       sodipodi:r2="0.2"
       sodipodi:arg1="0.52359878"
       sodipodi:arg2="1.1519173"
       inkscape:flatsided="false"
       inkscape:rounded="0.1"
       inkscape:randomized="0.2"
       d="M 55.457469,17.588405 C 54.305486,19.119116 34.547141,5.5470527 32.950056,6.833315 31.352972,8.1195773 31.627927,31.521267 29.79318,31.550951 27.958432,31.580636 36.405605,15.643734 35.300908,13.992139 34.19621,12.340544 17.862387,13.186119 17.976673,11.33993 18.090958,9.4937411 30.695368,12.792207 31.632051,10.94648 32.568734,9.1007522 25.211885,-4.7183918 26.839319,-5.7132589 28.466752,-6.708126 31.759149,6.661868 33.532177,7.5027152 35.305206,8.3435624 47.423601,-6.8885817 48.602406,-5.4366645 49.781211,-3.9847474 32.890546,10.214365 33.063754,12.055744 c 0.173208,1.84138 23.545699,4.001951 22.393715,5.532661 z"
       transform="translate(21.650635,14.862183)"
       inkscape:transform-center-x="-2.0845087"
       inkscape:transform-center-y="2.8924415" />
    <path
       sodipodi:type="star"
       style="fill:#4a8300;fill-opacity:0.6460177;stroke:none"
       id="path8572"
       sodipodi:sides="5"
       sodipodi:cx="34.641016"
       sodipodi:cy="-2.8421709e-14"
       sodipodi:r1="13.228757"
       sodipodi:r2="0.13228757"
       sodipodi:arg1="0.78539816"
       sodipodi:arg2="1.4137167"
       inkscape:flatsided="false"
       inkscape:rounded="0.1"
       inkscape:randomized="0.2"
       d="M 44.203513,7.3170616 C 42.989865,8.0903462 34.016837,2.0988491 32.859605,2.6864682 31.702373,3.2740872 27.614216,10.628661 26.574398,9.8923924 25.534581,9.1561233 37.655663,-1.461863 36.747379,-2.511525 35.839096,-3.5611871 23.026259,-2.11282 23.354952,-3.4291296 c 0.328692,-1.3163096 9.579658,2.5522694 10.527123,1.6544213 0.947464,-0.897848 -2.899172,-10.0102467 -1.774061,-10.4932987 1.12511,-0.483052 3.917446,9.7595741 5.091576,10.5207701 1.174129,0.76119601 9.4131,-4.5258713 10.091377,-3.4448097 0.678277,1.0810616 -11.308257,2.7427809 -11.311218,4.085762 -0.003,1.34298105 9.437411,7.6500616 8.223764,8.4233462 z"
       transform="translate(21.650635,14.862183)"
       inkscape:transform-center-x="-0.69270584"
       inkscape:transform-center-y="-1.1702118" />
    <path
       sodipodi:type="star"
       style="fill:#4a8300;fill-opacity:0.6460177;stroke:none"
       id="path8574"
       sodipodi:sides="5"
       sodipodi:cx="47.631397"
       sodipodi:cy="7.5"
       sodipodi:r1="18.027756"
       sodipodi:r2="0.18027756"
       sodipodi:arg1="0.78539816"
       sodipodi:arg2="1.4137167"
       inkscape:flatsided="false"
       inkscape:rounded="0.1"
       inkscape:randomized="0.2"
       d="M 63.387008,17.831043 C 61.753758,18.863823 52.416252,10.406496 50.635695,11.182556 48.855138,11.958616 38.512094,24.040816 36.950446,23.194618 35.388798,22.348421 46.391905,8.5161221 45.388419,7.1920735 44.384933,5.8680249 28.213029,5.152637 28.833003,3.4498823 29.452977,1.7471276 47.388624,9.3046844 48.96215,8.2557135 50.535676,7.2067426 43.055865,-12.778044 44.68539,-12.925611 46.314915,-13.073177 47.004061,8.2259249 48.351182,9.4384639 49.698304,10.651003 62.07851,-1.7169947 63.309938,-0.30475222 64.541367,1.1074903 49.87268,7.0159763 49.576519,8.920224 c -0.296161,1.904248 15.443739,7.878038 13.810489,8.910819 z"
       transform="translate(21.650635,14.862183)"
       inkscape:transform-center-x="1.4706361"
       inkscape:transform-center-y="-2.3446628" />
    <path
       sodipodi:type="star"
       style="fill:#4a8300;fill-opacity:0.6460177;stroke:none"
       id="path8576"
       sodipodi:sides="5"
       sodipodi:cx="30.310889"
       sodipodi:cy="27.5"
       sodipodi:r1="8.660254"
       sodipodi:r2="0.08660254"
       sodipodi:arg1="1.0471976"
       sodipodi:arg2="1.6755161"
       inkscape:flatsided="false"
       inkscape:rounded="0.1"
       inkscape:randomized="0.2"
       d="m 36.294449,35.046054 c -0.856044,0.321441 -6.124004,-7.580511 -7.043946,-7.46827 -0.919941,0.112242 -5.145927,6.768735 -5.614014,6.084416 -0.468087,-0.684319 5.727559,-4.985426 5.453702,-5.726271 -0.273856,-0.740845 -7.670078,-1.941688 -7.20495,-2.68976 0.465127,-0.748072 6.680455,2.04386 7.350513,1.49321 0.670058,-0.55065 -0.520474,-9.210176 0.318552,-8.931893 0.839026,0.278282 0.534552,8.565699 1.258736,8.902049 0.724184,0.336351 6.642759,-3.376032 6.69371,-2.511758 0.05095,0.864274 -6.898405,1.818292 -7.402037,2.514835 -0.503633,0.696542 7.045779,8.012002 6.189734,8.333442 z"
       transform="translate(21.650635,14.862183)"
       inkscape:transform-center-x="0.62527528"
       inkscape:transform-center-y="-1.0717381" />
    <path
       sodipodi:type="star"
       style="fill:#4a8300;fill-opacity:0.6460177;stroke:none"
       id="path8578"
       sodipodi:sides="5"
       sodipodi:cx="34.641016"
       sodipodi:cy="40"
       sodipodi:r1="17.320508"
       sodipodi:r2="0.17320508"
       sodipodi:arg1="0"
       sodipodi:arg2="0.62831853"
       inkscape:flatsided="false"
       inkscape:rounded="0.1"
       inkscape:randomized="0.2"
       d="m 55.017622,40.305559 c -0.188614,1.553494 -21.404971,0.268869 -22.161773,1.80259 -0.756802,1.533722 9.649875,11.122705 8.036627,12.056201 -1.613247,0.933495 -6.37402,-10.856936 -8.02453,-11.059613 -1.65051,-0.202676 -13.497842,9.525155 -14.858147,8.527114 -1.360306,-0.998041 14.361417,-10.075025 13.985905,-11.87443 -0.375511,-1.799404 -15.165659,-8.28689 -13.908583,-9.574619 1.257076,-1.287728 13.177815,11.781113 14.776591,11.154579 1.598776,-0.626533 6.308566,-18.949683 8.020965,-18.39165 1.712399,0.558033 -8.979475,15.10615 -8.03217,16.729693 0.947304,1.623542 22.35373,-0.92336 22.165115,0.630135 z"
       transform="translate(21.650635,14.862183)"
       inkscape:transform-center-x="-1.8361213"
       inkscape:transform-center-y="-1.4248885" />
    <path
       sodipodi:type="star"
       style="fill:#4a8300;fill-opacity:0.6460177;stroke:none"
       id="path8580"
       sodipodi:sides="5"
       sodipodi:cx="51.961524"
       sodipodi:cy="25"
       sodipodi:r1="18.027756"
       sodipodi:r2="0.18027756"
       sodipodi:arg1="0.78539816"
       sodipodi:arg2="1.4137167"
       inkscape:flatsided="false"
       inkscape:rounded="0.1"
       inkscape:randomized="0.2"
       d="M 65.565796,36.413248 C 64.447914,37.718234 54.537039,22.413284 52.814483,22.553659 51.091927,22.694034 42.117605,39.83695 40.593989,39.185334 39.070373,38.533718 55.344056,27.488253 54.778309,25.774279 54.212562,24.060305 30.912921,23.985276 31.011791,22.032088 31.110661,20.0789 50.080939,28.137498 51.140938,26.837919 52.200936,25.53834 49.653362,8.607625 51.34379,8.4698205 53.034219,8.3320159 48.755497,27.197683 50.52997,28.02067 c 1.774474,0.822986 13.979987,-10.748235 14.966178,-9.120262 0.986191,1.627972 -9.992779,2.879279 -9.776144,4.707745 0.216636,1.828466 10.963674,11.500109 9.845792,12.805095 z"
       transform="translate(21.650635,14.862183)"
       inkscape:transform-center-x="3.6321355"
       inkscape:transform-center-y="-1.1637407" />
    <path
       sodipodi:type="star"
       style="fill:#4a8300;fill-opacity:0.6460177;stroke:none"
       id="path8582"
       sodipodi:sides="5"
       sodipodi:cx="51.961524"
       sodipodi:cy="30"
       sodipodi:r1="15"
       sodipodi:r2="0.15"
       sodipodi:arg1="0.52359878"
       sodipodi:arg2="1.1519173"
       inkscape:flatsided="false"
       inkscape:rounded="0.1"
       inkscape:randomized="0.2"
       d="m 67.9216,35.28493 c -0.889812,1.146882 -16.833122,-4.97879 -18.243054,-4.178186 -1.409932,0.800605 1.014427,16.185001 -0.582525,15.869077 -1.596952,-0.315923 2.429343,-17.671347 1.706181,-18.883851 -0.723161,-1.212503 -11.884434,6.400076 -12.277094,5.081891 -0.39266,-1.318186 11.410842,-3.838086 11.789739,-5.316136 0.378897,-1.47805 -5.868723,-12.212706 -4.693461,-13.239704 1.175262,-1.026999 6.711203,13.253204 8.055527,13.363546 1.344324,0.110341 9.315617,-9.463594 10.119441,-8.284502 0.803824,1.179092 -10.185749,7.027122 -9.676642,8.485808 0.509106,1.458686 14.6917,5.955174 13.801888,7.102057 z"
       transform="translate(21.650635,14.862183)"
       inkscape:transform-center-x="-1.2649869"
       inkscape:transform-center-y="0.77289645" />
    <path
       sodipodi:type="star"
       style="fill:#4a8300;fill-opacity:0.6460177;stroke:none"
       id="path8584"
       sodipodi:sides="5"
       sodipodi:cx="64.951905"
       sodipodi:cy="27.5"
       sodipodi:r1="10"
       sodipodi:r2="0.1"
       sodipodi:arg1="0.52359878"
       sodipodi:arg2="1.1519173"
       inkscape:flatsided="false"
       inkscape:rounded="0.1"
       inkscape:randomized="0.2"
       d="m 75.012959,32.430714 c -0.259536,0.871362 -9.547573,-6.78438 -10.310023,-6.10282 -0.762449,0.681559 -0.61561,9.36085 -1.581495,9.233845 -0.965885,-0.127005 1.125639,-8.781275 0.310965,-9.395067 -0.814674,-0.613791 -8.182148,3.149847 -8.471881,2.155862 -0.289733,-0.993984 11.234598,0.871139 11.457091,-0.1139 0.222492,-0.98504 -4.838354,-11.027966 -3.894162,-11.56429 0.944192,-0.536325 0.6298,12.551122 1.630318,12.522489 1.000517,-0.02863 7.007568,-8.208466 7.559829,-7.452716 0.55226,0.75575 -6.90361,3.561055 -6.950728,4.484156 -0.04712,0.923101 10.509623,5.36108 10.250086,6.232441 z"
       transform="translate(21.650635,14.862183)"
       inkscape:transform-center-x="-0.045361944"
       inkscape:transform-center-y="-1.4042911" />
    <path
       sodipodi:type="star"
       style="fill:#4a8300;fill-opacity:0.6460177;stroke:none"
       id="path8586"
       sodipodi:sides="5"
       sodipodi:cx="82.272413"
       sodipodi:cy="22.5"
       sodipodi:r1="5"
       sodipodi:r2="0.05"
       sodipodi:arg1="0.52359878"
       sodipodi:arg2="1.1519173"
       inkscape:flatsided="false"
       inkscape:rounded="0.1"
       inkscape:randomized="0.2"
       d="m 87.541081,24.962461 c -0.139767,0.499119 -5.380175,-2.38289 -5.855689,-2.193266 -0.475514,0.189624 0.42136,5.082164 -0.05907,5.069203 -0.480428,-0.01296 0.606979,-5.619111 0.216824,-5.892567 -0.390156,-0.273457 -4.268092,1.752507 -4.275782,1.260921 -0.0077,-0.491586 5.343699,0.689025 5.514908,0.218739 0.171208,-0.470287 -3.015675,-4.300254 -2.613875,-4.561346 0.401799,-0.261092 1.664164,3.963015 2.12761,3.942667 0.463446,-0.02035 2.929353,-3.226289 3.192833,-2.860788 0.26348,0.365501 -3.441951,2.777203 -3.523968,3.225275 -0.08202,0.448071 5.415973,1.292043 5.276206,1.791162 z"
       transform="translate(21.650635,14.862183)"
       inkscape:transform-center-x="-0.22852724"
       inkscape:transform-center-y="0.84547239" />
  </g>
</svg>
