<?xml version="1.0" encoding="UTF-8" standalone="no"?>
<!-- Created with Inkscape (http://www.inkscape.org/) -->

<svg
   xmlns:osb="http://www.openswatchbook.org/uri/2009/osb"
   xmlns:dc="http://purl.org/dc/elements/1.1/"
   xmlns:cc="http://creativecommons.org/ns#"
   xmlns:rdf="http://www.w3.org/1999/02/22-rdf-syntax-ns#"
   xmlns:svg="http://www.w3.org/2000/svg"
   xmlns="http://www.w3.org/2000/svg"
   xmlns:xlink="http://www.w3.org/1999/xlink"
   xmlns:sodipodi="http://sodipodi.sourceforge.net/DTD/sodipodi-0.dtd"
   xmlns:inkscape="http://www.inkscape.org/namespaces/inkscape"
   width="129.90381"
   height="150.00009"
   id="svg4408"
   version="1.1"
   inkscape:version="0.48.5 r10040"
   sodipodi:docname="kid-skeleton.svg">
  <defs
     id="defs4410">
    <linearGradient
       inkscape:collect="always"
       id="linearGradient15505">
      <stop
         style="stop-color:#000000;stop-opacity:1;"
         offset="0"
         id="stop15507" />
      <stop
         style="stop-color:#000000;stop-opacity:0;"
         offset="1"
         id="stop15509" />
    </linearGradient>
    <linearGradient
       id="linearGradient5531"
       osb:paint="solid">
      <stop
         style="stop-color:#e29738;stop-opacity:1;"
         offset="0"
         id="stop5533" />
    </linearGradient>
    <linearGradient
       inkscape:collect="always"
       xlink:href="#linearGradient15505"
       id="linearGradient15511"
       x1="59.265327"
       y1="49.732006"
       x2="59.79472"
       y2="45.047424"
       gradientUnits="userSpaceOnUse" />
    <linearGradient
       inkscape:collect="always"
       xlink:href="#linearGradient15505"
       id="linearGradient15515"
       gradientUnits="userSpaceOnUse"
       x1="59.577827"
       y1="44.419506"
       x2="59.48222"
       y2="50.109924"
       gradientTransform="matrix(-1,0,0,1,136.18505,889.42461)" />
  </defs>
  <sodipodi:namedview
     id="base"
     pagecolor="#ffffff"
     bordercolor="#666666"
     borderopacity="1.0"
     inkscape:pageopacity="0.0"
     inkscape:pageshadow="2"
     inkscape:zoom="11.313708"
     inkscape:cx="64.479536"
     inkscape:cy="94.502313"
     inkscape:document-units="px"
     inkscape:current-layer="layer1"
     showgrid="true"
     fit-margin-top="0"
     fit-margin-left="0"
     fit-margin-right="0"
     fit-margin-bottom="0"
     inkscape:snap-global="false"
     inkscape:window-width="1366"
     inkscape:window-height="724"
     inkscape:window-x="0"
     inkscape:window-y="-5"
     inkscape:window-maximized="1">
    <inkscape:grid
       type="axonomgrid"
       id="grid4437"
       units="px"
       empspacing="5"
       visible="false"
       enabled="true"
       snapvisiblegridlinesonly="true"
       spacingy="5px"
       originx="-8.3832904e-08px"
       originy="-12.49997px" />
  </sodipodi:namedview>
  <metadata
     id="metadata4413">
    <rdf:RDF>
      <cc:Work
         rdf:about="">
        <dc:format>image/svg+xml</dc:format>
        <dc:type
           rdf:resource="http://purl.org/dc/dcmitype/StillImage" />
        <dc:title></dc:title>
      </cc:Work>
    </rdf:RDF>
  </metadata>
  <g
     inkscape:label="Layer 1"
     inkscape:groupmode="layer"
     id="layer1"
     transform="translate(-8.3832904e-8,-889.86211)">
    <rect
       style="fill:#e0a65f;fill-opacity:1;stroke:none"
       id="rect5551"
       width="5.1265235"
       height="7.8982491"
       x="64.258331"
       y="940.20734" />
    <path
       style="fill:#d0db48;fill-opacity:1;stroke:none"
       d="m 64.951905,964.86214 64.951905,37.50006 -64.951905,37.5 L 8.3832904e-8,1002.3622 z"
       id="path11681"
       inkscape:connector-curvature="0" />
    <path
       style="fill:#e0a65f;fill-opacity:1;stroke:none"
       d="m 84.847611,926.81674 c 0,11.61523 -8.070524,15.55115 -18.026021,15.55115 -9.955495,0 -18.026019,-3.93592 -18.026019,-15.55115 0,-11.61522 8.070524,-21.03122 18.026019,-21.03122 9.955497,0 18.026021,9.416 18.026021,21.03122 z"
       id="path5565"
       inkscape:connector-curvature="0"
       sodipodi:nodetypes="sssss" />
    <path
       style="fill:#e0a65f;fill-opacity:1;stroke:none"
       d="m 76.721087,953.46714 c 0,5.46734 0.959533,20.68287 -9.899496,20.68287 -10.859029,0 -9.899495,-15.21553 -9.899495,-20.68287 0,-5.46734 -5.820893,-9.8995 9.899495,-9.8995 15.720389,0 9.899496,4.43216 9.899496,9.8995 z"
       id="path5567"
       inkscape:connector-curvature="0"
       sodipodi:nodetypes="szszs" />
    <path
       style="fill:none;stroke:#e0a65f;stroke-width:5.00000048;stroke-linecap:round;stroke-linejoin:miter;stroke-miterlimit:4;stroke-opacity:1;stroke-dasharray:none"
       d="m 64.523494,946.57285 c -17.35309,2.21554 -15.132445,26.70317 -18.73833,34.27996"
       id="path5573"
       inkscape:connector-curvature="0"
       sodipodi:nodetypes="cc" />
    <path
       inkscape:connector-curvature="0"
       id="path5579"
       d="m 68.793098,946.57284 c 14.060438,4.50074 13.137678,29.7038 18.73833,33.57285"
       style="fill:none;stroke:#e0a65f;stroke-width:5.00000048;stroke-linecap:round;stroke-linejoin:miter;stroke-miterlimit:4;stroke-opacity:1;stroke-dasharray:none"
       sodipodi:nodetypes="cc" />
    <path
       style="fill:#213144;fill-opacity:1;stroke:none"
       d="m 79.783451,974.2372 c 0,5.66092 -5.803222,5.74219 -12.96186,5.74219 -7.158638,0 -12.96186,-0.0813 -12.96186,-5.74219 0,-5.66092 2.924217,-10.25 12.96186,-10.25 10.037643,0 12.96186,4.58908 12.96186,10.25 z"
       id="path5598"
       inkscape:connector-curvature="0"
       sodipodi:nodetypes="zzzzz" />
    <g
       id="g15472"
       transform="translate(2.6871502,0)">
      <path
         style="fill:#000000;fill-opacity:1;stroke:none"
         d="m 56.1421,1015.7532 c -2.717224,2.7172 -10.008077,4.3004 -12.449175,1.8593 -2.441096,-2.4412 3.604318,-7.2142 6.321566,-9.9314 2.717199,-2.7172 -3.361002,-12.02085 4.713397,-12.02085 8.0744,0 5.442924,14.89265 5.5617,16.05885 0.200192,1.9656 -2.442108,2.3287 -4.147488,4.0341 z"
         id="path5588"
         inkscape:connector-curvature="0"
         sodipodi:nodetypes="ssszss" />
      <path
         sodipodi:nodetypes="sszsszss"
         inkscape:connector-curvature="0"
         id="path5592"
         d="m 50.517196,996.86248 c 1.292549,-1.43255 2.665041,-7.16082 2.494997,-12.66163 -0.250095,-8.0904 -1.451126,-17.55226 10.760644,-17.55216 12.21177,10e-5 -0.689038,14.99554 -1.298342,17.31826 -0.967643,3.68873 -0.367287,10.57076 -0.367301,12.71875 -2.4e-5,3.8427 1.483659,13.7079 -2.87305,13.7079 -4.356708,0 -9.090029,1.5068 -10.402862,-1.857 -1.248639,-3.1996 0.431065,-10.28335 1.685914,-11.67412 z"
         style="fill:#213144;fill-opacity:1;stroke:none" />
      <path
         sodipodi:nodetypes="ssszss"
         inkscape:connector-curvature="0"
         id="path14948"
         d="m 73.117273,1015.7532 c 2.717224,2.7172 10.008077,4.3004 12.449175,1.8593 2.441096,-2.4412 -3.604318,-7.2142 -6.321566,-9.9314 -2.717199,-2.7172 3.361002,-12.02085 -4.713397,-12.02085 -8.0744,0 -5.442924,14.89265 -5.5617,16.05885 -0.200192,1.9656 2.442108,2.3287 4.147488,4.0341 z"
         style="fill:#000000;fill-opacity:1;stroke:none" />
      <path
         style="fill:#213144;fill-opacity:1;stroke:none"
         d="m 78.742177,996.86248 c -0.981785,-1.39063 -2.577701,-6.90009 -2.494997,-12.66163 0.116178,-8.09343 1.451126,-17.55226 -10.760644,-17.55216 -12.21177,10e-5 1.66131,14.46521 2.270614,16.78793 0.967643,3.68873 -0.604985,11.10109 -0.604971,13.24908 2.4e-5,3.8427 -1.483659,13.7079 2.87305,13.7079 4.356708,0 9.090029,1.5068 10.402862,-1.857 1.248639,-3.1996 -0.605553,-10.14386 -1.685914,-11.67412 z"
         id="path14950"
         inkscape:connector-curvature="0"
         sodipodi:nodetypes="sszsszss" />
    </g>
    <path
       sodipodi:nodetypes="zszssscczscz"
       inkscape:connector-curvature="0"
       id="path15460"
       d="m 76.897864,954.88135 c 0.427146,1.90102 -0.485435,6.96987 1.162314,12.3488 1.068753,3.48886 6.575718,4.94906 3.205325,11.01085 -3.370393,6.06179 -26.516321,6.07547 -28.930305,-3.06164 -0.449715,-1.7022 2.559184,-5.56954 2.667096,-7.94921 0.254765,-5.61807 0.682365,-11.49266 0.682365,-14.02818 0,-1.2637 0.09954,-6.86043 -0.876947,-6.59878 -1.132602,-2.39455 3.852292,-3.35549 7.414475,-3.49869 1.716892,-0.101 -0.160675,5.3245 4.599404,5.3245 4.760079,0 2.284048,-4.96066 4.242645,-4.96049 2.527819,2.1e-4 5.375434,0.16608 6.270091,0.92491 1.108269,0.0329 -0.863609,8.58691 -0.436463,10.48793 z"
       style="fill:#1b7814;fill-opacity:1;stroke:none" />
    <path
       style="fill:#a02c2c;fill-opacity:1;stroke:#a02c2c;stroke-opacity:0.62801933"
       d="M 56.4375 19.78125 C 51.824137 23.590195 48.78125 29.873221 48.78125 36.96875 C 48.78125 48.58398 56.857005 52.5 66.8125 52.5 C 73.622716 52.5 79.558948 50.663129 82.625 45.78125 C 79.37209 48.157188 74.921465 49.15625 70 49.15625 C 60.044505 49.15625 51.96875 45.20898 51.96875 33.59375 C 51.96875 28.298832 53.669219 23.478476 56.4375 19.78125 z "
       transform="translate(8.3832904e-8,889.86211)"
       id="path15478" />
    <path
       style="fill:#11111b;stroke:none;fill-opacity:1"
       d="M 55.875,20.000091 C 54.006734,15.07676 58.650383,9.5749638 63,8.1250913 c 1.030986,-0.3436618 4.492666,-0.3676663 5.25,-1.125 0.8812,-0.8812002 -4.781894,3.2499997 -3.625,3.2499997 3.403011,0 6.115887,-1.873177 9.25,-2.4999997 2.091599,-0.4183198 4.642645,0 6.75,0 0.84054,0 9.875,3.7336097 9.875,3.9999997 0,0.112258 -1.164625,-0.09654 -1.25,-0.125 -1.318926,-0.439642 -3.023598,-0.25 -4.5,-0.25 -0.910014,0 -3.438941,0.34303 -2.625,0.75 0.931375,0.465688 2.153888,0.176296 3.125,0.5 2.434882,0.811627 4.165527,7.871582 4.875,10 0.62551,1.87653 1.367543,3.712717 1.75,5.625 0.176038,0.880189 0.625,2.064488 0.625,2.875 0,0.294628 0.125,1.169628 0.125,0.875 0,-1.835996 -5.375,-4.5 -5.375,-4.5 0,0 3.003274,1.134822 3.3125,5 0.219467,2.743235 -1.90166,4.78009 -1.117504,7.416446 0.614268,2.065188 0.439853,15.176931 -0.184303,17.202572 -0.244465,0.793393 -2.708378,4.841175 -2.945065,4.045426 -0.484869,-1.630143 0.261495,-3.710012 -0.255841,-5.386752 -2.592688,-8.403184 1.735413,32.056707 -4.313246,1.28293 -0.285623,-1.453166 -3.502811,17.065243 -0.284652,-7.204665 0.167505,-1.263244 -2.29385,3.032117 -2.090156,1.528181 0.199972,-1.476454 3.064315,-8.747686 3.301689,-10.473018 0.14584,-1.060026 0.258912,-2.614118 -0.04842,-3.53612 -0.125223,-0.375668 -0.32778,-6.172219 -0.375,-6.125 -0.332416,0.332417 -1.139072,4.625 -1.5,4.625 -0.433494,0 0.454453,-6.466095 -0.125,-7.625 -1.99074,-3.98148 0.356519,2.75 -0.75,2.75 -0.880932,0 -0.994201,-2.928801 -1.375,-3.5 -1.345111,-2.017666 -4.26886,-3.162719 -5.25,-5.125 -0.305619,-0.611237 -1.758992,-1.168995 -1.25,-1.625 0.560731,-0.502358 3.431457,7.612027 0.625,9.25 0.886601,-0.275518 -0.05936,-5.680807 -1.875,-5.25 -2.584365,0.613207 -5.971875,-0.346875 -7.875,-2.25 -0.752154,-0.752154 -1.790693,-1.415693 -2.625,-2.25 -0.171796,-0.171796 -0.375,-0.867956 -0.375,-0.625 0,0.561282 1.873826,13.842121 1.524049,14.366786 C 60.68225,35.067076 56.32475,20.449841 55.875,20.000091 z"
       id="path15462"
       inkscape:connector-curvature="0"
       transform="translate(8.3832904e-8,889.86211)"
       sodipodi:nodetypes="csssssscssssssscssssssssssssssssscsssssc" />
    <path
       style="fill:#11111b;fill-opacity:1;stroke:none"
       d="m 56,19.375091 c -7.290505,0.906616 -9.875,7.205716 -9.875,13.875 0,1.794676 0.569932,4.200214 -0.875,5.25 -1.39657,1.01465 -1.279471,3.88965 -1,2.875 0.537561,-1.951676 3.125,-3.738939 3.125,-3.625 0,1 0,2 0,3 0,2.034518 -0.208012,4.514318 1,6.125 0.667256,0.889675 1.39373,2.162461 1.875,3.125 0.113346,0.226692 0.125,1.003449 0.125,0.75 0,-0.290746 -0.109751,-3.75 0.125,-3.75 0.131206,0 5.538294,6.461706 5.875,6.125 1.158265,-1.158264 -1.474893,-8.949786 -2.125,-10.25 -0.513875,-1.02775 1.178143,1.375 2,1.375 0.391569,0 -1.125,-3.083101 -1.125,-3.125 0,-1.78623 -0.375,-3.374756 -0.375,-5.25 0,-1.256532 -0.610254,-6.132372 0.625,-6.75 0.225453,-0.112726 1.616212,2.558106 2,2.75 0.149071,0.07454 -0.05271,-0.341886 0,-0.5 0.348659,-1.045978 0.5,-2.498031 0.5,-3.625 0,-2.304382 0.232454,-5.401319 -1,-7.25 -0.169635,-0.254453 -1.122903,-1.82458 -0.75,-1.75 0.408575,0.08171 -0.101056,0.845774 0,1.25 0.112985,0.451939 -0.295596,-0.920596 -0.625,-1.25 -0.188654,-0.188654 0.286563,0.464922 0.5,0.625 z"
       id="path15466"
       inkscape:connector-curvature="0"
       transform="translate(8.3832904e-8,889.86211)"
       sodipodi:nodetypes="csssssssssssssssccsscssc" />
    <path
       style="fill:#000000;fill-opacity:1;stroke:url(#linearGradient15511);stroke-width:0.50000000000000000;stroke-miterlimit:4;stroke-dasharray:none"
       d="m 60.98796,43.934074 c -0.208381,0.595302 -0.384203,1.145489 -0.176777,1.767767 0.168346,0.505037 0.03346,3.81743 -0.53033,3.535534 -1.025508,-0.512754 1.322063,-3.007085 -0.53033,-3.933281 -0.322067,-0.161034 -0.166036,4.297575 -1.149048,3.314563 -0.638398,-0.638398 0.402681,-1.335693 0.618718,-1.767767 0.424622,-0.849245 -0.714801,-0.538024 -0.972272,-0.795495 -0.815254,-0.815254 1.440766,-2.828428 1.944544,-2.828428 0.256638,0 0.358392,0.619687 0.795495,0.707107 z"
       id="path15503"
       inkscape:connector-curvature="0"
       transform="translate(8.3832904e-8,889.86211)"
       sodipodi:nodetypes="csssssssc" />
    <path
       sodipodi:type="arc"
       style="fill:#000000;fill-opacity:1;stroke:none"
       id="path15468"
       sodipodi:cx="60.280853"
       sodipodi:cy="41.989529"
       sodipodi:rx="2.9168155"
       sodipodi:ry="2.9168155"
       d="m 63.197669,41.989529 c 0,1.610912 -1.305903,2.916815 -2.916816,2.916815 -1.610912,0 -2.916815,-1.305903 -2.916815,-2.916815 0,-1.610913 1.305903,-2.916816 2.916815,-2.916816 1.610913,0 2.916816,1.305903 2.916816,2.916816 z"
       transform="translate(8.3832904e-8,889.86211)" />
    <path
       sodipodi:nodetypes="csssssssc"
       inkscape:connector-curvature="0"
       id="path15513"
       d="m 75.197086,933.35868 c 0.208381,0.59531 0.384203,1.14549 0.176777,1.76777 -0.168346,0.50504 -0.03346,3.81743 0.53033,3.53554 1.025508,-0.51276 -1.322063,-3.00709 0.53033,-3.93329 0.322067,-0.16103 0.166036,4.29758 1.149048,3.31457 0.638398,-0.6384 -0.402681,-1.3357 -0.618718,-1.76777 -0.424622,-0.84924 0.714801,-0.53802 0.972272,-0.79549 0.815254,-0.81526 -1.440766,-2.82843 -1.944544,-2.82843 -0.256638,0 -0.358392,0.61968 -0.795495,0.7071 z"
       style="fill:#000000;fill-opacity:1;stroke:url(#linearGradient15515);stroke-width:0.50000000000000000;stroke-miterlimit:4;stroke-dasharray:none" />
    <path
       transform="translate(17.14734,889.86211)"
       d="m 63.197669,41.989529 c 0,1.610912 -1.305903,2.916815 -2.916816,2.916815 -1.610912,0 -2.916815,-1.305903 -2.916815,-2.916815 0,-1.610913 1.305903,-2.916816 2.916815,-2.916816 1.610913,0 2.916816,1.305903 2.916816,2.916816 z"
       sodipodi:ry="2.9168155"
       sodipodi:rx="2.9168155"
       sodipodi:cy="41.989529"
       sodipodi:cx="60.280853"
       id="path15470"
       style="fill:#000000;fill-opacity:1;stroke:none"
       sodipodi:type="arc" />
    <path
       style="fill:#11420d;fill-opacity:1;stroke:none"
       d="m 58.839661,962.00059 c 0,0 -1.207663,9.85936 4.263027,11.73678 5.47069,1.87741 13.611213,-1.8013 13.611213,-1.8013 0,0 -5.566046,8.60398 -13.668975,4.34307 -8.10293,-4.26091 -4.205265,-14.27859 -4.205265,-14.27859 z"
       id="path15483"
       inkscape:connector-curvature="0"
       sodipodi:nodetypes="cscscc" />
  </g>
</svg>
