<?xml version="1.0" encoding="UTF-8" standalone="no"?>
<!-- Created with Inkscape (http://www.inkscape.org/) -->

<svg
   xmlns:osb="http://www.openswatchbook.org/uri/2009/osb"
   xmlns:dc="http://purl.org/dc/elements/1.1/"
   xmlns:cc="http://creativecommons.org/ns#"
   xmlns:rdf="http://www.w3.org/1999/02/22-rdf-syntax-ns#"
   xmlns:svg="http://www.w3.org/2000/svg"
   xmlns="http://www.w3.org/2000/svg"
   xmlns:xlink="http://www.w3.org/1999/xlink"
   xmlns:sodipodi="http://sodipodi.sourceforge.net/DTD/sodipodi-0.dtd"
   xmlns:inkscape="http://www.inkscape.org/namespaces/inkscape"
   width="129.90381"
   height="150.00009"
   id="svg4408"
   version="1.1"
   inkscape:version="0.48.5 r10040"
   sodipodi:docname="New document 5">
  <defs
     id="defs4410">
    <linearGradient
       id="linearGradient5776"
       osb:paint="solid">
      <stop
         style="stop-color:#f19f37;stop-opacity:1;"
         offset="0"
         id="stop5778" />
    </linearGradient>
    <linearGradient
       id="linearGradient5690"
       osb:paint="solid"
       gradientTransform="matrix(1,0,0,-1,-199.1518,1857.7716)">
      <stop
         style="stop-color:#a3681d;stop-opacity:1;"
         offset="0"
         id="stop5692" />
    </linearGradient>
    <linearGradient
       id="linearGradient5674"
       osb:paint="solid"
       gradientTransform="matrix(-1,0,0,1,133.48214,890.11099)">
      <stop
         style="stop-color:#ffffff;stop-opacity:1;"
         offset="0"
         id="stop5676" />
    </linearGradient>
    <linearGradient
       id="linearGradient5641"
       osb:paint="solid">
      <stop
         style="stop-color:#1e5c09;stop-opacity:1;"
         offset="0"
         id="stop5643" />
    </linearGradient>
    <linearGradient
       id="linearGradient5531"
       osb:paint="solid"
       gradientTransform="matrix(2.5178865,0,0,5.9798038,-231.53922,6431.6338)">
      <stop
         style="stop-color:#d78318;stop-opacity:1;"
         offset="0"
         id="stop5533" />
    </linearGradient>
    <linearGradient
       inkscape:collect="always"
       xlink:href="#linearGradient5641"
       id="linearGradient5645"
       x1="52.771469"
       y1="960.80334"
       x2="82.184001"
       y2="960.80334"
       gradientUnits="userSpaceOnUse" />
    <linearGradient
       inkscape:collect="always"
       xlink:href="#linearGradient5674"
       id="linearGradient5678"
       x1="52.375"
       y1="35.375092"
       x2="58.375"
       y2="35.375092"
       gradientUnits="userSpaceOnUse" />
    <linearGradient
       inkscape:collect="always"
       xlink:href="#linearGradient5674"
       id="linearGradient5682"
       gradientUnits="userSpaceOnUse"
       x1="52.375"
       y1="35.375092"
       x2="58.375"
       y2="35.375092" />
    <linearGradient
       inkscape:collect="always"
       xlink:href="#linearGradient5690"
       id="linearGradient5694"
       x1="48.993591"
       y1="35.395472"
       x2="85.222372"
       y2="35.395472"
       gradientUnits="userSpaceOnUse" />
    <linearGradient
       inkscape:collect="always"
       xlink:href="#linearGradient5776"
       id="linearGradient5780"
       x1="-41.406707"
       y1="918.4528"
       x2="-6.3291516"
       y2="918.4528"
       gradientUnits="userSpaceOnUse" />
    <linearGradient
       inkscape:collect="always"
       xlink:href="#linearGradient5776"
       id="linearGradient5796"
       gradientUnits="userSpaceOnUse"
       x1="-41.406707"
       y1="918.4528"
       x2="-6.3291516"
       y2="918.4528"
       gradientTransform="translate(-52.325902,0)" />
    <linearGradient
       inkscape:collect="always"
       xlink:href="#linearGradient5776"
       id="linearGradient5836"
       gradientUnits="userSpaceOnUse"
       gradientTransform="translate(-52.325902,0)"
       x1="-41.406707"
       y1="918.4528"
       x2="-6.3291516"
       y2="918.4528" />
  </defs>
  <sodipodi:namedview
     id="base"
     pagecolor="#ffffff"
     bordercolor="#666666"
     borderopacity="1.0"
     inkscape:pageopacity="0.0"
     inkscape:pageshadow="2"
     inkscape:zoom="11.313708"
     inkscape:cx="54.194025"
     inkscape:cy="66.841061"
     inkscape:document-units="px"
     inkscape:current-layer="layer1"
     showgrid="true"
     fit-margin-top="0"
     fit-margin-left="0"
     fit-margin-right="0"
     fit-margin-bottom="0"
     inkscape:snap-global="false"
     inkscape:window-width="1366"
     inkscape:window-height="724"
     inkscape:window-x="0"
     inkscape:window-y="-5"
     inkscape:window-maximized="1"
     showguides="true"
     inkscape:guide-bbox="true">
    <inkscape:grid
       type="axonomgrid"
       id="grid4437"
       units="px"
       empspacing="5"
       visible="false"
       enabled="true"
       snapvisiblegridlinesonly="true"
       spacingy="5px"
       originx="-8.3832904e-08px"
       originy="-12.49997px" />
  </sodipodi:namedview>
  <metadata
     id="metadata4413">
    <rdf:RDF>
      <cc:Work
         rdf:about="">
        <dc:format>image/svg+xml</dc:format>
        <dc:type
           rdf:resource="http://purl.org/dc/dcmitype/StillImage" />
        <dc:title></dc:title>
      </cc:Work>
    </rdf:RDF>
  </metadata>
  <g
     inkscape:label="Layer 1"
     inkscape:groupmode="layer"
     id="layer1"
     transform="translate(-8.3832904e-8,-889.86211)">
    <g
       id="g5831"
       transform="matrix(0.87812114,0,0,1,-9.712073,0)" />
    <path
       style="fill:url(#linearGradient5531);fill-opacity:1;stroke:none"
       d="m 69.389613,941.3622 c 0,2.95118 -1.007359,5.34359 -2.25,5.34359 -1.242641,0 -2.25,-2.39241 -2.25,-5.34359 0,-2.95118 1.007359,-5.34359 2.25,-5.34359 1.242641,0 2.25,2.39241 2.25,5.34359 z"
       id="path5635"
       inkscape:connector-curvature="0" />
    <path
       style="fill:#486adb;fill-opacity:1;stroke:none"
       d="m 64.951905,964.86214 64.951905,37.50006 -64.951905,37.5 L 8.3832904e-8,1002.3622 z"
       id="path11681"
       inkscape:connector-curvature="0" />
    <g
       id="g5863"
       transform="matrix(0.96592583,-0.25881905,0.25881905,0.96592583,-258.97234,54.762797)">
      <path
         sodipodi:nodetypes="ssszs"
         inkscape:connector-curvature="0"
         id="path5590"
         d="m 78.603352,1016.0032 c 2.717248,2.7172 12.481955,8.0765 15.199175,5.3593 2.717218,-2.7173 -2.642007,-12.482 -5.359255,-15.1992 -2.717199,-2.7172 -2.027031,-7.8129 -9.839922,0 -7.812892,7.8129 -2.717197,7.1227 2e-6,9.8399 z"
         style="fill:#000000;fill-opacity:1;stroke:none" />
      <path
         inkscape:connector-curvature="0"
         style="fill:url(#linearGradient5674);fill-opacity:1;stroke:none"
         d="m 74.950896,1010.5485 c -0.554421,2.2701 2.294259,2.6068 4.09375,4.4063 2.717248,2.7172 12.47028,8.0609 15.1875,5.3437 0.07903,-0.079 0.153118,-0.1594 0.21875,-0.25 -0.108198,0.5324 -0.316598,0.9729 -0.65625,1.3125 -2.71722,2.7172 -12.501502,-2.6265 -15.21875,-5.3437 -2.049453,-2.0495 -5.428865,-2.1856 -3.625,-5.4688 z"
         id="path5857" />
    </g>
    <path
       style="fill:url(#linearGradient5531);fill-opacity:1;stroke:none"
       d="m 79.40035,25.549297 c 0,2.966013 -0.964746,5.614334 -0.964746,8.241206 0,3.580852 -11.599665,9.790018 -14.795994,9.790018 -3.196329,0 -14.559412,-6.050788 -14.559412,-9.973981 0,-3.142696 -1.17134,-5.157968 -1.17134,-8.057243 0,-9.958369 5.772383,-18.031223 15.730752,-18.031223 9.95837,0 15.76074,8.072854 15.76074,18.031223 z"
       id="path5565"
       transform="matrix(1.1663781,0,0,1.1663781,-7.088235,890.01508)"
       inkscape:connector-curvature="0"
       sodipodi:nodetypes="sszssss" />
    <path
       style="fill:url(#linearGradient5531);fill-opacity:1;stroke:none"
       d="m 76.721087,951.59214 c 0,5.46734 -4.432155,20.68287 -9.899496,20.68287 -5.467339,0 -9.899495,-15.21553 -9.899495,-20.68287 0,-5.46734 -5.820893,-9.8995 9.899495,-9.8995 15.720389,0 9.899496,4.43216 9.899496,9.8995 z"
       id="path5567"
       inkscape:connector-curvature="0"
       sodipodi:nodetypes="ssszs" />
    <g
       id="g5582"
       transform="translate(-1.2755708,8.6620581)">
      <path
         sodipodi:nodetypes="cc"
         inkscape:connector-curvature="0"
         id="path5569"
         d="m 65.467855,959.8703 c -12.736624,21.59282 -10.427253,42.5152 -10.427253,42.5152"
         style="fill:none;stroke:#000000;stroke-width:5;stroke-linecap:round;stroke-linejoin:miter;stroke-miterlimit:4;stroke-opacity:1;stroke-dasharray:none" />
      <path
         style="fill:none;stroke:#000000;stroke-width:5;stroke-linecap:round;stroke-linejoin:miter;stroke-miterlimit:4;stroke-opacity:1;stroke-dasharray:none"
         d="m 70.726469,959.8703 c 12.736625,21.59282 10.427254,42.5152 10.427254,42.5152"
         id="path5571"
         inkscape:connector-curvature="0"
         sodipodi:nodetypes="cc" />
    </g>
    <g
       id="g5630"
       transform="translate(0.819439,0)"
       style="stroke:url(#linearGradient5531)">
      <path
         inkscape:connector-curvature="0"
         id="path5573"
         d="m 64.523494,944.69785 c -18.503219,1.76671 -26.148557,22.4042 -18.73833,34.27996"
         style="fill:none;stroke:url(#linearGradient5531);stroke-width:5.00000047999999975;stroke-linecap:round;stroke-linejoin:miter;stroke-miterlimit:4;stroke-opacity:1;stroke-dasharray:none" />
      <path
         style="fill:none;stroke:url(#linearGradient5531);stroke-width:5.00000047999999975;stroke-linecap:round;stroke-linejoin:miter;stroke-miterlimit:4;stroke-opacity:1;stroke-dasharray:none"
         d="m 68.793098,944.69784 c 18.503219,1.76672 26.148557,22.40421 18.73833,34.27996"
         id="path5579"
         inkscape:connector-curvature="0" />
    </g>
    <g
       id="g5859"
       inkscape:transform-center-x="6.8258439"
       inkscape:transform-center-y="2.9228444"
       transform="matrix(0.96592583,0.25881905,-0.25881905,0.96592583,262.37758,20.407844)">
      <path
         style="fill:#000000;fill-opacity:1;stroke:none"
         d="m 54.8921,1015.7532 c -2.717248,2.7172 -12.481955,8.0765 -15.199175,5.3593 -2.717218,-2.7173 2.642007,-12.482 5.359255,-15.1992 2.717199,-2.7172 2.027031,-7.8129 9.839922,0 7.812892,7.8129 2.717197,7.1227 -2e-6,9.8399 z"
         id="path5588"
         inkscape:connector-curvature="0"
         sodipodi:nodetypes="ssszs" />
      <path
         id="path5852"
         transform="translate(8.3832904e-8,889.86211)"
         d="m 58.53125,120.4375 c 0.554421,2.27012 -2.294259,2.60676 -4.09375,4.40625 -2.717248,2.7172 -12.47028,8.06095 -15.1875,5.34375 -0.07903,-0.079 -0.153118,-0.15939 -0.21875,-0.25 0.108198,0.53236 0.316598,0.97284 0.65625,1.3125 2.71722,2.7172 12.501502,-2.62655 15.21875,-5.34375 2.049453,-2.04945 5.428865,-2.18552 3.625,-5.46875 z"
         style="fill:url(#linearGradient5674);fill-opacity:1;stroke:none"
         inkscape:connector-curvature="0" />
    </g>
    <path
       style="fill:#0e0e20;fill-opacity:1;stroke:none"
       d="m 45.289868,996.6857 c 0,-1.6172 -0.244144,-7.44048 3.772192,-12.48485 5.527044,-6.94175 1.249007,-17.55226 13.460777,-17.55216 12.21177,10e-5 -2.607122,17.58006 -0.755601,20.23507 2.34674,3.36514 1.438385,7.65395 1.438367,9.80194 -3.3e-5,3.8427 4.205129,14.9579 -1.457876,14.9579 -5.663005,0 -18.293609,0.08 -20.000076,-3.2838 -1.623025,-3.1996 3.542217,-9.8009 3.542217,-11.6741 z"
       id="path5592"
       inkscape:connector-curvature="0"
       sodipodi:nodetypes="sszsszss" />
    <path
       sodipodi:nodetypes="sszsszss"
       inkscape:connector-curvature="0"
       id="path5596"
       d="m 88.787558,996.6857 c 0,-1.6172 0.244144,-7.44048 -3.772192,-12.48485 -5.527044,-6.94175 -1.249007,-17.55226 -13.460777,-17.55216 -12.21177,10e-5 2.607122,17.58006 0.755601,20.23507 -2.34674,3.36514 -1.438385,7.65395 -1.438367,9.80194 3.3e-5,3.8427 -4.205129,14.9579 1.457876,14.9579 5.663005,0 18.293609,0.08 20.000076,-3.2838 1.623025,-3.1996 -3.542217,-9.8009 -3.542217,-11.6741 z"
       style="fill:#0e0e20;fill-opacity:1;stroke:none" />
    <path
       style="fill:#0e0e20;fill-opacity:1;stroke:none"
       d="m 79.783451,974.2372 c 0,5.66092 -5.803222,5.74219 -12.96186,5.74219 -7.158638,0 -12.96186,-0.0813 -12.96186,-5.74219 0,-5.66092 0.0074,-10.25 12.96186,-10.25 12.954458,0 12.96186,4.58908 12.96186,10.25 z"
       id="path5598"
       inkscape:connector-curvature="0"
       sodipodi:nodetypes="zzzzz" />
    <path
       sodipodi:nodetypes="sszssssszssss"
       inkscape:connector-curvature="0"
       id="path5620"
       d="m 78.400466,956.80705 c 0,3.65462 3.783535,9.50067 3.783535,15.58251 0,3.16369 -12.435523,7.25246 -15.286143,7.25246 -2.850621,0 -14.126389,-3.81383 -14.126389,-6.8541 0,-6.37447 2.471248,-12.24346 2.471248,-15.98087 0,-6.28761 2.531735,0.009 2.187198,-8.67763 -0.256652,-6.47113 -4.40356,-4.57386 -2.528143,-5.91876 0.669389,-0.48003 2.212633,-0.19948 3.989727,0.34291 3.007865,0.91804 4.159948,8.59662 7.930092,8.59662 3.770144,0 4.681605,-7.89095 8.055083,-8.73331 2.077498,-0.51875 3.950965,-0.64376 4.761085,0.30665 1.119027,1.31281 -3.221004,-0.61063 -3.480104,5.40589 -0.385739,8.95716 2.242811,3.55242 2.242811,8.67763 z"
       style="fill:url(#linearGradient5645);fill-opacity:1;stroke:none" />
    <path
       style="fill:url(#linearGradient5690);stroke:#000000;stroke-width:1px;stroke-linecap:butt;stroke-linejoin:miter;stroke-opacity:1"
       d="m 65.495766,928.58835 c 1.111551,-1.50633 2.886562,-1.44565 3.535534,0.17678"
       id="path5750"
       inkscape:connector-curvature="0" />
    <path
       style="fill:url(#linearGradient5690);fill-opacity:1;stroke:none"
       d="M 84.4375 38.65625 C 79.417053 40.543529 73.4939 41.625 67.15625 41.625 C 60.925517 41.625 55.090418 40.57889 50.125 38.75 C 50.133247 38.949339 50.15625 39.136421 50.15625 39.34375 C 50.15625 43.919676 63.396872 50.96875 67.125 50.96875 C 70.853128 50.96875 84.40625 43.739127 84.40625 39.5625 C 84.40625 39.262258 84.418007 38.957298 84.4375 38.65625 z "
       transform="translate(8.3832904e-8,889.86211)"
       id="path5891" />
    <path
       style="fill:none;stroke:#000000;stroke-width:1px;stroke-linecap:butt;stroke-linejoin:miter;stroke-opacity:1"
       d="m 61.429902,931.65602 c 3.240247,2.36229 6.663108,3.26367 10.606601,0"
       id="path5754"
       inkscape:connector-curvature="0"
       sodipodi:nodetypes="cc" />
    <path
       id="path5756"
       d="m -6.3291629,919.81522 c 0,11.61523 -9.4160001,21.03123 -21.0312251,21.03123 -11.615223,0 -21.031223,-9.416 -21.031223,-21.03123 0,-11.61522 9.416,-21.03122 21.031223,-21.03122 11.615225,0 21.0312251,9.416 21.0312251,21.03122 z"
       style="fill:url(#linearGradient5531);fill-opacity:1;stroke:none"
       inkscape:connector-curvature="0" />
    <path
       sodipodi:nodetypes="scsssscscs"
       inkscape:transform-center-y="-1.9812617"
       inkscape:transform-center-x="-5.9876882"
       inkscape:connector-curvature="0"
       id="path5758"
       d="m -34.987209,900.19648 c -2.432632,0.94602 -4.577134,2.31169 -6.419498,3.97281 1.163962,-0.65566 3.98483,-2.98316 3.708251,-1.62495 -2.430232,11.93422 15.801487,10.53125 26.572714,13.31181 4.3533959,1.12382 5.2358618,10.01701 0.0089,10.52042 -21.728506,2.09267 -22.196978,4.2437 -3.39926,6.20466 2.651557,0.27661 -0.972762,4.16926 -2.49346,5.54036 8.5899129,-4.83867 12.8236459,-15.23868 9.6035599,-24.94777 -3.6564179,-11.0247 -15.5480109,-16.96823 -26.5727139,-13.31181 -0.344522,0.11427 -0.673966,0.20438 -1.008482,0.33447 z"
       style="fill:url(#linearGradient5780);fill-opacity:1;stroke:none" />
    <path
       id="path5760"
       d="m -36.125,925.2372 c 0,1.65686 -1.343146,3 -3,3 -1.656854,0 -3,-1.34314 -3,-3 0,-1.65685 1.343146,-3 3,-3 1.656854,0 3,1.34315 3,3 z"
       style="fill:#000000;fill-opacity:1;stroke:none"
       inkscape:connector-curvature="0" />
    <path
       sodipodi:type="arc"
       style="fill:#000000;fill-opacity:1;stroke:none"
       id="path5762"
       sodipodi:cx="55.375"
       sodipodi:cy="35.375092"
       sodipodi:rx="3"
       sodipodi:ry="3"
       d="m 58.375,35.375092 a 3,3 0 1 1 -6,0 3,3 0 1 1 6,0 z"
       transform="translate(-70,889.86211)" />
    <path
       inkscape:connector-curvature="0"
       id="path5764"
       d="m -29.004234,930.46335 c 1.111551,-1.50633 2.886562,-1.44565 3.535534,0.17678"
       style="fill:url(#linearGradient5690);stroke:#000000;stroke-width:1px;stroke-linecap:butt;stroke-linejoin:miter;stroke-opacity:1" />
    <path
       style="fill:url(#linearGradient5690);stroke:none"
       d="m -32.747883,935.90066 10.032078,0 c 0,0 -1.988199,3.09998 -5.369323,3.09998 -3.381124,0 -4.662755,-3.09998 -4.662755,-3.09998 z"
       id="path5774"
       inkscape:connector-curvature="0" />
    <path
       inkscape:connector-curvature="0"
       id="path5766"
       d="m -33.070098,933.53102 10.606601,0"
       style="fill:none;stroke:#000000;stroke-width:1px;stroke-linecap:butt;stroke-linejoin:miter;stroke-opacity:1" />
    <g
       id="g5881"
       transform="translate(-0.34289898,0)">
      <g
         id="g5877">
        <path
           style="fill:#000000;fill-opacity:1;stroke:none"
           d="m 58.625,925.4872 c 0,1.65686 -1.343146,3 -3,3 -1.656854,0 -3,-1.34314 -3,-3 0,-1.65685 1.343146,-3 3,-3 1.656854,0 3,1.34315 3,3 z"
           id="path5639"
           inkscape:connector-curvature="0" />
        <path
           sodipodi:type="arc"
           style="fill:none;stroke:#000000;stroke-opacity:1"
           id="path5867"
           sodipodi:cx="57.375"
           sodipodi:cy="35.625092"
           sodipodi:rx="7.25"
           sodipodi:ry="7.25"
           d="m 64.625,35.625092 c 0,4.004064 -3.245936,7.25 -7.25,7.25 -4.004064,0 -7.25,-3.245936 -7.25,-7.25 0,-4.004065 3.245936,-7.25 7.25,-7.25 4.004064,0 7.25,3.245935 7.25,7.25 z"
           transform="translate(-1.7499999,889.86211)" />
      </g>
      <g
         id="g5873">
        <path
           inkscape:connector-curvature="0"
           id="path5869"
           d="m 82.375,925.4872 c 0,1.65686 -1.343146,3 -3,3 -1.656854,0 -3,-1.34314 -3,-3 0,-1.65685 1.343146,-3 3,-3 1.656854,0 3,1.34315 3,3 z"
           style="fill:#000000;fill-opacity:1;stroke:none" />
        <path
           transform="translate(22,889.86211)"
           d="m 64.625,35.625092 c 0,4.004064 -3.245936,7.25 -7.25,7.25 -4.004064,0 -7.25,-3.245936 -7.25,-7.25 0,-4.004065 3.245936,-7.25 7.25,-7.25 4.004064,0 7.25,3.245935 7.25,7.25 z"
           sodipodi:ry="7.25"
           sodipodi:rx="7.25"
           sodipodi:cy="35.625092"
           sodipodi:cx="57.375"
           id="path5871"
           style="fill:none;stroke:#000000;stroke-opacity:1"
           sodipodi:type="arc" />
      </g>
    </g>
    <path
       style="fill:none;stroke:#000000;stroke-width:1px;stroke-linecap:butt;stroke-linejoin:miter;stroke-opacity:1"
       d="m 62.25,35.625091 9.375,0"
       id="path5889"
       inkscape:connector-curvature="0"
       transform="translate(8.3832904e-8,889.86211)" />
  </g>
</svg>
