<?xml version="1.0" encoding="UTF-8" standalone="no"?>
<!-- Created with Inkscape (http://www.inkscape.org/) -->

<svg
   xmlns:osb="http://www.openswatchbook.org/uri/2009/osb"
   xmlns:dc="http://purl.org/dc/elements/1.1/"
   xmlns:cc="http://creativecommons.org/ns#"
   xmlns:rdf="http://www.w3.org/1999/02/22-rdf-syntax-ns#"
   xmlns:svg="http://www.w3.org/2000/svg"
   xmlns="http://www.w3.org/2000/svg"
   xmlns:sodipodi="http://sodipodi.sourceforge.net/DTD/sodipodi-0.dtd"
   xmlns:inkscape="http://www.inkscape.org/namespaces/inkscape"
   width="10"
   height="10"
   id="svg3175"
   version="1.1"
   inkscape:version="0.48.5 r10040"
   inkscape:export-filename="/home/vg/Char/palette/thing.png"
   inkscape:export-xdpi="90"
   inkscape:export-ydpi="90"
   sodipodi:docname="forest.svg">
  <defs
     id="defs3177">
    <linearGradient
       id="linearGradient5470"
       osb:paint="solid"
       gradientTransform="matrix(0.04419417,0,0,0.04419417,-1.99918,3.89658)">
      <stop
         style="stop-color:#79e743;stop-opacity:1;"
         offset="0"
         id="stop5472" />
    </linearGradient>
    <linearGradient
       id="linearGradient5530"
       osb:paint="solid"
       gradientTransform="translate(-3.1819806,-19.445437)">
      <stop
         style="stop-color:#c07e5a;stop-opacity:1;"
         offset="0"
         id="stop5532" />
    </linearGradient>
    <linearGradient
       id="linearGradient3150"
       osb:paint="solid"
       gradientTransform="translate(-3.1819806,-19.445437)">
      <stop
         style="stop-color:#c07e5a;stop-opacity:1;"
         offset="0"
         id="stop3152" />
    </linearGradient>
    <linearGradient
       id="linearGradient5536"
       osb:paint="solid">
      <stop
         style="stop-color:#6c4832;stop-opacity:1;"
         offset="0"
         id="stop5538" />
    </linearGradient>
    <linearGradient
       id="linearGradient5542"
       osb:paint="solid"
       gradientTransform="translate(-8.131728,19.445436)">
      <stop
         style="stop-color:#3e2421;stop-opacity:1;"
         offset="0"
         id="stop5544" />
    </linearGradient>
    <linearGradient
       id="linearGradient3158"
       osb:paint="solid"
       gradientTransform="translate(-3.1819806,-19.445437)">
      <stop
         style="stop-color:#c07e5a;stop-opacity:1;"
         offset="0"
         id="stop3160" />
    </linearGradient>
    <linearGradient
       id="linearGradient5476"
       osb:paint="solid"
       gradientTransform="translate(-16.781141,92.462667)">
      <stop
         style="stop-color:#27bb1d;stop-opacity:1;"
         offset="0"
         id="stop5478" />
    </linearGradient>
    <linearGradient
       id="linearGradient5482"
       osb:paint="solid"
       gradientTransform="matrix(0.17857143,0,0,0.17857143,174.09093,147.15186)">
      <stop
         style="stop-color:#0a7d21;stop-opacity:1;"
         offset="0"
         id="stop5484" />
    </linearGradient>
    <linearGradient
       id="linearGradient5476-5"
       osb:paint="solid"
       gradientTransform="translate(-16.531141,92.337667)">
      <stop
         style="stop-color:#27bb1d;stop-opacity:1;"
         offset="0"
         id="stop5478-9" />
    </linearGradient>
    <linearGradient
       id="linearGradient5470-0"
       osb:paint="solid"
       gradientTransform="matrix(0.04419417,0,0,0.04687803,-1.99918,4.183472)">
      <stop
         style="stop-color:#79e743;stop-opacity:1;"
         offset="0"
         id="stop5472-1" />
    </linearGradient>
    <linearGradient
       id="linearGradient5476-9"
       osb:paint="solid"
       gradientTransform="translate(-16.531141,92.337667)">
      <stop
         style="stop-color:#27bb1d;stop-opacity:1;"
         offset="0"
         id="stop5478-6" />
    </linearGradient>
    <linearGradient
       id="linearGradient5470-9"
       osb:paint="solid"
       gradientTransform="matrix(0.04419417,0,0,0.04419417,-1.99918,3.8965801)">
      <stop
         style="stop-color:#79e743;stop-opacity:1;"
         offset="0"
         id="stop5472-2" />
    </linearGradient>
    <linearGradient
       id="linearGradient5476-9-5"
       osb:paint="solid"
       gradientTransform="translate(-16.531141,92.337667)">
      <stop
         style="stop-color:#27bb1d;stop-opacity:1;"
         offset="0"
         id="stop5478-6-0" />
    </linearGradient>
  </defs>
  <sodipodi:namedview
     id="base"
     pagecolor="#ffffff"
     bordercolor="#666666"
     borderopacity="1.0"
     inkscape:pageopacity="0.0"
     inkscape:pageshadow="2"
     inkscape:zoom="22.627417"
     inkscape:cx="0.48436192"
     inkscape:cy="-0.082336724"
     inkscape:document-units="px"
     inkscape:current-layer="layer3"
     showgrid="false"
     fit-margin-top="0"
     fit-margin-left="0"
     fit-margin-right="0"
     fit-margin-bottom="0"
     inkscape:window-width="1366"
     inkscape:window-height="724"
     inkscape:window-x="0"
     inkscape:window-y="-5"
     inkscape:window-maximized="1"
     inkscape:showpageshadow="false"
     borderlayer="true"
     showguides="true"
     inkscape:guide-bbox="true">
    <sodipodi:guide
       orientation="0,1"
       position="19.180271,4.5961941"
       id="guide4057" />
  </sodipodi:namedview>
  <metadata
     id="metadata3180">
    <rdf:RDF>
      <cc:Work
         rdf:about="">
        <dc:format>image/svg+xml</dc:format>
        <dc:type
           rdf:resource="http://purl.org/dc/dcmitype/StillImage" />
        <dc:title></dc:title>
      </cc:Work>
    </rdf:RDF>
  </metadata>
  <g
     inkscape:groupmode="layer"
     id="layer6"
     inkscape:label="dark"
     style="display:inline"
     sodipodi:insensitive="true">
    <rect
       style="fill:url(#linearGradient5482);fill-opacity:1;stroke:none"
       id="rect3293"
       width="11.490485"
       height="10.783379"
       x="-0.61871845"
       y="-0.34143671" />
  </g>
  <g
     inkscape:label="darking4"
     id="g3258"
     inkscape:groupmode="layer"
     style="display:inline"
     sodipodi:insensitive="true">
    <rect
       y="0.5"
       x="-5.25"
       height="13.125"
       width="23.0625"
       id="rect3260"
       style="fill:url(#linearGradient5482);fill-opacity:1;stroke:none;display:inline" />
    <path
       inkscape:connector-curvature="0"
       id="path3262"
       d="M 6.5,-1.25 C 5.5903159,-1.4734861 4.5818481,-1.33445 3.65625,-1.21875 3.0474072,-1.142645 -0.39219293,-0.69687141 -0.78125,-0.43750003 -1.7930103,0.23700687 -1.9982107,4.9383946 -0.75,5.5625 -0.17983895,5.8475805 0.78578664,4.6607866 1.28125,5.15625 1.5262258,5.4012258 1.7586575,6.2769212 2.375,5.96875 2.8254974,5.7435013 4.8980802,4.9646651 5.34375,5.1875 5.9373597,5.4843048 6.8647568,5.7525608 7.625,5.5625 7.8058504,5.5172874 7.9345862,5.305416 8.15625,5.25 8.8615739,5.073669 9.4888979,6.1673521 10.71875,4.9375 11.362547,4.2937031 11.313357,2.8638626 11.375,2.0625 11.43396,1.2960173 11.871903,-0.30557429 11.46875,-1.03125 10.514835,-2.748297 8.9693208,-1.8647736 7.59375,-1.40625 7.2490119,-1.2913373 6.7510178,-1.4508143 6.5,-1.25 z"
       style="fill:url(#linearGradient5476);stroke:none" />
  </g>
  <g
     style="display:inline"
     inkscape:groupmode="layer"
     id="g3252"
     inkscape:label="darking3"
     sodipodi:insensitive="true">
    <rect
       style="fill:url(#linearGradient5482);fill-opacity:1;stroke:none;display:inline"
       id="rect3254"
       width="23.0625"
       height="13.125"
       x="-5.25"
       y="0.5" />
    <path
       inkscape:connector-curvature="0"
       id="path3256"
       d="m -0.4375,-0.68750003 c -0.007444,0.569102 0.17446128,1.2639366 -0.03125,1.81250003 -0.22797415,0.607931 -0.5625,1.386941 -0.5625,2.03125 0,0.9391297 1.47138736,3.4175458 2.375,3.71875 C 1.6309475,6.970733 2.2318899,7.2278051 2.5625,7.0625 2.62315,7.032175 2.9826968,6.7293403 3.03125,6.875 3.083576,7.0319794 3.3027373,8.6035127 3.46875,8.4375 3.679012,8.227238 3.7059458,7.8253042 3.90625,7.625 4.0565616,7.4746884 4.5076403,7.2972194 4.59375,7.125 4.8728968,6.5667065 4.1817086,5.9375 5,5.9375 c 0.6698829,0 0.7010801,1.6521602 0.90625,2.0625 0.2770453,0.5540906 0,1.3848843 0,1.34375 0,-0.3835104 0.4050559,-0.8389735 0.5,-1.21875 C 6.7469598,6.762161 7.391715,6.670785 8.21875,5.84375 8.2659135,5.7965865 8.3117236,5.9476578 8.375,5.96875 8.4799204,6.0037235 8.8496102,6.0595699 8.96875,6 9.4182224,5.7752638 9.7004064,5.6185468 10.1875,5.375 11.126622,4.9054391 11.023319,3.4007754 11.28125,2.5625 11.502984,1.8418644 11.891964,1.1428569 11.96875,0.37499997 12.28938,-2.8313027 4.6212692,-2.2867539 2.875,-1.9375 c -0.7411761,0.1482352 -2.0284358,0.045468 -2.6875,0.375 -0.59447055,0.2972352 -0.67306995,1.11534973 -0.625,0.87499997 z"
       style="fill:url(#linearGradient5476);stroke:none" />
  </g>
  <g
     style="display:inline"
     inkscape:label="darking2"
     id="g3246"
     inkscape:groupmode="layer"
     sodipodi:insensitive="true">
    <rect
       y="0.5"
       x="-5.25"
       height="13.125"
       width="23.0625"
       id="rect3248"
       style="fill:url(#linearGradient5482);fill-opacity:1;stroke:none;display:inline" />
    <path
       inkscape:connector-curvature="0"
       id="path3250"
       d="M 0,5.4038059 C 0.13335592,5.536153 0.26953718,5.4482407 0.4375,5.40625 0.88223072,5.2950673 1.136707,4.733069 1.65625,4.90625 1.9883279,5.0169426 2.11149,5.5670033 2.5,5.4375 3.1404521,5.224016 3.1330731,3.9551433 3.9375,4.15625 4.0293251,4.1792062 5.6623697,6.2374348 5.6875,6.25 6.0401599,6.42633 6.668045,5.613205 6.90625,5.375 7.0938439,5.1874061 7.6199375,5.393156 7.84375,5.28125 c 0.1998626,-0.099931 0.3503595,-0.3219649 0.5625,-0.375 1.0423123,-0.2605781 2.002248,1.4358142 3.25,0.5 0.159908,-0.1199308 0.112912,-0.6760998 0.1875,-0.875 0.20555,-0.5481329 1.139614,-5.3916361 0.6875,-5.84375 C 11.507794,-2.3359561 6.1436777,-1.6268678 4.875,-1.5 c -1.9243264,0.1924326 -3.845073,-0.1915863 -5.71875,0.34375 -2.7315844,0.78045267 -0.6875,4.025609 -0.6875,6.125 0,0.149174 -0.1169128,0.9143372 0,1.03125 C -0.97402785,6.5572221 0.16984843,5.1251532 0,5.4038059 z"
       style="fill:url(#linearGradient5476);stroke:none" />
  </g>
  <g
     style="display:inline"
     inkscape:label="darking1"
     id="g3240"
     inkscape:groupmode="layer"
     sodipodi:insensitive="true">
    <rect
       y="0.5"
       x="-5.25"
       height="13.125"
       width="23.0625"
       id="rect3242"
       style="fill:url(#linearGradient5482);fill-opacity:1;stroke:none" />
    <path
       sodipodi:nodetypes="cssssssssscssscsssssssssc"
       inkscape:connector-curvature="0"
       id="path3244"
       d="M 7.5572037,-1.5346794 C 6.5845431,-1.3966878 5.6803391,-0.92949674 4.7287766,-0.73918424 4.0788963,-0.60920818 2.1472489,-1.6931904 1.767767,-1.3137085 c -0.4171723,0.4171723 -1.06841861,0.62130457 -1.72357283,0.8396893 -0.28411142,0.0947038 -0.81959393,0.004003 -0.97227182,0.30935922 -0.41981335,0.83962671 0.26516504,2.49891968 0.26516504,3.49133978 0,0.5528219 -1.07193299,1.7122999 -0.53033009,2.2539028 1.03903493,1.0390349 2.5014212,-2.4306795 2.7400388,-2.4306795 0.2506889,0 -0.4682087,2.0009125 0.4861359,1.2374368 C 2.9074223,3.6877477 3.5111417,2.5022023 3.5797281,2.7079613 3.7358765,3.1764065 3.3587572,8.718369 3.3587572,8.718369 c 0,0 0.8496004,-1.9499049 0.8838835,-2.1213204 C 4.3873148,5.873678 4.646589,4.7788867 5.1265242,4.2989516 5.1410787,4.284397 5.2845165,4.0216275 5.3033009,4.0779807 5.4557791,4.5354154 4.7287766,9.5580583 4.7287766,9.5580583 c 0,0 0.7105417,-0.995018 1.1932427,-2.1213204 C 6.6426472,5.7552729 7.1811818,3.8577527 7.9107571,2.3986021 8.2816749,1.6567666 7.8499572,4.7270991 8.1759222,4.5641166 8.9375658,4.1832948 9.328682,3.0210319 9.413359,3.1057089 9.8253492,3.5176991 9.23254,4.7368509 9.6785241,5.1828351 10.010411,5.5147219 11.844039,5.9740966 11.844039,5.0502525 c 0,-0.9686254 0.360069,-1.9856794 0.618718,-2.9168154 0.193729,-0.6974243 0.132583,-1.48858229 0.132583,-2.20970873 0,-0.26884749 0.216749,-1.77198787 0,-1.98873787 -1.308085,-1.3080847 -3.8543829,0.5303301 -5.0381363,0.5303301 z"
       style="fill:url(#linearGradient5476);stroke:none" />
  </g>
  <g
     style="display:inline"
     inkscape:groupmode="layer"
     id="g3222"
     inkscape:label="darking0"
     sodipodi:insensitive="true">
    <rect
       y="0.5"
       x="-5.25"
       height="13.125"
       width="23.0625"
       id="rect3224"
       style="fill:url(#linearGradient5482);fill-opacity:1;stroke:none" />
    <path
       inkscape:connector-curvature="0"
       id="path3226"
       d="m 12.772116,-1.5346793 c -1.27823,1.529e-4 -2.556729,-0.3093592 -3.889087,-0.3093592 -2.009797,0 -4.2006588,-0.4110041 -5.8778252,0.7071068 -0.4289154,0.2859436 -1.9084097,0.1205378 -2.4748737,0.3093592 -0.5162014,0.1720671 -0.8571577,1.2459967 -1.1490485,1.6351844 -0.1420598,0.1894131 -0.4861359,0.7015111 -0.4861359,0.9280777 0,0.5516479 -1.2324335,4.6870841 -1.1490486,4.7287766 0.6820771,0.3410385 1.8071692,-0.5255381 2.2097087,-0.9280777 C 0.1096061,5.3825883 0.1113648,4.808064 0.265165,4.9618643 0.332409,5.0291083 1.6747257,3.5918449 2.4306796,3.5918449 c 0.9848734,0 0.3903372,-0.8801783 1.016466,-1.1932427 C 3.6062664,2.3190418 3.659539,3.0938367 4.0216698,2.9731264 4.5306811,2.803456 4.3982244,1.989354 4.817165,1.7798837 5.185791,1.5955709 5.6083,2.0194043 5.922019,1.9566604 6.400022,1.8610604 7.91438,0.9561335 8.396893,1.1169711 c 0.233423,0.077808 0.03742,0.9451625 0.08839,1.1490486 0.104201,0.4168046 -0.0082,0.9396005 0.08839,1.3258252 0.06957,0.278291 0.517896,0.088388 0.662913,0.088388 0.354779,0 -0.228936,0.9019983 0.08839,1.0606602 0.258962,0.1294812 0.243245,0.4751759 0.53033,0.6187184 0.534198,0.2670991 2.088428,0.4676373 2.695844,0.2651651 0.354122,-0.1180404 0.507744,-5.1275027 0.265165,-5.6126601 -0.152428,-0.3048576 -0.185607,-0.9192071 -0.265165,-1.2374369 -0.03294,-0.1317615 -0.224205,-0.3977475 -0.08839,-0.3977475 0.296111,0 0.163109,0.69693143 0.53033,0.5745242 0.256203,-0.085401 0.348666,-0.6760149 -0.220971,-0.4861359 z"
       style="fill:url(#linearGradient5476);stroke:none" />
  </g>
  <g
     inkscape:groupmode="layer"
     id="layer4"
     inkscape:label="medium"
     sodipodi:insensitive="true"
     style="display:inline">
    <rect
       style="fill:url(#linearGradient5476);fill-opacity:1;stroke:none"
       id="rect3265"
       width="11.46875"
       height="11.75"
       x="-0.84375"
       y="-0.9375" />
  </g>
  <g
     inkscape:groupmode="layer"
     id="g3214"
     inkscape:label="mediuming4"
     style="display:inline"
     sodipodi:insensitive="true">
    <rect
       style="fill:url(#linearGradient5476-9-5);fill-opacity:1;stroke:none;display:inline"
       id="rect3216"
       width="23.0625"
       height="13.125"
       x="-5.25"
       y="0.5" />
    <path
       style="fill:url(#linearGradient5470);stroke:none"
       d="M 6.5,-1.25 C 5.5903159,-1.4734861 4.5818481,-1.33445 3.65625,-1.21875 3.0474072,-1.142645 -0.39219293,-0.69687141 -0.78125,-0.43750003 -1.7930103,0.23700687 -1.9982107,4.9383946 -0.75,5.5625 -0.17983895,5.8475805 0.78578664,4.6607866 1.28125,5.15625 1.5262258,5.4012258 1.7586575,6.2769212 2.375,5.96875 2.8254974,5.7435013 4.8980802,4.9646651 5.34375,5.1875 5.9373597,5.4843048 6.8647568,5.7525608 7.625,5.5625 7.8058504,5.5172874 7.9345862,5.305416 8.15625,5.25 8.8615739,5.073669 9.4888979,6.1673521 10.71875,4.9375 11.362547,4.2937031 11.313357,2.8638626 11.375,2.0625 11.43396,1.2960173 11.871903,-0.30557429 11.46875,-1.03125 10.514835,-2.748297 8.9693208,-1.8647736 7.59375,-1.40625 7.2490119,-1.2913373 6.7510178,-1.4508143 6.5,-1.25 z"
       id="path3220"
       inkscape:connector-curvature="0" />
  </g>
  <g
     inkscape:label="mediuming3"
     id="g3206"
     inkscape:groupmode="layer"
     sodipodi:insensitive="true"
     style="display:inline">
    <rect
       y="0.5"
       x="-5.25"
       height="13.125"
       width="23.0625"
       id="rect3208"
       style="fill:url(#linearGradient5476-9-5);fill-opacity:1;stroke:none;display:inline" />
    <path
       style="fill:url(#linearGradient5470);stroke:none"
       d="m -0.4375,-0.68750003 c -0.007444,0.569102 0.17446128,1.2639366 -0.03125,1.81250003 -0.22797415,0.607931 -0.5625,1.386941 -0.5625,2.03125 0,0.9391297 1.47138736,3.4175458 2.375,3.71875 C 1.6309475,6.970733 2.2318899,7.2278051 2.5625,7.0625 2.62315,7.032175 2.9826968,6.7293403 3.03125,6.875 3.083576,7.0319794 3.3027373,8.6035127 3.46875,8.4375 3.679012,8.227238 3.7059458,7.8253042 3.90625,7.625 4.0565616,7.4746884 4.5076403,7.2972194 4.59375,7.125 4.8728968,6.5667065 4.1817086,5.9375 5,5.9375 c 0.6698829,0 0.7010801,1.6521602 0.90625,2.0625 0.2770453,0.5540906 0,1.3848843 0,1.34375 0,-0.3835104 0.4050559,-0.8389735 0.5,-1.21875 C 6.7469598,6.762161 7.391715,6.670785 8.21875,5.84375 8.2659135,5.7965865 8.3117236,5.9476578 8.375,5.96875 8.4799204,6.0037235 8.8496102,6.0595699 8.96875,6 9.4182224,5.7752638 9.7004064,5.6185468 10.1875,5.375 11.126622,4.9054391 11.023319,3.4007754 11.28125,2.5625 11.502984,1.8418644 11.891964,1.1428569 11.96875,0.37499997 12.28938,-2.8313027 4.6212692,-2.2867539 2.875,-1.9375 c -0.7411761,0.1482352 -2.0284358,0.045468 -2.6875,0.375 -0.59447055,0.2972352 -0.67306995,1.11534973 -0.625,0.87499997 z"
       id="path3212"
       inkscape:connector-curvature="0" />
  </g>
  <g
     inkscape:groupmode="layer"
     id="layer3"
     inkscape:label="mediuming2"
     sodipodi:insensitive="true"
     style="display:inline">
    <rect
       style="fill:url(#linearGradient5476-9-5);fill-opacity:1;stroke:none;display:inline"
       id="rect4055-4-6"
       width="23.0625"
       height="13.125"
       x="-5.25"
       y="0.5" />
    <path
       style="fill:url(#linearGradient5470);stroke:none"
       d="M 0,5.4038059 C 0.13335592,5.536153 0.26953718,5.4482407 0.4375,5.40625 0.88223072,5.2950673 1.136707,4.733069 1.65625,4.90625 1.9883279,5.0169426 2.11149,5.5670033 2.5,5.4375 3.1404521,5.224016 3.1330731,3.9551433 3.9375,4.15625 4.0293251,4.1792062 5.6623697,6.2374348 5.6875,6.25 6.0401599,6.42633 6.668045,5.613205 6.90625,5.375 7.0938439,5.1874061 7.6199375,5.393156 7.84375,5.28125 c 0.1998626,-0.099931 0.3503595,-0.3219649 0.5625,-0.375 1.0423123,-0.2605781 2.002248,1.4358142 3.25,0.5 0.159908,-0.1199308 0.112912,-0.6760998 0.1875,-0.875 0.20555,-0.5481329 1.139614,-5.3916361 0.6875,-5.84375 C 11.507794,-2.3359561 6.1436777,-1.6268678 4.875,-1.5 c -1.9243264,0.1924326 -3.845073,-0.1915863 -5.71875,0.34375 -2.7315844,0.78045267 -0.6875,4.025609 -0.6875,6.125 0,0.149174 -0.1169128,0.9143372 0,1.03125 C -0.97402785,6.5572221 0.16984843,5.1251532 0,5.4038059 z"
       id="path3142"
       inkscape:connector-curvature="0" />
  </g>
  <g
     inkscape:label="mediuming1"
     id="g4059"
     inkscape:groupmode="layer"
     style="display:inline"
     sodipodi:insensitive="true">
    <rect
       style="fill:url(#linearGradient5476-5);fill-opacity:1;stroke:none"
       id="rect4055"
       width="23.0625"
       height="13.125"
       x="-5.25"
       y="0.5" />
    <path
       style="fill:url(#linearGradient5470-0);stroke:none"
       d="m 12.772116,-1.5346793 c -1.27823,1.529e-4 -2.556729,-0.3093592 -3.889087,-0.3093592 -2.009797,0 -4.2006588,-0.4110041 -5.8778252,0.7071068 -0.4289154,0.2859436 -1.9084097,0.1205378 -2.4748737,0.3093592 -0.5162014,0.1720671 -0.8571577,1.2459967 -1.1490485,1.6351844 -0.1420598,0.1894131 -0.4861359,0.7015111 -0.4861359,0.9280777 0,0.5516479 -1.2324335,4.6870841 -1.1490486,4.7287766 0.6820771,0.3410385 1.8071692,-0.5255381 2.2097087,-0.9280777 C 0.1096061,5.3825883 0.1113648,4.808064 0.265165,4.9618643 0.332409,5.0291083 1.6747257,3.5918449 2.4306796,3.5918449 c 0.9848734,0 0.3903372,-0.8801783 1.016466,-1.1932427 C 3.6062664,2.3190418 3.659539,3.0938367 4.0216698,2.9731264 4.5306811,2.803456 4.3982244,1.989354 4.817165,1.7798837 5.185791,1.5955709 5.6083,2.0194043 5.922019,1.9566604 6.400022,1.8610604 7.91438,0.9561335 8.396893,1.1169711 c 0.233423,0.077808 0.03742,0.9451625 0.08839,1.1490486 0.104201,0.4168046 -0.0082,0.9396005 0.08839,1.3258252 0.06957,0.278291 0.517896,0.088388 0.662913,0.088388 0.354779,0 -0.228936,0.9019983 0.08839,1.0606602 0.258962,0.1294812 0.243245,0.4751759 0.53033,0.6187184 0.534198,0.2670991 2.088428,0.4676373 2.695844,0.2651651 0.354122,-0.1180404 0.507744,-5.1275027 0.265165,-5.6126601 -0.152428,-0.3048576 -0.185607,-0.9192071 -0.265165,-1.2374369 -0.03294,-0.1317615 -0.224205,-0.3977475 -0.08839,-0.3977475 0.296111,0 0.163109,0.69693143 0.53033,0.5745242 0.256203,-0.085401 0.348666,-0.6760149 -0.220971,-0.4861359 z"
       id="path4063"
       inkscape:connector-curvature="0" />
  </g>
  <g
     inkscape:groupmode="layer"
     id="layer2"
     inkscape:label="mediuming0"
     style="display:inline"
     sodipodi:insensitive="true">
    <rect
       style="fill:url(#linearGradient5476-9);fill-opacity:1;stroke:none"
       id="rect4055-4"
       width="23.0625"
       height="13.125"
       x="-5.25"
       y="0.5" />
    <path
       style="fill:url(#linearGradient5470);stroke:none"
       d="M 7.5572037,-1.5346794 C 6.5845431,-1.3966878 5.6803391,-0.92949674 4.7287766,-0.73918424 4.0788963,-0.60920818 2.1472489,-1.6931904 1.767767,-1.3137085 c -0.4171723,0.4171723 -1.06841861,0.62130457 -1.72357283,0.8396893 -0.28411142,0.0947038 -0.81959393,0.004003 -0.97227182,0.30935922 -0.41981335,0.83962671 0.26516504,2.49891968 0.26516504,3.49133978 0,0.5528219 -1.07193299,1.7122999 -0.53033009,2.2539028 1.03903493,1.0390349 2.5014212,-2.4306795 2.7400388,-2.4306795 0.2506889,0 -0.4682087,2.0009125 0.4861359,1.2374368 C 2.9074223,3.6877477 3.5111417,2.5022023 3.5797281,2.7079613 3.7358765,3.1764065 3.3587572,8.718369 3.3587572,8.718369 c 0,0 0.8496004,-1.9499049 0.8838835,-2.1213204 C 4.3873148,5.873678 4.646589,4.7788867 5.1265242,4.2989516 5.1410787,4.284397 5.2845165,4.0216275 5.3033009,4.0779807 5.4557791,4.5354154 4.7287766,9.5580583 4.7287766,9.5580583 c 0,0 0.7105417,-0.995018 1.1932427,-2.1213204 C 6.6426472,5.7552729 7.1811818,3.8577527 7.9107571,2.3986021 8.2816749,1.6567666 7.8499572,4.7270991 8.1759222,4.5641166 8.9375658,4.1832948 9.328682,3.0210319 9.413359,3.1057089 9.8253492,3.5176991 9.23254,4.7368509 9.6785241,5.1828351 10.010411,5.5147219 11.844039,5.9740966 11.844039,5.0502525 c 0,-0.9686254 0.360069,-1.9856794 0.618718,-2.9168154 0.193729,-0.6974243 0.132583,-1.48858229 0.132583,-2.20970873 0,-0.26884749 0.216749,-1.77198787 0,-1.98873787 -1.308085,-1.3080847 -3.8543829,0.5303301 -5.0381363,0.5303301 z"
       id="path3108"
       inkscape:connector-curvature="0"
       sodipodi:nodetypes="cssssssssscssscsssssssssc" />
  </g>
  <g
     inkscape:groupmode="layer"
     id="layer5"
     inkscape:label="bright"
     sodipodi:insensitive="true"
     style="display:inline">
    <rect
       style="fill:url(#linearGradient5470-0);stroke:none"
       id="rect3290"
       width="11.22532"
       height="11.578874"
       x="-0.61871845"
       y="-0.82757258" />
  </g>
</svg>
