<?xml version="1.0" encoding="UTF-8" standalone="no"?>
<!-- Created with Inkscape (http://www.inkscape.org/) -->

<svg
   xmlns:osb="http://www.openswatchbook.org/uri/2009/osb"
   xmlns:dc="http://purl.org/dc/elements/1.1/"
   xmlns:cc="http://creativecommons.org/ns#"
   xmlns:rdf="http://www.w3.org/1999/02/22-rdf-syntax-ns#"
   xmlns:svg="http://www.w3.org/2000/svg"
   xmlns="http://www.w3.org/2000/svg"
   xmlns:xlink="http://www.w3.org/1999/xlink"
   xmlns:sodipodi="http://sodipodi.sourceforge.net/DTD/sodipodi-0.dtd"
   xmlns:inkscape="http://www.inkscape.org/namespaces/inkscape"
   width="744.09448819"
   height="1052.3622047"
   id="svg2"
   version="1.1"
   inkscape:version="0.48.5 r10040"
   sodipodi:docname="robot2.svg">
  <defs
     id="defs4">
    <linearGradient
       id="linearGradient4586"
       osb:paint="solid"
       gradientTransform="matrix(0.96631439,0,0,1.0166679,56.980026,12.646935)">
      <stop
         style="stop-color:#ffffff;stop-opacity:1;"
         offset="0"
         id="stop4588" />
    </linearGradient>
    <linearGradient
       id="linearGradient4528"
       osb:paint="solid"
       gradientTransform="matrix(1.0668147,0,0,1.3612272,1683.629,467.08988)">
      <stop
         style="stop-color:#ef3636;stop-opacity:1;"
         offset="0"
         id="stop4530" />
    </linearGradient>
    <linearGradient
       id="linearGradient4507"
       osb:paint="solid"
       gradientTransform="matrix(0,-0.8660254,-1.1547005,0,771.46952,9.3537101)">
      <stop
         style="stop-color:#9a2b2b;stop-opacity:1;"
         offset="0"
         id="stop4509" />
    </linearGradient>
    <linearGradient
       id="linearGradient4279"
       gradientTransform="matrix(-0.42685686,0.24644593,0,0.52606641,-91.10877,601.22879)"
       osb:paint="solid">
      <stop
         style="stop-color:#ff6969;stop-opacity:1;"
         offset="0"
         id="stop4281" />
    </linearGradient>
    <linearGradient
       id="linearGradient4416"
       osb:paint="solid">
      <stop
         style="stop-color:#ffff26;stop-opacity:1;"
         offset="0"
         id="stop4418" />
    </linearGradient>
    <linearGradient
       id="linearGradient4381"
       osb:paint="solid"
       gradientTransform="matrix(0.0361434,0,0,0.02206555,3284.8295,286.94862)">
      <stop
         style="stop-color:#000000;stop-opacity:1;"
         offset="0"
         id="stop4383" />
    </linearGradient>
    <linearGradient
       id="linearGradient4324">
      <stop
         style="stop-color:#6d6ddf;stop-opacity:1;"
         offset="0"
         id="stop4326" />
      <stop
         id="stop4275"
         offset="1"
         style="stop-color:#6d6ddf;stop-opacity:1;" />
    </linearGradient>
    <linearGradient
       inkscape:collect="always"
       xlink:href="#linearGradient4324"
       id="linearGradient4287"
       gradientTransform="scale(0.92180394,1.0848294)"
       x1="138.82826"
       y1="82.045199"
       x2="260.90146"
       y2="82.045199"
       gradientUnits="userSpaceOnUse" />
    <linearGradient
       inkscape:collect="always"
       xlink:href="#linearGradient4324"
       id="linearGradient4289"
       gradientTransform="scale(0.92180394,1.0848294)"
       x1="138.82826"
       y1="82.045199"
       x2="260.90146"
       y2="82.045199"
       gradientUnits="userSpaceOnUse" />
    <linearGradient
       inkscape:collect="always"
       xlink:href="#linearGradient4324"
       id="linearGradient4321"
       gradientUnits="userSpaceOnUse"
       gradientTransform="matrix(0.50610935,0,0,0.59561722,83.082741,100.16548)"
       x1="138.82826"
       y1="82.045199"
       x2="260.90146"
       y2="82.045199" />
    <linearGradient
       inkscape:collect="always"
       xlink:href="#linearGradient4324"
       id="linearGradient4325"
       gradientUnits="userSpaceOnUse"
       gradientTransform="matrix(0.50610935,0,0,0.59561722,86.971828,107.5901)"
       x1="138.82826"
       y1="82.045199"
       x2="260.90146"
       y2="82.045199" />
    <linearGradient
       inkscape:collect="always"
       xlink:href="#linearGradient4324"
       id="linearGradient4461"
       x1="143.5"
       y1="225.36218"
       x2="212.5"
       y2="225.36218"
       gradientUnits="userSpaceOnUse"
       gradientTransform="matrix(0.08724028,0,0,0.08724028,145.67711,258.43028)" />
    <linearGradient
       inkscape:collect="always"
       xlink:href="#linearGradient4507"
       id="linearGradient4511"
       x1="304.44894"
       y1="227.73372"
       x2="344.60836"
       y2="227.73372"
       gradientUnits="userSpaceOnUse"
       gradientTransform="translate(0.88388348,-0.35355339)" />
    <linearGradient
       inkscape:collect="always"
       xlink:href="#linearGradient4528"
       id="linearGradient4532"
       x1="302.98042"
       y1="223.59561"
       x2="345.43133"
       y2="223.59561"
       gradientUnits="userSpaceOnUse"
       gradientTransform="matrix(0.95071336,0,0,0.80675545,-148.05782,47.999294)" />
    <linearGradient
       id="linearGradient4279-3"
       gradientTransform="matrix(0.64070506,0,0,-0.59221273,421.82984,339.29748)"
       osb:paint="solid">
      <stop
         style="stop-color:#ff6969;stop-opacity:1;"
         offset="0"
         id="stop4281-5" />
    </linearGradient>
    <linearGradient
       gradientTransform="translate(214.61348,7.058615)"
       id="linearGradient4507-2"
       osb:paint="solid">
      <stop
         style="stop-color:#9a2b2b;stop-opacity:1;"
         offset="0"
         id="stop4509-0" />
    </linearGradient>
    <linearGradient
       inkscape:collect="always"
       xlink:href="#linearGradient4586"
       id="linearGradient4590"
       x1="171.5"
       y1="62.862183"
       x2="193.5"
       y2="62.862183"
       gradientUnits="userSpaceOnUse" />
    <linearGradient
       id="linearGradient4586-9"
       osb:paint="solid">
      <stop
         style="stop-color:#ffffff;stop-opacity:1;"
         offset="0"
         id="stop4588-5" />
    </linearGradient>
    <linearGradient
       id="linearGradient4586-7"
       osb:paint="solid">
      <stop
         style="stop-color:#ffffff;stop-opacity:1;"
         offset="0"
         id="stop4588-0" />
    </linearGradient>
    <linearGradient
       inkscape:collect="always"
       xlink:href="#linearGradient4507"
       id="linearGradient4854"
       gradientUnits="userSpaceOnUse"
       gradientTransform="translate(0.88388348,-0.35355339)"
       x1="304.44894"
       y1="227.73372"
       x2="344.60836"
       y2="227.73372" />
    <linearGradient
       inkscape:collect="always"
       xlink:href="#linearGradient4586"
       id="linearGradient4926"
       gradientUnits="userSpaceOnUse"
       x1="171.5"
       y1="62.862183"
       x2="193.5"
       y2="62.862183" />
    <linearGradient
       inkscape:collect="always"
       xlink:href="#linearGradient4324"
       id="linearGradient4928"
       gradientUnits="userSpaceOnUse"
       gradientTransform="matrix(0.08724028,0,0,0.08724028,384.6792,258.43028)"
       x1="143.5"
       y1="225.36218"
       x2="212.5"
       y2="225.36218" />
    <linearGradient
       inkscape:collect="always"
       xlink:href="#linearGradient4528"
       id="linearGradient4930"
       gradientUnits="userSpaceOnUse"
       gradientTransform="matrix(0.95071336,0,0,0.80675545,90.944272,47.999294)"
       x1="302.98042"
       y1="223.59561"
       x2="345.43133"
       y2="223.59561" />
    <linearGradient
       inkscape:collect="always"
       xlink:href="#linearGradient4507"
       id="linearGradient4932"
       gradientUnits="userSpaceOnUse"
       gradientTransform="translate(0.88388348,-0.35355339)"
       x1="304.44894"
       y1="227.73372"
       x2="344.60836"
       y2="227.73372" />
    <linearGradient
       inkscape:collect="always"
       xlink:href="#linearGradient4528"
       id="linearGradient4950"
       gradientUnits="userSpaceOnUse"
       gradientTransform="matrix(0.95071336,0,0,0.80675545,90.944272,47.999294)"
       x1="302.98042"
       y1="223.59561"
       x2="345.43133"
       y2="223.59561" />
    <linearGradient
       inkscape:collect="always"
       xlink:href="#linearGradient4507"
       id="linearGradient4952"
       gradientUnits="userSpaceOnUse"
       gradientTransform="translate(0.88388348,-0.35355339)"
       x1="304.44894"
       y1="227.73372"
       x2="344.60836"
       y2="227.73372" />
    <linearGradient
       inkscape:collect="always"
       xlink:href="#linearGradient4586"
       id="linearGradient5032"
       gradientUnits="userSpaceOnUse"
       x1="171.5"
       y1="62.862183"
       x2="193.5"
       y2="62.862183" />
    <linearGradient
       inkscape:collect="always"
       xlink:href="#linearGradient4324"
       id="linearGradient5034"
       gradientUnits="userSpaceOnUse"
       gradientTransform="matrix(0.08724028,0,0,0.08724028,346.67711,258.43028)"
       x1="143.5"
       y1="225.36218"
       x2="212.5"
       y2="225.36218" />
    <linearGradient
       inkscape:collect="always"
       xlink:href="#linearGradient4528"
       id="linearGradient5036"
       gradientUnits="userSpaceOnUse"
       gradientTransform="matrix(0.95071336,0,0,0.80675545,-148.05782,47.999294)"
       x1="302.98042"
       y1="223.59561"
       x2="345.43133"
       y2="223.59561" />
    <linearGradient
       inkscape:collect="always"
       xlink:href="#linearGradient4507"
       id="linearGradient5038"
       gradientUnits="userSpaceOnUse"
       gradientTransform="translate(0.88388348,-0.35355339)"
       x1="304.44894"
       y1="227.73372"
       x2="344.60836"
       y2="227.73372" />
    <linearGradient
       inkscape:collect="always"
       xlink:href="#linearGradient4528"
       id="linearGradient5050"
       gradientUnits="userSpaceOnUse"
       gradientTransform="matrix(0.95071336,0,0,0.80675545,-148.05782,47.999294)"
       x1="302.98042"
       y1="223.59561"
       x2="345.43133"
       y2="223.59561" />
    <linearGradient
       inkscape:collect="always"
       xlink:href="#linearGradient4507"
       id="linearGradient5052"
       gradientUnits="userSpaceOnUse"
       gradientTransform="translate(0.88388348,-0.35355339)"
       x1="304.44894"
       y1="227.73372"
       x2="344.60836"
       y2="227.73372" />
    <linearGradient
       inkscape:collect="always"
       xlink:href="#linearGradient4528"
       id="linearGradient5100"
       gradientUnits="userSpaceOnUse"
       gradientTransform="matrix(0.95071336,0,0,0.80675545,-148.05782,47.999294)"
       x1="302.98042"
       y1="223.59561"
       x2="345.43133"
       y2="223.59561" />
    <linearGradient
       inkscape:collect="always"
       xlink:href="#linearGradient4507"
       id="linearGradient5102"
       gradientUnits="userSpaceOnUse"
       gradientTransform="translate(0.88388348,-0.35355339)"
       x1="304.44894"
       y1="227.73372"
       x2="344.60836"
       y2="227.73372" />
    <linearGradient
       inkscape:collect="always"
       xlink:href="#linearGradient4528"
       id="linearGradient5120"
       gradientUnits="userSpaceOnUse"
       gradientTransform="matrix(0.95071336,0,0,0.80675545,-148.05782,47.999294)"
       x1="302.98042"
       y1="223.59561"
       x2="345.43133"
       y2="223.59561" />
    <linearGradient
       inkscape:collect="always"
       xlink:href="#linearGradient4507"
       id="linearGradient5122"
       gradientUnits="userSpaceOnUse"
       gradientTransform="translate(0.88388348,-0.35355339)"
       x1="304.44894"
       y1="227.73372"
       x2="344.60836"
       y2="227.73372" />
    <linearGradient
       inkscape:collect="always"
       xlink:href="#linearGradient4528"
       id="linearGradient5134"
       gradientUnits="userSpaceOnUse"
       gradientTransform="matrix(0.95071336,0,0,0.80675545,-148.05782,47.999294)"
       x1="302.98042"
       y1="223.59561"
       x2="345.43133"
       y2="223.59561" />
    <linearGradient
       inkscape:collect="always"
       xlink:href="#linearGradient4507"
       id="linearGradient5136"
       gradientUnits="userSpaceOnUse"
       gradientTransform="translate(0.88388348,-0.35355339)"
       x1="304.44894"
       y1="227.73372"
       x2="344.60836"
       y2="227.73372" />
    <linearGradient
       inkscape:collect="always"
       xlink:href="#linearGradient4528"
       id="linearGradient5160"
       gradientUnits="userSpaceOnUse"
       gradientTransform="matrix(0.95071336,0,0,0.80675545,-148.05782,47.999294)"
       x1="302.98042"
       y1="223.59561"
       x2="345.43133"
       y2="223.59561" />
    <linearGradient
       inkscape:collect="always"
       xlink:href="#linearGradient4507"
       id="linearGradient5162"
       gradientUnits="userSpaceOnUse"
       gradientTransform="translate(0.88388348,-0.35355339)"
       x1="304.44894"
       y1="227.73372"
       x2="344.60836"
       y2="227.73372" />
    <linearGradient
       inkscape:collect="always"
       xlink:href="#linearGradient4528"
       id="linearGradient5164"
       gradientUnits="userSpaceOnUse"
       gradientTransform="matrix(0.95071336,0,0,0.80675545,-148.05782,47.999294)"
       x1="302.98042"
       y1="223.59561"
       x2="345.43133"
       y2="223.59561" />
    <linearGradient
       inkscape:collect="always"
       xlink:href="#linearGradient4507"
       id="linearGradient5166"
       gradientUnits="userSpaceOnUse"
       gradientTransform="translate(0.88388348,-0.35355339)"
       x1="304.44894"
       y1="227.73372"
       x2="344.60836"
       y2="227.73372" />
    <linearGradient
       inkscape:collect="always"
       xlink:href="#linearGradient4528"
       id="linearGradient5180"
       gradientUnits="userSpaceOnUse"
       gradientTransform="matrix(0.95071336,0,0,0.80675545,-148.05782,47.999294)"
       x1="302.98042"
       y1="223.59561"
       x2="345.43133"
       y2="223.59561" />
    <linearGradient
       inkscape:collect="always"
       xlink:href="#linearGradient4507"
       id="linearGradient5182"
       gradientUnits="userSpaceOnUse"
       gradientTransform="translate(0.88388348,-0.35355339)"
       x1="304.44894"
       y1="227.73372"
       x2="344.60836"
       y2="227.73372" />
    <linearGradient
       id="linearGradient4279-6"
       gradientTransform="matrix(-0.42685686,0.24644593,0,0.52606641,-314.43785,504.0516)"
       osb:paint="solid">
      <stop
         style="stop-color:#ff6969;stop-opacity:1;"
         offset="0"
         id="stop4281-8" />
    </linearGradient>
    <linearGradient
       inkscape:collect="always"
       xlink:href="#linearGradient4324"
       id="linearGradient5537"
       gradientUnits="userSpaceOnUse"
       gradientTransform="matrix(0.08724028,0,0,0.08724028,368.67711,254.93028)"
       x1="143.5"
       y1="225.36218"
       x2="212.5"
       y2="225.36218" />
  </defs>
  <sodipodi:namedview
     id="base"
     pagecolor="#ffffff"
     bordercolor="#666666"
     borderopacity="1.0"
     inkscape:pageopacity="0.0"
     inkscape:pageshadow="2"
     inkscape:zoom="1.4142136"
     inkscape:cx="314.09721"
     inkscape:cy="799.46423"
     inkscape:document-units="px"
     inkscape:current-layer="layer1"
     showgrid="true"
     inkscape:window-width="1366"
     inkscape:window-height="724"
     inkscape:window-x="0"
     inkscape:window-y="-5"
     inkscape:window-maximized="1"
     inkscape:snap-global="false">
    <inkscape:grid
       type="axonomgrid"
       id="grid5363"
       units="px"
       empspacing="5"
       visible="true"
       enabled="true"
       snapvisiblegridlinesonly="true"
       spacingy="40px" />
  </sodipodi:namedview>
  <metadata
     id="metadata7">
    <rdf:RDF>
      <cc:Work
         rdf:about="">
        <dc:format>image/svg+xml</dc:format>
        <dc:type
           rdf:resource="http://purl.org/dc/dcmitype/StillImage" />
        <dc:title />
      </cc:Work>
    </rdf:RDF>
  </metadata>
  <g
     inkscape:label="Layer 1"
     inkscape:groupmode="layer"
     id="layer1">
    <path
       sodipodi:nodetypes="cc"
       inkscape:connector-curvature="0"
       id="path5505"
       d="m 384.25,275.31288 c 6.8721,-12.07908 7.12695,-24.78838 0,-38.2007"
       style="fill:none;stroke:url(#linearGradient4381);stroke-width:3.55299997;stroke-linecap:butt;stroke-linejoin:miter;stroke-miterlimit:4;stroke-opacity:1;stroke-dasharray:none" />
    <path
       style="fill:none;stroke:url(#linearGradient4381);stroke-width:3.55299997;stroke-linecap:butt;stroke-linejoin:miter;stroke-miterlimit:4;stroke-opacity:1;stroke-dasharray:none"
       d="m 384.50008,275.31288 c -6.8721,-12.07908 -7.12695,-24.78838 0,-38.2007"
       id="path5507"
       inkscape:connector-curvature="0"
       sodipodi:nodetypes="cc" />
    <g
       transform="matrix(0.59221273,0,0,0.59221273,262.07016,110.3068)"
       id="g5509">
      <path
         style="fill:none;stroke:url(#linearGradient4381);stroke-width:6;stroke-linecap:round;stroke-linejoin:miter;stroke-miterlimit:4;stroke-opacity:1;stroke-dasharray:none"
         d="m 163.88886,262.22416 c 0,-26.07156 -31.53818,5.04611 -46.256,-7.56916 -14.71782,-12.61527 15.55883,-12.19476 19.34341,-37.0048 3.78459,-24.81003 -47.93803,-16.82037 -47.93803,-16.82037"
         id="path5511"
         inkscape:connector-curvature="0" />
      <path
         transform="matrix(0.33313064,0,0,0.33313064,-31.136803,165.76916)"
         inkscape:transform-center-y="-0.14382883"
         inkscape:transform-center-x="0.14382538"
         d="m 355.81528,111.67747 -10.36994,1.64243 -4.76654,-9.35486 7.42406,-7.42406 9.35486,4.76654 z"
         inkscape:randomized="0"
         inkscape:rounded="0"
         inkscape:flatsided="true"
         sodipodi:arg2="1.4137167"
         sodipodi:arg1="0.78539816"
         sodipodi:r2="7.2254605"
         sodipodi:r1="8.93116"
         sodipodi:cy="105.36218"
         sodipodi:cx="349.5"
         sodipodi:sides="5"
         id="path5513"
         style="fill:#d4d4d4;fill-opacity:1;stroke:none"
         sodipodi:type="star" />
    </g>
    <g
       transform="matrix(0.59221273,0,0,0.59221273,285.75867,110.3068)"
       id="g5515">
      <path
         sodipodi:nodetypes="ccccccccc"
         inkscape:connector-curvature="0"
         id="path5517"
         d="m 302.87553,182.28374 1.24324,-5.40344 -16.27559,2.45963 -5.38057,-12.62026 13.15391,-9.99797 -4.86612,-2.91554 -14.41507,12.56688 7.49201,17.59843 z"
         style="fill:url(#linearGradient4381);fill-opacity:1;stroke:url(#linearGradient4381);stroke-width:4.42528534;stroke-linecap:round;stroke-linejoin:round;stroke-miterlimit:4;stroke-opacity:1;stroke-dasharray:none" />
      <path
         style="fill:none;stroke:url(#linearGradient4381);stroke-width:5.99953318;stroke-linecap:round;stroke-linejoin:round;stroke-miterlimit:4;stroke-opacity:1;stroke-dasharray:none;marker-mid:none"
         d="m 203.83722,263.06518 c 40.36887,0 17.24087,-41.6304 29.01512,-50.8816 11.77426,-9.2512 36.58429,-1.26152 36.58429,-18.08189 0,-16.82036 12.60877,-18.94404 12.60877,-18.94404"
         id="path5519"
         inkscape:connector-curvature="0"
         sodipodi:nodetypes="cssc" />
      <path
         sodipodi:type="star"
         style="fill:#d4d4d4;fill-opacity:1;stroke:none"
         id="path5521"
         sodipodi:sides="5"
         sodipodi:cx="349.5"
         sodipodi:cy="105.36218"
         sodipodi:r1="8.93116"
         sodipodi:r2="7.2254605"
         sodipodi:arg1="0.78539816"
         sodipodi:arg2="1.4137167"
         inkscape:flatsided="true"
         inkscape:rounded="0"
         inkscape:randomized="0"
         d="m 355.81528,111.67747 -10.36994,1.64243 -4.76654,-9.35486 7.42406,-7.42406 9.35486,4.76654 z"
         inkscape:transform-center-x="0.1438289"
         inkscape:transform-center-y="-0.1438262"
         transform="matrix(0.33313064,0,0,0.33313064,166.08365,138.88044)" />
    </g>
    <path
       transform="matrix(0.67842753,0,0,0.67842753,263.44577,101.30307)"
       d="m 212,259.86218 a 34,34 0 1 1 -68,0 34,34 0 1 1 68,0 z"
       sodipodi:ry="34"
       sodipodi:rx="34"
       sodipodi:cy="259.86218"
       sodipodi:cx="178"
       id="path5523"
       style="fill:url(#linearGradient4381);fill-opacity:1;stroke:none"
       sodipodi:type="arc" />
    <path
       sodipodi:type="arc"
       style="fill:#d4d4d4;fill-opacity:1;stroke:none"
       id="path5525"
       sodipodi:cx="178"
       sodipodi:cy="259.86218"
       sodipodi:rx="34"
       sodipodi:ry="34"
       d="m 212,259.86218 a 34,34 0 1 1 -68,0 34,34 0 1 1 68,0 z"
       transform="matrix(0.20424609,0,0,0.20424609,347.85007,224.5249)" />
    <path
       inkscape:connector-curvature="0"
       id="path5527"
       d="m 387.17205,277.60073 c 0,1.63817 -1.328,2.96617 -2.96617,2.96617 -1.63817,0 -2.96617,-1.328 -2.96617,-2.96617 0,-1.63817 1.328,-2.96617 2.96617,-2.96617 1.63817,0 2.96617,1.328 2.96617,2.96617 z"
       style="fill:url(#linearGradient4528);fill-opacity:1;stroke:url(#linearGradient5537);stroke-width:0.08724029" />
    <path
       sodipodi:nodetypes="sssss"
       inkscape:connector-curvature="0"
       id="path5529"
       d="m 412.71627,277.60074 c 0,15.74585 -12.76454,-0.3839 -28.51039,-0.3839 -15.74585,0 -28.51039,16.12975 -28.51039,0.3839 0,-15.74585 12.76454,-28.51039 28.51039,-28.51039 15.74585,0 28.51039,12.76454 28.51039,28.51039 z"
       style="fill:url(#linearGradient4528);fill-opacity:1;stroke:none" />
    <path
       inkscape:connector-curvature="0"
       id="path5531"
       d="m 373.3125,251.25 c -10.34158,4.28135 -17.625,14.46017 -17.625,26.34375 0,13.34043 9.18268,3.82033 21.5625,0.59375 -5.2864,-2.8826 -8.875,-8.49226 -8.875,-14.9375 0,-4.67861 1.87936,-8.9261 4.9375,-12 z"
       style="fill:url(#linearGradient4279);fill-opacity:1;stroke:none" />
    <path
       sodipodi:type="star"
       style="fill:#d4d4d4;fill-opacity:1;stroke:none"
       id="path5533"
       sodipodi:sides="5"
       sodipodi:cx="349.5"
       sodipodi:cy="105.36218"
       sodipodi:r1="8.93116"
       sodipodi:r2="7.2254605"
       sodipodi:arg1="0.78539816"
       sodipodi:arg2="1.4137167"
       inkscape:flatsided="true"
       inkscape:rounded="0"
       inkscape:randomized="0"
       d="m 355.81528,111.67747 -10.36994,1.64243 -4.76654,-9.35486 7.42406,-7.42406 9.35486,4.76654 z"
       inkscape:transform-center-x="0.14322133"
       inkscape:transform-center-y="-0.14322225"
       transform="matrix(0.33174314,0,0,0.33174314,268.40488,240.63056)" />
    <path
       inkscape:connector-curvature="0"
       style="fill:url(#linearGradient4507);fill-opacity:1;stroke:none"
       d="m 395.09127,251.25 c 10.34158,4.28135 17.625,14.46017 17.625,26.34375 0,13.34043 -9.18268,3.82033 -21.5625,0.59375 5.2864,-2.8826 8.875,-8.49226 8.875,-14.9375 0,-4.67861 -1.87936,-8.9261 -4.9375,-12 z"
       id="path5535" />
    <rect
       y="205.18936"
       x="141.74243"
       height="31.383211"
       width="36.85321"
       id="rect5434"
       style="fill:url(#linearGradient4507);fill-opacity:1;stroke:url(#linearGradient4507);stroke-width:3.14678835999999995;stroke-linecap:round;stroke-linejoin:round;stroke-miterlimit:4;stroke-opacity:1;stroke-dasharray:none" />
    <g
       id="g4825"
       transform="translate(-163,-2.2395924)">
      <path
         style="fill:none;stroke:url(#linearGradient4381);stroke-width:2.36885071;stroke-linecap:butt;stroke-linejoin:miter;stroke-miterlimit:4;stroke-opacity:1;stroke-dasharray:none"
         d="m 324.20587,197.21734 0,14.55183"
         id="path4322-4"
         inkscape:connector-curvature="0"
         sodipodi:nodetypes="cc" />
      <path
         transform="matrix(0.37724913,0,0,0.37724913,255.35791,174.58519)"
         d="m 193.5,62.862183 c 0,6.075132 -4.92487,11 -11,11 -6.07513,0 -11,-4.924868 -11,-11 0,-6.075133 4.92487,-11 11,-11 6.07513,0 11,4.924867 11,11 z"
         sodipodi:ry="11"
         sodipodi:rx="11"
         sodipodi:cy="62.862183"
         sodipodi:cx="182.5"
         id="path3878"
         style="fill:url(#linearGradient4381);fill-opacity:1;stroke:none"
         sodipodi:type="arc" />
      <path
         sodipodi:type="arc"
         style="fill:url(#linearGradient4416);fill-opacity:1;stroke:none"
         id="path3880"
         sodipodi:cx="182.5"
         sodipodi:cy="62.862183"
         sodipodi:rx="11"
         sodipodi:ry="11"
         d="m 193.5,62.862183 c 0,6.075132 -4.92487,11 -11,11 -6.07513,0 -11,-4.924868 -11,-11 0,-6.075133 4.92487,-11 11,-11 6.07513,0 11,4.924867 11,11 z"
         transform="matrix(0.30008454,0,0,0.30008454,269.44045,179.43593)" />
      <path
         transform="matrix(0.19719841,0,0,0.19719841,288.21716,185.90357)"
         d="m 193.5,62.862183 c 0,6.075132 -4.92487,11 -11,11 -6.07513,0 -11,-4.924868 -11,-11 0,-6.075133 4.92487,-11 11,-11 6.07513,0 11,4.924867 11,11 z"
         sodipodi:ry="11"
         sodipodi:rx="11"
         sodipodi:cy="62.862183"
         sodipodi:cx="182.5"
         id="path3882"
         style="fill:url(#linearGradient4590);fill-opacity:1;stroke:none"
         sodipodi:type="arc" />
    </g>
    <path
       style="fill:none;stroke:url(#linearGradient4381);stroke-width:3.55299997;stroke-linecap:butt;stroke-linejoin:miter;stroke-miterlimit:4;stroke-opacity:1;stroke-dasharray:none"
       d="m 161.25,278.81288 c 6.8721,-12.07908 7.12695,-24.78838 0,-38.2007"
       id="path4539"
       inkscape:connector-curvature="0"
       sodipodi:nodetypes="cc" />
    <path
       sodipodi:nodetypes="cc"
       inkscape:connector-curvature="0"
       id="path4541"
       d="m 161.50008,278.81288 c -6.8721,-12.07908 -7.12695,-24.78838 0,-38.2007"
       style="fill:none;stroke:url(#linearGradient4381);stroke-width:3.55299997;stroke-linecap:butt;stroke-linejoin:miter;stroke-miterlimit:4;stroke-opacity:1;stroke-dasharray:none" />
    <rect
       style="fill:url(#linearGradient4528);fill-opacity:1;stroke:url(#linearGradient4528);stroke-width:3.14678836;stroke-linecap:round;stroke-linejoin:round;stroke-miterlimit:4;stroke-opacity:1;stroke-dasharray:none"
       id="rect5253"
       width="36.85321"
       height="31.383211"
       x="141.74243"
       y="215.18936" />
    <path
       style="fill:url(#linearGradient4381);fill-opacity:1;stroke:url(#linearGradient4381);stroke-width:2.62071037;stroke-linecap:round;stroke-linejoin:round;stroke-miterlimit:4;stroke-opacity:1;stroke-dasharray:none"
       d="m 79.5725,239.741 -1.56471,-2.88681 9.6773,-1.17237 1.07307,-8.05362 -9.08897,-3.62362 2.3155,-2.434 10.21527,4.89002 -1.49009,11.2287 z"
       id="path4091-8"
       inkscape:connector-curvature="0"
       sodipodi:nodetypes="ccccccccc" />
    <g
       id="g4148"
       transform="matrix(0.59221273,0,0,0.59221273,39.07016,113.8068)">
      <path
         inkscape:connector-curvature="0"
         id="path3897"
         d="m 163.88886,262.22416 c 0,-26.07156 -31.53818,5.04611 -46.256,-7.56916 -14.71782,-12.61527 15.55883,-12.19476 19.34341,-37.0048 3.78459,-24.81003 -47.93803,-16.82037 -47.93803,-16.82037"
         style="fill:none;stroke:url(#linearGradient4381);stroke-width:6;stroke-linecap:round;stroke-linejoin:miter;stroke-miterlimit:4;stroke-opacity:1;stroke-dasharray:none" />
      <path
         sodipodi:type="star"
         style="fill:#d4d4d4;fill-opacity:1;stroke:none"
         id="path4095"
         sodipodi:sides="5"
         sodipodi:cx="349.5"
         sodipodi:cy="105.36218"
         sodipodi:r1="8.93116"
         sodipodi:r2="7.2254605"
         sodipodi:arg1="0.78539816"
         sodipodi:arg2="1.4137167"
         inkscape:flatsided="true"
         inkscape:rounded="0"
         inkscape:randomized="0"
         d="m 355.81528,111.67747 -10.36994,1.64243 -4.76654,-9.35486 7.42406,-7.42406 9.35486,4.76654 z"
         inkscape:transform-center-x="0.14382538"
         inkscape:transform-center-y="-0.14382883"
         transform="matrix(0.33313064,0,0,0.33313064,-31.136803,165.76916)" />
    </g>
    <g
       id="g4143"
       transform="matrix(0.59221273,0,0,0.59221273,62.75867,113.8068)">
      <path
         style="fill:url(#linearGradient4381);fill-opacity:1;stroke:url(#linearGradient4381);stroke-width:4.42528534;stroke-linecap:round;stroke-linejoin:round;stroke-miterlimit:4;stroke-opacity:1;stroke-dasharray:none"
         d="m 302.87553,182.28374 1.24324,-5.40344 -16.27559,2.45963 -5.38057,-12.62026 13.15391,-9.99797 -4.86612,-2.91554 -14.41507,12.56688 7.49201,17.59843 z"
         id="path4091"
         inkscape:connector-curvature="0"
         sodipodi:nodetypes="ccccccccc" />
      <path
         sodipodi:nodetypes="cssc"
         inkscape:connector-curvature="0"
         id="path3893"
         d="m 203.83722,263.06518 c 40.36887,0 17.24087,-41.6304 29.01512,-50.8816 11.77426,-9.2512 36.58429,-1.26152 36.58429,-18.08189 0,-16.82036 12.60877,-18.94404 12.60877,-18.94404"
         style="fill:none;stroke:url(#linearGradient4381);stroke-width:5.99953318;stroke-linecap:round;stroke-linejoin:round;stroke-miterlimit:4;stroke-opacity:1;stroke-dasharray:none;marker-mid:none" />
      <path
         transform="matrix(0.33313064,0,0,0.33313064,166.08365,138.88044)"
         inkscape:transform-center-y="-0.1438262"
         inkscape:transform-center-x="0.1438289"
         d="m 355.81528,111.67747 -10.36994,1.64243 -4.76654,-9.35486 7.42406,-7.42406 9.35486,4.76654 z"
         inkscape:randomized="0"
         inkscape:rounded="0"
         inkscape:flatsided="true"
         sodipodi:arg2="1.4137167"
         sodipodi:arg1="0.78539816"
         sodipodi:r2="7.2254605"
         sodipodi:r1="8.93116"
         sodipodi:cy="105.36218"
         sodipodi:cx="349.5"
         sodipodi:sides="5"
         id="path4093"
         style="fill:#d4d4d4;fill-opacity:1;stroke:none"
         sodipodi:type="star" />
    </g>
    <path
       sodipodi:type="arc"
       style="fill:url(#linearGradient4381);fill-opacity:1;stroke:none"
       id="path3884"
       sodipodi:cx="178"
       sodipodi:cy="259.86218"
       sodipodi:rx="34"
       sodipodi:ry="34"
       d="m 212,259.86218 a 34,34 0 1 1 -68,0 34,34 0 1 1 68,0 z"
       transform="matrix(0.67842753,0,0,0.67842753,40.44577,104.80307)" />
    <path
       transform="matrix(0.20424609,0,0,0.20424609,124.85007,228.0249)"
       d="m 212,259.86218 a 34,34 0 1 1 -68,0 34,34 0 1 1 68,0 z"
       sodipodi:ry="34"
       sodipodi:rx="34"
       sodipodi:cy="259.86218"
       sodipodi:cx="178"
       id="path3889"
       style="fill:#d4d4d4;fill-opacity:1;stroke:none"
       sodipodi:type="arc" />
    <path
       style="fill:url(#linearGradient4528);fill-opacity:1;stroke:url(#linearGradient4461);stroke-width:0.08724029"
       d="m 164.17205,281.10073 c 0,1.63817 -1.328,2.96617 -2.96617,2.96617 -1.63817,0 -2.96617,-1.328 -2.96617,-2.96617 0,-1.63817 1.328,-2.96617 2.96617,-2.96617 1.63817,0 2.96617,1.328 2.96617,2.96617 z"
       id="path3891"
       inkscape:connector-curvature="0" />
    <path
       style="fill:url(#linearGradient4528);fill-opacity:1;stroke:none"
       d="m 189.71627,281.10074 c 0,15.74585 -12.76454,-0.3839 -28.51039,-0.3839 -15.74585,0 -28.51039,16.12975 -28.51039,0.3839 0,-15.74585 12.76454,-28.51039 28.51039,-28.51039 15.74585,0 28.51039,12.76454 28.51039,28.51039 z"
       id="path3886"
       inkscape:connector-curvature="0"
       sodipodi:nodetypes="sssss" />
    <path
       style="fill:url(#linearGradient4279);fill-opacity:1;stroke:none"
       d="m 150.3125,254.75 c -10.34158,4.28135 -17.625,14.46017 -17.625,26.34375 0,13.34043 9.18268,3.82033 21.5625,0.59375 -5.2864,-2.8826 -8.875,-8.49226 -8.875,-14.9375 0,-4.67861 1.87936,-8.9261 4.9375,-12 z"
       id="path4513"
       inkscape:connector-curvature="0" />
    <path
       id="path5260"
       d="m 178.59375,246.5625 0,-31.375 -5.36427,1.41421 0,25.64033 -29.83396,0 -1.64552,4.32046 z"
       style="fill:url(#linearGradient4507);fill-opacity:1;stroke:none"
       inkscape:connector-curvature="0"
       sodipodi:nodetypes="ccccccc" />
    <path
       style="fill:url(#linearGradient4279);fill-opacity:1;stroke:none"
       d="m 141.75,215.1875 0,24.13666 4.62859,-1.51928 0,-18.86233 21.94739,0 1.76777,-3.75505 z"
       id="rect5255"
       inkscape:connector-curvature="0"
       sodipodi:nodetypes="ccccccc" />
    <g
       id="g4439"
       transform="matrix(0.42076654,0,0,0.42076654,82.59601,152.28963)">
      <g
         transform="matrix(0.63701625,0,0,0.63701625,67.420483,86.510224)"
         id="g3864">
        <path
           transform="matrix(0.8247255,0,0,0.8247255,8.861665,26.608631)"
           d="m 187.88838,151.81119 c 0,15.06308 -12.21104,27.27412 -27.27412,27.27412 -15.06308,0 -27.27412,-12.21104 -27.27412,-27.27412 0,-15.06308 12.21104,-27.27412 27.27412,-27.27412 15.06308,0 27.27412,12.21104 27.27412,27.27412 z"
           sodipodi:ry="27.274118"
           sodipodi:rx="27.274118"
           sodipodi:cy="151.81119"
           sodipodi:cx="160.61426"
           id="path3812"
           style="fill:url(#linearGradient4381);fill-opacity:1;stroke:none"
           sodipodi:type="arc" />
        <path
           sodipodi:type="arc"
           style="fill:url(#linearGradient4416);fill-opacity:1;stroke:none"
           id="path3757"
           sodipodi:cx="160.61426"
           sodipodi:cy="151.81119"
           sodipodi:rx="27.274118"
           sodipodi:ry="27.274118"
           d="m 187.88838,151.81119 c 0,15.06308 -12.21104,27.27412 -27.27412,27.27412 -15.06308,0 -27.27412,-12.21104 -27.27412,-27.27412 0,-15.06308 12.21104,-27.27412 27.27412,-27.27412 15.06308,0 27.27412,12.21104 27.27412,27.27412 z"
           transform="matrix(0.63960863,0,0,0.63960863,38.594073,54.711442)" />
        <path
           transform="matrix(0.32453085,0,0,0.32453085,89.200056,102.54377)"
           d="m 187.88838,151.81119 c 0,15.06308 -12.21104,27.27412 -27.27412,27.27412 -15.06308,0 -27.27412,-12.21104 -27.27412,-27.27412 0,-15.06308 12.21104,-27.27412 27.27412,-27.27412 15.06308,0 27.27412,12.21104 27.27412,27.27412 z"
           sodipodi:ry="27.274118"
           sodipodi:rx="27.274118"
           sodipodi:cy="151.81119"
           sodipodi:cx="160.61426"
           id="path4592"
           style="fill:url(#linearGradient4586);fill-opacity:1;stroke:none"
           sodipodi:type="arc" />
      </g>
      <g
         transform="matrix(0.63701625,0,0,0.63701625,65.670483,86.510224)"
         id="g3860">
        <path
           sodipodi:type="arc"
           style="fill:url(#linearGradient4381);fill-opacity:1;stroke:none"
           id="path3820"
           sodipodi:cx="160.61426"
           sodipodi:cy="151.81119"
           sodipodi:rx="27.274118"
           sodipodi:ry="27.274118"
           d="m 187.88838,151.81119 c 0,15.06308 -12.21104,27.27412 -27.27412,27.27412 -15.06308,0 -27.27412,-12.21104 -27.27412,-27.27412 0,-15.06308 12.21104,-27.27412 27.27412,-27.27412 15.06308,0 27.27412,12.21104 27.27412,27.27412 z"
           transform="matrix(0.8247255,0,0,0.8247255,96.111665,26.608631)" />
        <path
           transform="matrix(0.63960863,0,0,0.63960863,125.84407,54.711442)"
           d="m 187.88838,151.81119 c 0,15.06308 -12.21104,27.27412 -27.27412,27.27412 -15.06308,0 -27.27412,-12.21104 -27.27412,-27.27412 0,-15.06308 12.21104,-27.27412 27.27412,-27.27412 15.06308,0 27.27412,12.21104 27.27412,27.27412 z"
           sodipodi:ry="27.274118"
           sodipodi:rx="27.274118"
           sodipodi:cy="151.81119"
           sodipodi:cx="160.61426"
           id="path3822"
           style="fill:url(#linearGradient4416);fill-opacity:1;stroke:none"
           sodipodi:type="arc" />
      </g>
      <path
         transform="matrix(0.20673142,0,0,0.20673142,178.07204,151.83228)"
         d="m 187.88838,151.81119 c 0,15.06308 -12.21104,27.27412 -27.27412,27.27412 -15.06308,0 -27.27412,-12.21104 -27.27412,-27.27412 0,-15.06308 12.21104,-27.27412 27.27412,-27.27412 15.06308,0 27.27412,12.21104 27.27412,27.27412 z"
         sodipodi:ry="27.274118"
         sodipodi:rx="27.274118"
         sodipodi:cy="151.81119"
         sodipodi:cx="160.61426"
         id="path4592-5"
         style="fill:url(#linearGradient4586-7);fill-opacity:1;stroke:none"
         sodipodi:type="arc" />
    </g>
    <path
       transform="matrix(0.33174314,0,0,0.33174314,45.40488,244.13056)"
       inkscape:transform-center-y="-0.14322225"
       inkscape:transform-center-x="0.14322133"
       d="m 355.81528,111.67747 -10.36994,1.64243 -4.76654,-9.35486 7.42406,-7.42406 9.35486,4.76654 z"
       inkscape:randomized="0"
       inkscape:rounded="0"
       inkscape:flatsided="true"
       sodipodi:arg2="1.4137167"
       sodipodi:arg1="0.78539816"
       sodipodi:r2="7.2254605"
       sodipodi:r1="8.93116"
       sodipodi:cy="105.36218"
       sodipodi:cx="349.5"
       sodipodi:sides="5"
       id="path4141"
       style="fill:#d4d4d4;fill-opacity:1;stroke:none"
       sodipodi:type="star" />
    <path
       id="path4537"
       d="m 172.09127,254.75 c 10.34158,4.28135 17.625,14.46017 17.625,26.34375 0,13.34043 -9.18268,3.82033 -21.5625,0.59375 5.2864,-2.8826 8.875,-8.49226 8.875,-14.9375 0,-4.67861 -1.87936,-8.9261 -4.9375,-12 z"
       style="fill:url(#linearGradient4507);fill-opacity:1;stroke:none"
       inkscape:connector-curvature="0" />
    <g
       id="g5539"
       transform="matrix(1,0,0,0.69307772,-5.5,76.359834)">
      <g
         transform="translate(113,-41)"
         id="g5412">
        <rect
           y="411.25238"
           x="321.77686"
           height="36.238209"
           width="36.85321"
           id="rect5288"
           style="fill:url(#linearGradient4528);fill-opacity:1;stroke:url(#linearGradient4528);stroke-width:3.38144398;stroke-linecap:round;stroke-linejoin:round;stroke-miterlimit:4;stroke-opacity:1;stroke-dasharray:none"
           transform="matrix(0.8660254,-0.5,0,1,0,0)" />
        <path
           sodipodi:nodetypes="ccccccc"
           inkscape:connector-curvature="0"
           style="fill:url(#linearGradient4279);fill-opacity:1;stroke:none"
           d="m 310.58111,268.16488 0,-36.22873 -4.6456,4.31512 0,29.6069 -25.83696,14.91698 -1.42506,5.8116 z"
           id="path5290" />
        <g
           id="g5350"
           transform="matrix(0.8660254,0.5,-1,0.57735027,264.11794,-43.626379)"
           style="stroke:none">
          <path
             style="fill:url(#linearGradient4528);fill-opacity:1;stroke:url(#linearGradient4528);stroke-width:3.14700007;stroke-linecap:round;stroke-linejoin:round;stroke-miterlimit:4;stroke-dasharray:none"
             d="m 263.49243,215.18936 36.85321,0 0,31.38321 -36.85321,0 z"
             id="rect5312"
             inkscape:connector-curvature="0" />
          <path
             sodipodi:nodetypes="ccccccc"
             inkscape:connector-curvature="0"
             id="path5316"
             d="m 263.5,215.1875 0,24.13666 4.62859,-1.51928 0,-18.86233 21.94739,0 1.76777,-3.75505 z"
             style="fill:url(#linearGradient4507);fill-opacity:1;stroke:none" />
        </g>
        <g
           transform="matrix(0,1,-1,-0.57735027,491.10807,111.4379)"
           id="g5355">
          <rect
             style="fill:url(#linearGradient4528);fill-opacity:1;stroke:url(#linearGradient4528);stroke-width:3.14678836;stroke-linecap:round;stroke-linejoin:round;stroke-miterlimit:4;stroke-opacity:1;stroke-dasharray:none"
             id="rect5357"
             width="36.85321"
             height="31.383211"
             x="263.49243"
             y="215.18936" />
          <path
             id="path5359"
             d="m 300.34375,246.5625 0,-31.375 -5.36427,1.41421 0,25.64033 -29.83396,0 -1.64552,4.32046 z"
             style="fill:url(#linearGradient4507);fill-opacity:1;stroke:none"
             inkscape:connector-curvature="0"
             sodipodi:nodetypes="ccccccc" />
        </g>
        <g
           transform="matrix(0.36439451,-0.21038327,0,0.48585933,227.44463,207.30682)"
           id="g5294">
          <g
             id="g5296"
             transform="matrix(0.63701625,0,0,0.63701625,67.420483,86.510224)">
            <path
               sodipodi:type="arc"
               style="fill:url(#linearGradient4381);fill-opacity:1;stroke:none"
               id="path5298"
               sodipodi:cx="160.61426"
               sodipodi:cy="151.81119"
               sodipodi:rx="27.274118"
               sodipodi:ry="27.274118"
               d="m 187.88838,151.81119 c 0,15.06308 -12.21104,27.27412 -27.27412,27.27412 -15.06308,0 -27.27412,-12.21104 -27.27412,-27.27412 0,-15.06308 12.21104,-27.27412 27.27412,-27.27412 15.06308,0 27.27412,12.21104 27.27412,27.27412 z"
               transform="matrix(0.8247255,0,0,0.8247255,8.861665,26.608631)" />
            <path
               transform="matrix(0.63960863,0,0,0.63960863,38.594073,54.711442)"
               d="m 187.88838,151.81119 c 0,15.06308 -12.21104,27.27412 -27.27412,27.27412 -15.06308,0 -27.27412,-12.21104 -27.27412,-27.27412 0,-15.06308 12.21104,-27.27412 27.27412,-27.27412 15.06308,0 27.27412,12.21104 27.27412,27.27412 z"
               sodipodi:ry="27.274118"
               sodipodi:rx="27.274118"
               sodipodi:cy="151.81119"
               sodipodi:cx="160.61426"
               id="path5300"
               style="fill:url(#linearGradient4416);fill-opacity:1;stroke:none"
               sodipodi:type="arc" />
            <path
               sodipodi:type="arc"
               style="fill:url(#linearGradient4586);fill-opacity:1;stroke:none"
               id="path5302"
               sodipodi:cx="160.61426"
               sodipodi:cy="151.81119"
               sodipodi:rx="27.274118"
               sodipodi:ry="27.274118"
               d="m 187.88838,151.81119 c 0,15.06308 -12.21104,27.27412 -27.27412,27.27412 -15.06308,0 -27.27412,-12.21104 -27.27412,-27.27412 0,-15.06308 12.21104,-27.27412 27.27412,-27.27412 15.06308,0 27.27412,12.21104 27.27412,27.27412 z"
               transform="matrix(0.32453085,0,0,0.32453085,89.200056,102.54377)" />
          </g>
          <g
             id="g5304"
             transform="matrix(0.63701625,0,0,0.63701625,65.670483,86.510224)">
            <path
               transform="matrix(0.8247255,0,0,0.8247255,96.111665,26.608631)"
               d="m 187.88838,151.81119 c 0,15.06308 -12.21104,27.27412 -27.27412,27.27412 -15.06308,0 -27.27412,-12.21104 -27.27412,-27.27412 0,-15.06308 12.21104,-27.27412 27.27412,-27.27412 15.06308,0 27.27412,12.21104 27.27412,27.27412 z"
               sodipodi:ry="27.274118"
               sodipodi:rx="27.274118"
               sodipodi:cy="151.81119"
               sodipodi:cx="160.61426"
               id="path5306"
               style="fill:url(#linearGradient4381);fill-opacity:1;stroke:none"
               sodipodi:type="arc" />
            <path
               sodipodi:type="arc"
               style="fill:url(#linearGradient4416);fill-opacity:1;stroke:none"
               id="path5308"
               sodipodi:cx="160.61426"
               sodipodi:cy="151.81119"
               sodipodi:rx="27.274118"
               sodipodi:ry="27.274118"
               d="m 187.88838,151.81119 c 0,15.06308 -12.21104,27.27412 -27.27412,27.27412 -15.06308,0 -27.27412,-12.21104 -27.27412,-27.27412 0,-15.06308 12.21104,-27.27412 27.27412,-27.27412 15.06308,0 27.27412,12.21104 27.27412,27.27412 z"
               transform="matrix(0.63960863,0,0,0.63960863,125.84407,54.711442)" />
          </g>
          <path
             sodipodi:type="arc"
             style="fill:url(#linearGradient4586-7);fill-opacity:1;stroke:none"
             id="path5310"
             sodipodi:cx="160.61426"
             sodipodi:cy="151.81119"
             sodipodi:rx="27.274118"
             sodipodi:ry="27.274118"
             d="m 187.88838,151.81119 c 0,15.06308 -12.21104,27.27412 -27.27412,27.27412 -15.06308,0 -27.27412,-12.21104 -27.27412,-27.27412 0,-15.06308 12.21104,-27.27412 27.27412,-27.27412 15.06308,0 27.27412,12.21104 27.27412,27.27412 z"
             transform="matrix(0.20673142,0,0,0.20673142,178.07204,151.83228)" />
        </g>
      </g>
      <path
         sodipodi:nodetypes="ccc"
         inkscape:connector-curvature="0"
         id="path5501"
         d="m 423.375,189.61218 -32.375,18.5 -32.9375,-18.875"
         style="fill:none;stroke:url(#linearGradient4279);stroke-width:1px;stroke-linecap:butt;stroke-linejoin:miter;stroke-opacity:1" />
      <path
         inkscape:connector-curvature="0"
         id="path5503"
         d="m 390.94166,208.34185 0,37.65344"
         style="fill:none;stroke:url(#linearGradient4279);stroke-width:1px;stroke-linecap:butt;stroke-linejoin:miter;stroke-opacity:1" />
    </g>
  </g>
</svg>
