<?xml version="1.0" encoding="UTF-8" standalone="no"?>
<!-- Created with Inkscape (http://www.inkscape.org/) -->

<svg
   xmlns:osb="http://www.openswatchbook.org/uri/2009/osb"
   xmlns:dc="http://purl.org/dc/elements/1.1/"
   xmlns:cc="http://creativecommons.org/ns#"
   xmlns:rdf="http://www.w3.org/1999/02/22-rdf-syntax-ns#"
   xmlns:svg="http://www.w3.org/2000/svg"
   xmlns="http://www.w3.org/2000/svg"
   xmlns:xlink="http://www.w3.org/1999/xlink"
   xmlns:sodipodi="http://sodipodi.sourceforge.net/DTD/sodipodi-0.dtd"
   xmlns:inkscape="http://www.inkscape.org/namespaces/inkscape"
   width="129.90381"
   height="137.5"
   id="svg8608"
   version="1.1"
   inkscape:version="0.48.5 r10040"
   inkscape:export-filename="/home/vg/Project/unjueyguito/assets/wall-y.png"
   inkscape:export-xdpi="90"
   inkscape:export-ydpi="90"
   sodipodi:docname="wall-y.svg">
  <defs
     id="defs8610">
    <linearGradient
       id="linearGradient10868"
       osb:paint="solid">
      <stop
         style="stop-color:#5f3909;stop-opacity:1;"
         offset="0"
         id="stop10870" />
    </linearGradient>
    <linearGradient
       inkscape:collect="always"
       xlink:href="#linearGradient8230"
       id="linearGradient8398"
       gradientUnits="userSpaceOnUse"
       gradientTransform="matrix(-1,0,0,1,121.25634,12.62499)"
       x1="21.650635"
       y1="2.3621831"
       x2="108.25318"
       y2="2.3621831" />
    <linearGradient
       id="linearGradient8230"
       osb:paint="solid"
       gradientTransform="matrix(-1,0,0,1,142.90698,-514.98738)">
      <stop
         style="stop-color:#f7b32f;stop-opacity:1;"
         offset="0"
         id="stop8232" />
    </linearGradient>
    <linearGradient
       id="linearGradient8224"
       osb:paint="solid"
       gradientTransform="translate(216.13134,35.249987)">
      <stop
         style="stop-color:#b46c10;stop-opacity:1;"
         offset="0"
         id="stop8226" />
    </linearGradient>
    <linearGradient
       id="linearGradient8759"
       osb:paint="solid"
       gradientTransform="matrix(-1,0,0,1,-103.52247,35.249987)">
      <stop
         style="stop-color:#633c0b;stop-opacity:1;"
         offset="0"
         id="stop8761" />
    </linearGradient>
    <linearGradient
       id="linearGradient8204"
       osb:paint="solid"
       gradientTransform="matrix(-1,0,0,1,-4888.3126,1185.25)">
      <stop
         style="stop-color:#c21cad;stop-opacity:1;"
         offset="0"
         id="stop8206" />
    </linearGradient>
    <linearGradient
       id="linearGradient8765"
       osb:paint="solid"
       gradientTransform="translate(5000.9215,1185.25)">
      <stop
         style="stop-color:#cb7a15;stop-opacity:1;"
         offset="0"
         id="stop8767" />
    </linearGradient>
    <linearGradient
       id="linearGradient8769"
       osb:paint="solid"
       gradientTransform="translate(5000.9215,1185.25)">
      <stop
         style="stop-color:#cb7a15;stop-opacity:1;"
         offset="0"
         id="stop8771" />
    </linearGradient>
    <linearGradient
       id="linearGradient8773"
       osb:paint="solid"
       gradientTransform="translate(5000.9215,1185.25)">
      <stop
         style="stop-color:#cb7a15;stop-opacity:1;"
         offset="0"
         id="stop8775" />
    </linearGradient>
    <linearGradient
       id="linearGradient8777"
       osb:paint="solid"
       gradientTransform="matrix(-1,0,0,1,-4845.0113,1185.25)">
      <stop
         style="stop-color:#b86f13;stop-opacity:1;"
         offset="0"
         id="stop8779" />
    </linearGradient>
    <linearGradient
       id="linearGradient8781"
       osb:paint="solid"
       gradientTransform="translate(5000.9215,1185.25)">
      <stop
         style="stop-color:#cb7a15;stop-opacity:1;"
         offset="0"
         id="stop8783" />
    </linearGradient>
    <linearGradient
       id="linearGradient8785"
       osb:paint="solid"
       gradientTransform="translate(5000.9215,1185.25)">
      <stop
         style="stop-color:#cb7a15;stop-opacity:1;"
         offset="0"
         id="stop8787" />
    </linearGradient>
    <linearGradient
       id="linearGradient8789"
       osb:paint="solid"
       gradientTransform="translate(5000.9215,1185.25)">
      <stop
         style="stop-color:#cb7a15;stop-opacity:1;"
         offset="0"
         id="stop8791" />
    </linearGradient>
    <linearGradient
       id="linearGradient8793"
       osb:paint="solid"
       gradientTransform="translate(5000.9215,1185.25)">
      <stop
         style="stop-color:#cb7a15;stop-opacity:1;"
         offset="0"
         id="stop8795" />
    </linearGradient>
    <linearGradient
       id="linearGradient8797"
       osb:paint="solid"
       gradientTransform="translate(5000.9215,1185.25)">
      <stop
         style="stop-color:#cb7a15;stop-opacity:1;"
         offset="0"
         id="stop8799" />
    </linearGradient>
    <linearGradient
       id="linearGradient8801"
       osb:paint="solid"
       gradientTransform="translate(5000.9215,1185.25)">
      <stop
         style="stop-color:#cb7a15;stop-opacity:1;"
         offset="0"
         id="stop8803" />
    </linearGradient>
    <linearGradient
       id="linearGradient8805"
       osb:paint="solid"
       gradientTransform="translate(5000.9215,1185.25)">
      <stop
         style="stop-color:#cb7a15;stop-opacity:1;"
         offset="0"
         id="stop8807" />
    </linearGradient>
    <linearGradient
       id="linearGradient8809"
       osb:paint="solid"
       gradientTransform="translate(5000.9215,1185.25)">
      <stop
         style="stop-color:#cb7a15;stop-opacity:1;"
         offset="0"
         id="stop8811" />
    </linearGradient>
    <linearGradient
       id="linearGradient8813"
       osb:paint="solid"
       gradientTransform="translate(5000.9215,1185.25)">
      <stop
         style="stop-color:#cb7a15;stop-opacity:1;"
         offset="0"
         id="stop8815" />
    </linearGradient>
    <linearGradient
       id="linearGradient8817"
       osb:paint="solid"
       gradientTransform="translate(5000.9215,1185.25)">
      <stop
         style="stop-color:#cb7a15;stop-opacity:1;"
         offset="0"
         id="stop8819" />
    </linearGradient>
    <linearGradient
       id="linearGradient8821"
       osb:paint="solid"
       gradientTransform="translate(5000.9215,1185.25)">
      <stop
         style="stop-color:#cb7a15;stop-opacity:1;"
         offset="0"
         id="stop8823" />
    </linearGradient>
    <linearGradient
       id="linearGradient8825"
       osb:paint="solid"
       gradientTransform="translate(5000.9215,1185.25)">
      <stop
         style="stop-color:#cb7a15;stop-opacity:1;"
         offset="0"
         id="stop8827" />
    </linearGradient>
    <linearGradient
       id="linearGradient8829"
       osb:paint="solid"
       gradientTransform="translate(5000.9215,1185.25)">
      <stop
         style="stop-color:#cb7a15;stop-opacity:1;"
         offset="0"
         id="stop8831" />
    </linearGradient>
    <linearGradient
       id="linearGradient8833"
       osb:paint="solid"
       gradientTransform="translate(5000.9215,1185.25)">
      <stop
         style="stop-color:#cb7a15;stop-opacity:1;"
         offset="0"
         id="stop8835" />
    </linearGradient>
    <linearGradient
       id="linearGradient8837"
       osb:paint="solid"
       gradientTransform="translate(5000.9215,1185.25)">
      <stop
         style="stop-color:#cb7a15;stop-opacity:1;"
         offset="0"
         id="stop8839" />
    </linearGradient>
    <linearGradient
       id="linearGradient8841"
       osb:paint="solid"
       gradientTransform="translate(5000.9215,1185.25)">
      <stop
         style="stop-color:#cb7a15;stop-opacity:1;"
         offset="0"
         id="stop8843" />
    </linearGradient>
  </defs>
  <sodipodi:namedview
     id="base"
     pagecolor="#ffffff"
     bordercolor="#666666"
     borderopacity="1.0"
     inkscape:pageopacity="0.0"
     inkscape:pageshadow="2"
     inkscape:zoom="2.8284271"
     inkscape:cx="-21.766041"
     inkscape:cy="63.252376"
     inkscape:document-units="px"
     inkscape:current-layer="g8348"
     showgrid="true"
     fit-margin-top="0"
     fit-margin-left="0"
     fit-margin-right="0"
     fit-margin-bottom="0"
     inkscape:window-width="1366"
     inkscape:window-height="724"
     inkscape:window-x="0"
     inkscape:window-y="-5"
     inkscape:window-maximized="1">
    <inkscape:grid
       type="axonomgrid"
       id="grid11679"
       units="px"
       empspacing="5"
       visible="true"
       enabled="true"
       snapvisiblegridlinesonly="true"
       spacingy="5px"
       originx="43.30127px"
       originy="-12.499996px" />
  </sodipodi:namedview>
  <metadata
     id="metadata8613">
    <rdf:RDF>
      <cc:Work
         rdf:about="">
        <dc:format>image/svg+xml</dc:format>
        <dc:type
           rdf:resource="http://purl.org/dc/dcmitype/StillImage" />
        <dc:title></dc:title>
      </cc:Work>
    </rdf:RDF>
  </metadata>
  <g
     inkscape:label="Layer 1"
     inkscape:groupmode="layer"
     id="layer1"
     transform="translate(35.06813,26.685343)">
    <g
       transform="translate(-26.42067,-16.672514)"
       id="g8348">
      <path
         style="fill:url(#linearGradient8204);stroke:none"
         d="m 56.304445,52.48717 64.951905,37.5 -64.951905,37.5 -64.9519052,-37.5 z"
         id="path11681"
         inkscape:connector-curvature="0" />
      <path
         style="fill:url(#linearGradient8398);fill-opacity:1;stroke:none"
         d="M 77.95508,39.987171 34.65381,14.987167 56.304455,2.4871676 99.605715,27.48717 z"
         id="path8350"
         inkscape:connector-curvature="0"
         sodipodi:nodetypes="ccccc" />
      <path
         style="fill:url(#linearGradient8224);fill-opacity:1;stroke:none"
         d="m 77.95508,39.987171 0,74.999999 -43.30127,-25.000003 0,-74.999996 z"
         id="path8352"
         inkscape:connector-curvature="0"
         sodipodi:nodetypes="ccccc" />
      <path
         style="fill:url(#linearGradient8759);fill-opacity:1;stroke:none"
         d="m 99.605715,27.48717 0,75.00001 -21.650635,12.49999 0,-74.999999 z"
         id="path8354"
         inkscape:connector-curvature="0"
         sodipodi:nodetypes="ccccc" />
      <path
         style="fill:url(#linearGradient8230);stroke:none"
         d="M 43.3125 29.5625 L 43.3125 39.59375 C 43.937057 39.845268 44.403364 39.883657 44.53125 39.5 C 44.804085 38.681495 44.012136 37.538229 44.40625 36.75 C 45.139 35.284501 45.15625 35.544887 45.15625 34 C 45.15625 33.045258 47.786282 32.239189 46.65625 30.625 C 45.540133 30.252961 44.429814 29.909001 43.3125 29.5625 z M 49.65625 32.5 C 49.327567 32.664342 51.573386 35.125 50.90625 35.125 C 50.155609 35.125 49.599423 33.653413 48.90625 34 C 48.815796 34.045227 47.80644 37.450561 47.90625 37.75 C 48.040669 38.153258 49.168696 38.543831 48.78125 39.125 C 47.796435 40.602222 47.120851 39.428466 45.78125 39.875 C 45.189363 40.072295 45.918311 42.37902 46.28125 42.5 C 48.312946 43.177232 48.576742 44.390164 49.28125 44.625 C 50.683035 45.092262 53.623616 43.233683 55.40625 44.125 C 56.132482 44.488116 56.125711 46.031487 56.78125 46.25 C 58.240464 46.736405 62.07037 49.04294 63.65625 48.25 C 63.773545 48.191352 61.950477 40.646678 64.28125 39.75 C 61.526583 39.199067 50.464483 32.095883 49.65625 32.5 z M 66.28125 39.75 C 65.243176 39.75 65.40625 48.230108 65.40625 49.375 C 65.40625 52.723588 66.682851 51.175534 68.78125 51.875 C 69.745791 52.196514 70.006252 53.550001 70.65625 53.875 C 72.379577 54.736664 75.00958 54.176665 76.90625 55.125 C 79.919226 56.631488 79.702548 60.682099 81.78125 61.375 C 82.102706 61.482152 85.567922 61.514983 85.65625 61.25 C 86.490756 58.746482 86.20824 53.759952 85.65625 51 C 85.25005 49.482206 79.139911 47.75 77.53125 47.75 C 76.243688 47.75 74.199837 48.334294 73.03125 47.75 C 70.613092 46.540921 69.718825 39.75 66.28125 39.75 z M 43.3125 42.46875 L 43.3125 54.1875 C 44.589401 54.508389 46.037069 54.809591 46.15625 54.75 C 46.981617 54.337316 47.40625 52.934918 47.40625 52.125 C 47.40625 50.756595 49.531714 53.623608 50.03125 52.125 C 50.440677 50.89672 48.035246 50.363011 48.65625 48.5 C 48.772428 48.151466 50.828732 47.9078 51.96875 47.625 C 50.173512 47.721054 46.537248 45.019942 43.3125 42.46875 z M 52.375 44.28125 C 52.230402 44.277238 52.094834 44.289737 51.96875 44.3125 C 51.632526 44.373202 51.388848 44.552205 51.28125 44.875 C 51.139368 45.300646 58.046212 50.875 56.28125 50.875 C 54.369118 50.875 51.836421 48.097415 50.28125 48.875 C 49.875123 49.078064 52.592089 51.253321 51.78125 52.875 C 51.267317 53.902866 48.445074 54.577649 49.40625 56.5 C 49.743706 57.174912 51.507823 58.925787 52.15625 59.25 C 52.875527 59.60964 53.929874 59.261812 54.65625 59.625 C 55.614225 60.103988 56.19531 61.39453 57.15625 61.875 C 58.651919 62.622834 60.67517 63.58964 62.28125 64.125 C 63.262611 64.45212 63.965301 65.904526 64.90625 66.375 C 65.613654 66.728702 66.743631 66.433254 67.40625 66.875 C 68.232027 67.425518 68.97899 68.565914 69.90625 68.875 C 70.871053 69.196601 71.969393 68.395619 72.78125 68.125 C 72.991751 68.054833 72.436044 59.670041 73.21875 57.09375 C 72.844895 56.694663 72.764202 55.616477 72.28125 55.375 C 71.427739 54.948244 70.144105 54.616904 69.40625 54.125 C 66.058871 51.893414 62.470269 48.859755 58.53125 47.875 C 57.366732 47.58387 56.295266 45.694508 55.15625 45.125 C 54.759506 44.926629 53.387185 44.309332 52.375 44.28125 z M 73.21875 57.09375 C 73.305024 57.185847 73.404931 57.25 73.53125 57.25 C 73.825878 57.25 73.60781 56.665619 73.65625 56.375 C 73.484369 56.464213 73.330565 56.725708 73.21875 57.09375 z M 43.3125 55.4375 L 43.3125 65.40625 C 44.023477 65.925649 44.579945 66.307898 44.78125 66.375 C 45.551433 66.6317 46.890752 66.304751 47.53125 66.625 C 48.741789 67.23027 50.324296 69.043046 51.28125 70 C 52.552097 71.270847 55.566244 71.569988 56.28125 73 C 56.767758 73.973016 58.101723 73.765946 58.53125 74.625 C 58.749354 75.061208 59.03125 76.487696 59.03125 76 C 59.03125 74.623005 58.822692 71.792116 59.40625 70.625 C 59.996375 69.444748 59.34204 66.258918 60.71875 66 C 57.573703 65.839509 56.132488 63.238119 53.65625 62 C 51.89963 61.12169 50.000433 60.739728 48.15625 60.125 C 46.75229 59.657013 45.621395 56.401469 43.3125 55.4375 z M 75.28125 58.75 C 75.334782 58.987778 75.422986 59.168927 75.53125 59.3125 C 76.051384 59.010904 76.375615 58.75 75.28125 58.75 z M 75.53125 59.3125 C 75.139579 59.539608 74.640668 59.781164 74.53125 60 C 73.881147 61.300206 74.366536 66.130859 74.78125 67.375 C 75.386354 69.190314 82.345059 73.038735 84.5 72.5 C 85.018118 72.370471 84.567863 70.739275 84.75 70.375 C 87.709698 64.455603 84.032084 64.792223 80.78125 62.625 C 79.798042 61.969528 79.326872 60.710311 78.15625 60.125 C 77.318358 59.706054 76.099379 60.065918 75.53125 59.3125 z M 64.21875 68.03125 C 64.145152 68.02924 64.070919 68.044853 64 68.0625 C 63.738146 68.127658 63.485132 68.342236 63.28125 68.75 C 62.436572 70.439355 62.057488 73.927476 62.90625 75.625 C 63.519834 76.852168 65.736272 76.727511 66.78125 77.25 C 67.210155 77.464453 68.376509 80.190519 68.65625 80.75 C 69.052602 81.542705 79.9372 86.5 81.15625 86.5 C 82.927015 86.5 82.432044 75.498016 82.78125 74.625 C 80.251932 74.405786 76.020054 70.386196 74.15625 72.25 C 73.229011 73.177239 71.715328 71.206052 71.03125 70.75 C 70.229675 70.215617 68.312948 70.7189 67.28125 70.375 C 66.691378 70.178376 65.322719 68.061404 64.21875 68.03125 z M 43.3125 70.25 L 43.3125 79.34375 C 43.492756 79.429126 43.756934 79.550342 43.90625 79.625 C 44.767779 80.055765 44.922095 81.713615 45.78125 82 C 46.443694 82.220815 47.885224 82.010513 48.40625 81.75 C 49.562121 81.172064 48.813001 79.061498 49.28125 78.125 C 49.965024 76.757453 52.47478 76.910759 51.53125 74.375 C 50.066637 74.082078 43.920436 70.122008 43.3125 70.25 z M 56.03125 76.75 C 55.566679 76.982286 55.18493 77.61783 54.65625 77.75 C 54.269706 77.846636 53.576699 77.863653 53.40625 78.375 C 53.088075 79.329524 53.572497 80.627519 53.40625 81.625 C 53.218071 82.754074 51.511622 83.960748 52.15625 85.25 C 52.944863 86.82723 54.141289 85.49252 55.40625 86.125 C 56.68092 86.76234 57.755992 87.98737 59.03125 88.625 C 59.513923 88.86634 61.395268 88.22804 61.65625 88.75 C 62.036175 89.50985 62.95983 91.43453 63.90625 91.75 C 64.951946 92.09857 69.734039 95.14861 70.28125 94.875 C 71.434952 94.29815 69.926714 90.56139 69.65625 89.75 C 68.89019 87.45182 71.40625 87.77489 71.40625 86.375 C 71.40625 85.624 70.34712 86.2011 69.90625 86.125 C 69.177159 85.2136 68.132644 85.45047 67.15625 85.125 C 65.849496 84.689418 65.330418 83.049168 64.53125 82.25 C 62.769133 80.487883 61.340611 80.956241 59.53125 79.75 C 59.027719 79.414313 56.313646 76.608802 56.03125 76.75 z M 44.21875 82.96875 C 43.922265 82.936447 43.624682 83.022243 43.3125 83.15625 L 43.3125 93.625 C 45.341316 95.064943 47.523927 96.46509 48.40625 96.90625 C 48.836741 97.12149 50.789964 96.02776 51.25 95.84375 C 55.10376 94.30224 55.305357 94.93104 54.78125 90.1875 C 50.728303 88.56632 48.60443 85.052214 44.6875 83.09375 C 44.533282 83.016641 44.381766 82.986511 44.21875 82.96875 z M 74.25 86.59375 C 74.063166 86.598999 73.871044 86.642604 73.65625 86.75 C 73.302887 86.92668 73.580498 88.15151 73.40625 88.5 C 73.138158 89.03619 72.552823 88.95686 72.28125 89.5 C 71.670512 90.72148 73.600108 93.34957 73.15625 95.125 C 72.995144 95.76943 72.267036 96.20736 72.53125 97 C 73.09752 98.69882 75.679631 98.26169 76.90625 98.875 C 82.608702 101.72622 84.65625 104.55613 84.65625 94.875 C 84.65625 93.1693 84.1952 91.65216 84.28125 90 C 82.912627 90.27373 82.459545 89.41958 81.28125 89.125 C 80.056436 88.8188 78.288441 89.7536 77.03125 89.125 C 76.241509 88.73013 75.557837 86.557006 74.25 86.59375 z M 59.59375 91.59375 C 59.188716 91.613484 58.755903 91.715799 58.3125 91.9375 C 55.834816 93.17634 57.259396 95.03901 56.375 97.25 C 55.618977 99.14006 53.870234 99.0768 53.1875 101.125 C 52.520483 103.12605 61.784424 99.76404 62.5625 99.375 C 63.702912 98.8048 62.750843 96.07263 63.4375 95.84375 C 64.234231 95.57817 65.327875 96.1778 66.09375 95.65625 C 64.365952 95.65625 62.428985 91.455609 59.59375 91.59375 z M 65.21875 97.96875 C 64.498951 98.32865 65.21875 104.50933 65.21875 105.5625 C 65.21875 106.0963 64.577554 106.7801 64.84375 107.3125 C 65.433582 108.49216 80.744369 116.69876 81.8125 114.5625 C 82.224201 113.7391 81.8125 111.62843 81.8125 110.6875 C 81.8125 108.85414 83.545965 107.33344 82.1875 105.5625 C 78.814278 106.23714 65.696078 97.73009 65.21875 97.96875 z "
         transform="translate(-8.64746,-10.012829)"
         id="path8356" />
    </g>
  </g>
</svg>
