<?xml version="1.0" encoding="UTF-8" standalone="no"?>
<!-- Created with Inkscape (http://www.inkscape.org/) -->

<svg
   xmlns:osb="http://www.openswatchbook.org/uri/2009/osb"
   xmlns:dc="http://purl.org/dc/elements/1.1/"
   xmlns:cc="http://creativecommons.org/ns#"
   xmlns:rdf="http://www.w3.org/1999/02/22-rdf-syntax-ns#"
   xmlns:svg="http://www.w3.org/2000/svg"
   xmlns="http://www.w3.org/2000/svg"
   xmlns:xlink="http://www.w3.org/1999/xlink"
   xmlns:sodipodi="http://sodipodi.sourceforge.net/DTD/sodipodi-0.dtd"
   xmlns:inkscape="http://www.inkscape.org/namespaces/inkscape"
   width="129.90381"
   height="137.5"
   id="svg8608"
   version="1.1"
   inkscape:version="0.48.5 r10040"
   inkscape:export-filename="/home/vg/Project/unjueyguito/assets/wall-y.png"
   inkscape:export-xdpi="90"
   inkscape:export-ydpi="90"
   sodipodi:docname="wall-y.svg">
  <defs
     id="defs8610">
    <linearGradient
       id="linearGradient10868"
       osb:paint="solid">
      <stop
         style="stop-color:#5f3909;stop-opacity:1;"
         offset="0"
         id="stop10870" />
    </linearGradient>
    <linearGradient
       inkscape:collect="always"
       xlink:href="#linearGradient8230"
       id="linearGradient8398"
       gradientUnits="userSpaceOnUse"
       gradientTransform="matrix(-1,0,0,1,121.25634,12.62499)"
       x1="21.650635"
       y1="2.3621831"
       x2="108.25318"
       y2="2.3621831" />
    <linearGradient
       id="linearGradient8230"
       osb:paint="solid">
      <stop
         style="stop-color:#f7b32f;stop-opacity:1;"
         offset="0"
         id="stop8232" />
    </linearGradient>
    <linearGradient
       id="linearGradient8224"
       osb:paint="solid"
       gradientTransform="translate(216.13134,35.249987)">
      <stop
         style="stop-color:#b46c10;stop-opacity:1;"
         offset="0"
         id="stop8226" />
    </linearGradient>
    <linearGradient
       id="linearGradient8759"
       osb:paint="solid"
       gradientTransform="matrix(-1,0,0,1,-103.52247,35.249987)">
      <stop
         style="stop-color:#633c0b;stop-opacity:1;"
         offset="0"
         id="stop8761" />
    </linearGradient>
    <linearGradient
       id="linearGradient8204"
       osb:paint="solid"
       gradientTransform="matrix(-1,0,0,1,-4888.3126,1185.25)">
      <stop
         style="stop-color:#c21cad;stop-opacity:1;"
         offset="0"
         id="stop8206" />
    </linearGradient>
    <linearGradient
       id="linearGradient8765"
       osb:paint="solid"
       gradientTransform="translate(5000.9215,1185.25)">
      <stop
         style="stop-color:#cb7a15;stop-opacity:1;"
         offset="0"
         id="stop8767" />
    </linearGradient>
    <linearGradient
       id="linearGradient8769"
       osb:paint="solid"
       gradientTransform="translate(5000.9215,1185.25)">
      <stop
         style="stop-color:#cb7a15;stop-opacity:1;"
         offset="0"
         id="stop8771" />
    </linearGradient>
    <linearGradient
       id="linearGradient8773"
       osb:paint="solid"
       gradientTransform="translate(5000.9215,1185.25)">
      <stop
         style="stop-color:#cb7a15;stop-opacity:1;"
         offset="0"
         id="stop8775" />
    </linearGradient>
    <linearGradient
       id="linearGradient8777"
       osb:paint="solid"
       gradientTransform="matrix(-1,0,0,1,-4845.0113,1185.25)">
      <stop
         style="stop-color:#b86f13;stop-opacity:1;"
         offset="0"
         id="stop8779" />
    </linearGradient>
    <linearGradient
       id="linearGradient8781"
       osb:paint="solid"
       gradientTransform="translate(5000.9215,1185.25)">
      <stop
         style="stop-color:#cb7a15;stop-opacity:1;"
         offset="0"
         id="stop8783" />
    </linearGradient>
    <linearGradient
       id="linearGradient8785"
       osb:paint="solid"
       gradientTransform="translate(5000.9215,1185.25)">
      <stop
         style="stop-color:#cb7a15;stop-opacity:1;"
         offset="0"
         id="stop8787" />
    </linearGradient>
    <linearGradient
       id="linearGradient8789"
       osb:paint="solid"
       gradientTransform="translate(5000.9215,1185.25)">
      <stop
         style="stop-color:#cb7a15;stop-opacity:1;"
         offset="0"
         id="stop8791" />
    </linearGradient>
    <linearGradient
       id="linearGradient8793"
       osb:paint="solid"
       gradientTransform="translate(5000.9215,1185.25)">
      <stop
         style="stop-color:#cb7a15;stop-opacity:1;"
         offset="0"
         id="stop8795" />
    </linearGradient>
    <linearGradient
       id="linearGradient8797"
       osb:paint="solid"
       gradientTransform="translate(5000.9215,1185.25)">
      <stop
         style="stop-color:#cb7a15;stop-opacity:1;"
         offset="0"
         id="stop8799" />
    </linearGradient>
    <linearGradient
       id="linearGradient8801"
       osb:paint="solid"
       gradientTransform="translate(5000.9215,1185.25)">
      <stop
         style="stop-color:#cb7a15;stop-opacity:1;"
         offset="0"
         id="stop8803" />
    </linearGradient>
    <linearGradient
       id="linearGradient8805"
       osb:paint="solid"
       gradientTransform="translate(5000.9215,1185.25)">
      <stop
         style="stop-color:#cb7a15;stop-opacity:1;"
         offset="0"
         id="stop8807" />
    </linearGradient>
    <linearGradient
       id="linearGradient8809"
       osb:paint="solid"
       gradientTransform="translate(5000.9215,1185.25)">
      <stop
         style="stop-color:#cb7a15;stop-opacity:1;"
         offset="0"
         id="stop8811" />
    </linearGradient>
    <linearGradient
       id="linearGradient8813"
       osb:paint="solid"
       gradientTransform="translate(5000.9215,1185.25)">
      <stop
         style="stop-color:#cb7a15;stop-opacity:1;"
         offset="0"
         id="stop8815" />
    </linearGradient>
    <linearGradient
       id="linearGradient8817"
       osb:paint="solid"
       gradientTransform="translate(5000.9215,1185.25)">
      <stop
         style="stop-color:#cb7a15;stop-opacity:1;"
         offset="0"
         id="stop8819" />
    </linearGradient>
    <linearGradient
       id="linearGradient8821"
       osb:paint="solid"
       gradientTransform="translate(5000.9215,1185.25)">
      <stop
         style="stop-color:#cb7a15;stop-opacity:1;"
         offset="0"
         id="stop8823" />
    </linearGradient>
    <linearGradient
       id="linearGradient8825"
       osb:paint="solid"
       gradientTransform="translate(5000.9215,1185.25)">
      <stop
         style="stop-color:#cb7a15;stop-opacity:1;"
         offset="0"
         id="stop8827" />
    </linearGradient>
    <linearGradient
       id="linearGradient8829"
       osb:paint="solid"
       gradientTransform="translate(5000.9215,1185.25)">
      <stop
         style="stop-color:#cb7a15;stop-opacity:1;"
         offset="0"
         id="stop8831" />
    </linearGradient>
    <linearGradient
       id="linearGradient8833"
       osb:paint="solid"
       gradientTransform="translate(5000.9215,1185.25)">
      <stop
         style="stop-color:#cb7a15;stop-opacity:1;"
         offset="0"
         id="stop8835" />
    </linearGradient>
    <linearGradient
       id="linearGradient8837"
       osb:paint="solid"
       gradientTransform="translate(5000.9215,1185.25)">
      <stop
         style="stop-color:#cb7a15;stop-opacity:1;"
         offset="0"
         id="stop8839" />
    </linearGradient>
    <linearGradient
       id="linearGradient8841"
       osb:paint="solid"
       gradientTransform="translate(5000.9215,1185.25)">
      <stop
         style="stop-color:#cb7a15;stop-opacity:1;"
         offset="0"
         id="stop8843" />
    </linearGradient>
  </defs>
  <sodipodi:namedview
     id="base"
     pagecolor="#ffffff"
     bordercolor="#666666"
     borderopacity="1.0"
     inkscape:pageopacity="0.0"
     inkscape:pageshadow="2"
     inkscape:zoom="2"
     inkscape:cx="24.234188"
     inkscape:cy="76.911192"
     inkscape:document-units="px"
     inkscape:current-layer="g8348"
     showgrid="true"
     fit-margin-top="0"
     fit-margin-left="0"
     fit-margin-right="0"
     fit-margin-bottom="0"
     inkscape:window-width="1366"
     inkscape:window-height="724"
     inkscape:window-x="0"
     inkscape:window-y="-5"
     inkscape:window-maximized="1">
    <inkscape:grid
       type="axonomgrid"
       id="grid11679"
       units="px"
       empspacing="5"
       visible="true"
       enabled="true"
       snapvisiblegridlinesonly="true"
       spacingy="5px"
       originx="43.30127px"
       originy="-12.499996px" />
  </sodipodi:namedview>
  <metadata
     id="metadata8613">
    <rdf:RDF>
      <cc:Work
         rdf:about="">
        <dc:format>image/svg+xml</dc:format>
        <dc:type
           rdf:resource="http://purl.org/dc/dcmitype/StillImage" />
        <dc:title />
      </cc:Work>
    </rdf:RDF>
  </metadata>
  <g
     inkscape:label="Layer 1"
     inkscape:groupmode="layer"
     id="layer1"
     transform="translate(35.06813,26.685343)">
    <g
       transform="translate(-26.42067,-16.672514)"
       id="g8348">
      <path
         style="fill:url(#linearGradient8398);fill-opacity:1;stroke:none"
         d="M 77.95508,39.987171 13.003165,2.4871704 34.65381,-10.012829 99.605715,27.48717 z"
         id="path8350"
         inkscape:connector-curvature="0" />
      <path
         style="fill:url(#linearGradient8224);fill-opacity:1;stroke:none"
         d="m 77.95508,39.987171 0,74.999999 -64.951915,-37.500004 0,-74.9999956 z"
         id="path8352"
         inkscape:connector-curvature="0"
         sodipodi:nodetypes="ccccc" />
      <path
         style="fill:url(#linearGradient8759);fill-opacity:1;stroke:none"
         d="m 99.605715,27.48717 0,75.00001 -21.650635,12.49999 0,-74.999999 z"
         id="path8354"
         inkscape:connector-curvature="0"
         sodipodi:nodetypes="ccccc" />
      <g
         id="g10874"
         transform="matrix(-1,0,0,1,134.25952,-25.00001)"
         style="fill:url(#linearGradient8230)">
        <path
           inkscape:connector-curvature="0"
           id="path8356"
           d="m 57.253175,65.987183 c 0.4062,-1.517794 6.516339,-3.25 8.125,-3.25 1.287562,0 3.331413,0.584294 4.5,0 2.418158,-1.209079 3.312425,-8 6.75,-8 1.038074,0 0.875,8.480108 0.875,9.625 0,3.348588 -1.276601,1.800534 -3.375,2.5 -0.964541,0.321514 -1.225002,1.675001 -1.875,2 -1.723327,0.861664 -4.35333,0.301665 -6.25,1.25 -3.012976,1.506488 -2.796298,5.557099 -4.875,6.25 -0.321456,0.107152 -3.786672,0.139983 -3.875,-0.125 -0.834506,-2.503518 -0.55199,-7.490048 0,-10.25 z"
           style="fill:url(#linearGradient8230);stroke:none" />
        <path
           inkscape:connector-curvature="0"
           id="path8358"
           d="m 69.253175,71.362183 c 1.375051,0.713708 0.634427,11.669809 0.875,11.75 0.811857,0.270619 1.910197,1.071601 2.875,0.75 0.92726,-0.309086 1.674223,-1.449482 2.5,-2 0.662619,-0.441746 1.792596,-0.146298 2.5,-0.5 0.940949,-0.470474 1.643639,-1.92288 2.625,-2.25 1.60608,-0.53536 3.629331,-1.502166 5.125,-2.25 0.96094,-0.48047 1.542025,-1.771012 2.5,-2.25 0.726376,-0.363188 1.780723,-0.01536 2.5,-0.375 0.648427,-0.324213 2.412544,-2.075088 2.75,-2.75 0.961176,-1.922351 -1.861067,-2.597134 -2.375,-3.625 -0.810839,-1.621679 1.906127,-3.796936 1.5,-4 -1.555171,-0.777585 -4.087868,2 -6,2 -1.764962,0 5.141882,-5.574354 5,-6 -0.430393,-1.29118 -3.270437,-0.05228 -3.875,0.25 -1.139016,0.569508 -2.210482,2.45887 -3.375,2.75 -3.939019,0.984755 -7.527621,4.018414 -10.875,6.25 -0.737855,0.491904 -2.021489,0.823244 -2.875,1.25 -0.594403,0.297202 -0.576297,1.875 -1.25,1.875 -0.294628,0 -0.07656,-0.584381 -0.125,-0.875 z"
           style="fill:url(#linearGradient8230);stroke:none" />
        <path
           inkscape:connector-curvature="0"
           id="path8360"
           d="m 78.628175,54.737183 c 2.330773,0.896678 0.507705,8.441352 0.625,8.5 1.58588,0.79294 5.415786,-1.513595 6.875,-2 0.655539,-0.218513 0.648768,-1.761884 1.375,-2.125 1.782634,-0.891317 4.723215,0.967262 6.125,0.5 0.704508,-0.234836 0.968304,-1.447768 3,-2.125 0.362939,-0.12098 1.091887,-2.427705 0.5,-2.625 -1.339601,-0.446534 -2.015185,0.727222 -3,-0.75 -0.387446,-0.581169 0.740581,-0.971742 0.875,-1.375 0.09981,-0.299439 -0.909546,-3.704773 -1,-3.75 -0.693173,-0.346587 -1.249359,1.125 -2,1.125 -0.667136,0 1.578683,-2.460658 1.25,-2.625 -0.808233,-0.404117 -11.870333,6.699067 -14.625,7.25 z"
           style="fill:url(#linearGradient8230);stroke:none" />
        <path
           inkscape:connector-curvature="0"
           id="path8362"
           d="m 96.253175,45.612183 c -1.130032,1.614189 1.5,2.420258 1.5,3.375 0,1.544887 0.01725,1.284501 0.75,2.75 0.394114,0.788229 -0.397835,1.931495 -0.125,2.75 0.60286,1.80858 8.220015,-5.073339 8.750005,-5.25 1.0465,-0.348836 4.67914,-1.358291 5.125,-2.25 0.51645,-1.032911 -3.60627,-0.662463 -3.25,-1.375 0.35968,-0.719374 1.59118,-0.432362 1.875,-1 0.86966,-1.739319 -1.34698,-0.943946 -1.625,-1.5 -0.7261,-1.452187 2.8027,-3.25 -1,-3.25 -2.83852,0 -2.3705,2.665165 -4.125,3.25 -2.60314,0.867711 -5.246618,1.623871 -7.875005,2.5 z"
           style="fill:url(#linearGradient8230);stroke:none" />
        <path
           inkscape:connector-curvature="0"
           id="path8364"
           d="m 117.62818,35.237183 c 1.79899,1.988864 0.79095,11.846984 -3.25,10.5 -0.6623,-0.220767 0.008,-2.238676 -0.375,-2.75 -0.76096,-1.014618 -0.0193,-2.341413 -0.625,-3.25 -0.59021,-0.885308 -1.56024,-0.152849 -2.125,-1 -0.62215,-0.933212 5.28737,-3.282474 6.375,-3.5 z"
           style="fill:url(#linearGradient8230);stroke:none" />
        <path
           sodipodi:nodetypes="cssssssc"
           inkscape:connector-curvature="0"
           id="path8366"
           d="m 67.628175,73.737183 c -0.334449,1.485549 -1.877437,0.876219 -2.875,1.375 -1.170622,0.585311 -1.641792,1.844528 -2.625,2.5 -3.250834,2.167223 -6.921785,1.830603 -3.962087,7.75 0.182137,0.364275 -0.268118,1.995471 0.25,2.125 2.154941,0.538735 9.106983,-3.309686 9.712087,-5.125 0.414714,-1.244141 0.900103,-6.074794 0.25,-7.375 -0.254723,-0.509446 -2.668444,-1.25 -0.75,-1.25 z"
           style="fill:url(#linearGradient8230);stroke:none" />
        <path
           inkscape:connector-curvature="0"
           id="path8368"
           d="m 90.253175,62.362183 c 2.400239,2.149078 14.472745,-9.90226 15.250005,-9.125 0.21136,0.211367 0.13592,2.157766 0.25,2.5 0.22087,0.662618 2,-0.07346 2,0.625 0,0.675005 -1.67891,0.713292 -1.375,1.625 0.0299,0.08968 1.68683,0.530254 2,1 0.10102,0.151533 -1.3672,1.234387 -1.5,1.5 -0.35458,0.709159 0.64617,0.792347 0.875,1.25 0.35021,0.700429 -0.74046,1.605908 -1,2.125 -0.24066,0.481305 0.40483,1.065334 0.25,1.375 -0.8631,1.726183 -3.04322,1.271606 -4.5,2 -0.39173,0.195863 -0.43573,1.092862 -1,1.375 -0.40737,0.203682 -4.546098,1.226954 -4.750005,1.125 -0.825367,-0.412684 -1.25,-1.815082 -1.25,-2.625 0,-1.368405 -2.125464,1.498608 -2.625,0 -0.409427,-1.22828 1.996004,-1.761989 1.375,-3.625 -0.148708,-0.446124 -3.494525,-0.72062 -4,-1.125 z"
           style="fill:url(#linearGradient8230);stroke:none" />
        <path
           inkscape:connector-curvature="0"
           id="path8370"
           d="m 117.12818,47.737183 c 0.58604,0.80402 -9.10601,4.412993 -8.125,6.375 0.33421,0.668425 1.78419,0.443382 2.25,1.375 0.95795,1.915907 -2.375,1.768662 -2.375,3.125 0,0.589256 1.48647,-0.277046 1.75,0.25 0.46541,0.930834 -2.05421,1.597897 -1,2.125 2.1031,1.051553 3.02431,-1.699659 4.375,-2.375 2.1183,-1.059152 4.1738,-0.323198 5.875,-2.875 1.13941,-1.709118 -0.0855,-9.598685 -2.75,-8 z"
           style="fill:url(#linearGradient8230);stroke:none" />
        <path
           inkscape:connector-curvature="0"
           id="path8372"
           d="m 60.128175,89.612183 c 2.529318,-0.219214 6.761196,-4.238804 8.625,-2.375 0.927239,0.927239 2.440922,-1.043948 3.125,-1.5 0.801575,-0.534383 2.718302,-0.0311 3.75,-0.375 0.774396,-0.258132 2.912628,-3.799744 4,-1.625 0.844678,1.689355 1.223762,5.177476 0.375,6.875 -0.613584,1.227168 -2.830022,1.102511 -3.875,1.625 -0.428905,0.214453 -1.595259,2.940519 -1.875,3.5 -0.396352,0.792705 -11.28095,5.749997 -12.5,5.749997 -1.770765,0 -1.275794,-11.001981 -1.625,-11.874997 z"
           style="fill:url(#linearGradient8230);stroke:none" />
        <path
           inkscape:connector-curvature="0"
           id="path8374"
           d="m 81.878175,80.987183 c 1.771478,-0.161739 0.995533,3.366065 1.625,4.625 0.583558,1.167116 0.375,3.998005 0.375,5.375 0,0.487696 0.281896,-0.938792 0.5,-1.375 0.429527,-0.859054 1.763492,-0.651984 2.25,-1.625 0.715006,-1.430012 3.729153,-1.729153 5,-3 0.956954,-0.956954 2.539461,-2.76973 3.75,-3.375 0.640498,-0.320249 1.979817,0.0067 2.75,-0.25 0.781745,-0.260582 6.875005,-5.140674 6.875005,-5.25 0,-1.621445 -1.74187,-1.858737 -2.375,-3.125 -0.32863,-0.657255 0.51211,-2.329296 -0.375,-2.625 -4.296896,-1.432297 -5.639685,4.129893 -7.500005,4.75 -1.844183,0.614728 -3.74338,0.99669 -5.5,1.875 -2.555911,1.277956 -4.012908,4 -7.375,4 z"
           style="fill:url(#linearGradient8230);stroke:none" />
        <path
           inkscape:connector-curvature="0"
           id="path8376"
           d="m 105.62818,67.862183 c -0.56138,-0.760311 -2.625,-0.166703 -2.625,0.75 0,0.28348 0.82621,0.06707 1,0.125 0.36873,0.122911 1.08302,1.041051 1.25,1.375 0.38433,0.768676 -0.16961,4.823652 2.125,4.25 2.97779,-0.744448 5.66658,-3.58329 8.25,-4.875 0.41604,-0.20802 1.90918,0.181633 2.125,-0.25 0.43449,-0.868977 -0.19812,-2.228757 0.25,-3.125 0.20221,-0.404415 1.59181,-6 0.75,-6 -0.54506,0 -2.86674,2.452826 -3.5,2.875 -1.11659,0.744392 -3.17062,-0.352192 -4.375,0.25 -0.94278,0.471387 -0.0536,2.401807 -1,2.875 -1.27578,0.637889 -3.02728,0.934851 -4.25,1.75 z"
           style="fill:url(#linearGradient8230);stroke:none" />
        <path
           inkscape:connector-curvature="0"
           id="path8378"
           d="m 58.628175,104.98718 c 0.08605,1.65216 -0.375,3.1693 -0.375,4.875 0,9.68113 2.047548,6.85123 7.75,4.00001 1.226619,-0.61331 3.80873,-0.17619 4.375,-1.87501 0.264214,-0.79264 -0.463894,-1.23057 -0.625,-1.875 -0.443858,-1.77543 1.485738,-4.40352 0.875,-5.625 -0.271573,-0.54314 -0.856908,-0.46381 -1.125,-1 -0.174248,-0.34849 0.103363,-1.57332 -0.25,-1.75 -1.718349,-0.85917 -2.472439,1.92372 -3.375,2.375 -1.257191,0.6286 -3.025186,-0.3062 -4.25,0 -1.178295,0.29458 -1.631377,1.14873 -3,0.875 z"
           style="fill:url(#linearGradient8230);stroke:none" />
        <path
           inkscape:connector-curvature="0"
           id="path8380"
           d="m 73.003175,101.11218 c -0.44087,0.0761 -1.5,-0.501 -1.5,0.25 0,1.39989 2.51606,1.07682 1.75,3.375 -0.270464,0.81139 -1.778702,4.54815 -0.625,5.125 0.547211,0.27361 5.329304,-2.77643 6.375,-3.125 0.94642,-0.31547 1.870075,-2.24015 2.25,-3 0.260982,-0.52196 2.142327,0.11634 2.625,-0.125 1.275258,-0.63763 2.35033,-1.86266 3.625,-2.5 1.264961,-0.63248 2.461387,0.70223 3.25,-0.875 0.644628,-1.289252 -1.061821,-2.495923 -1.25,-3.624997 -0.166247,-0.997481 0.318175,-2.295476 0,-3.25 -0.170449,-0.511347 -0.863456,-0.528364 -1.25,-0.625 -0.52868,-0.13217 -0.910429,-0.767714 -1.375,-1 -0.282396,-0.141198 -2.996469,2.664313 -3.5,3 -1.809361,1.206241 -3.237883,0.737883 -5,2.5 -0.799168,0.799168 -1.318246,2.439415 -2.625,2.874997 -0.976394,0.32547 -2.020909,0.0886 -2.75,1 z"
           style="fill:url(#linearGradient8230);stroke:none" />
        <path
           inkscape:connector-curvature="0"
           id="path8382"
           d="m 91.378175,89.362183 c -0.94353,2.535759 1.566226,2.382453 2.25,3.75 0.468249,0.936498 -0.280871,3.047064 0.875,3.625 0.521026,0.260513 1.962556,0.470815 2.625,0.25 0.859155,-0.286385 1.013471,-1.944235 1.875,-2.375 2.325545,-1.162772 8.900465,-3.67477 4.250005,-6 -0.72194,-0.360966 -0.23337,-1.21674 -0.5,-1.75 -0.35065,-0.7013 -2.47296,-1.29898 -3.125005,-1.625 -0.471707,-0.235854 -6.766848,3.82837 -8.25,4.125 z"
           style="fill:url(#linearGradient8230);stroke:none" />
        <path
           inkscape:connector-curvature="0"
           id="path8384"
           d="m 104.37818,83.237183 c -1.40085,1.736984 -0.64004,-1.5 2.125,-1.5 1.77407,0 5.31816,-4.471584 5.625,-4.625 2.10445,-1.052222 3.1387,0.236302 5.5,-2.125 0.23017,-0.230174 0.2346,2.453787 0.375,2.875 0.48394,1.451828 0.36826,5.270234 -0.125,6.75 -0.0102,0.03062 -13.5,9.594686 -13.5,-1.375 z"
           style="fill:url(#linearGradient8230);stroke:none" />
        <path
           inkscape:connector-curvature="0"
           id="path8386"
           d="m 108.37818,75.237183 c -1.38311,-0.166 -1.32457,1.674343 -1.875,2.5 -0.43206,0.648077 -2.05797,0.990933 -2.25,1.375 -0.52973,1.059446 -0.59273,2.546362 1.25,1.625 1.35411,-0.677055 1.2697,-2.179801 2.5,-3 0.93915,-0.626101 3.51744,0.177342 2.75,-2.125 -0.0665,-0.199443 -2.11255,-0.270017 -2.375,-0.375 z"
           style="fill:url(#linearGradient8230);stroke:none" />
        <path
           inkscape:connector-curvature="0"
           id="path8388"
           d="m 60.732883,120.54379 c -1.358465,1.77094 0.353553,3.29316 0.353553,5.12652 0,0.94093 -0.411701,3.06569 0,3.88909 1.068131,2.13626 16.380731,-6.06818 16.970563,-7.24784 0.266196,-0.5324 -0.353553,-1.23397 -0.353553,-1.76777 0,-1.05317 0.719799,-7.2415 0,-7.6014 -0.477328,-0.23866 -13.597341,8.27604 -16.970563,7.6014 z"
           style="fill:url(#linearGradient8230);stroke:none" />
        <path
           inkscape:connector-curvature="0"
           id="path8390"
           d="m 76.819562,110.64429 c 0.765875,0.52155 1.85492,-0.0888 2.651651,0.17678 0.686657,0.22888 -0.256529,2.96533 0.883883,3.53553 0.778076,0.38904 10.036182,3.76882 9.369165,1.76777 -0.682734,-2.0482 -2.425958,-1.99903 -3.181981,-3.88909 -0.884396,-2.21099 0.533141,-4.06446 -1.944543,-5.3033 -3.547226,-1.77361 -5.803549,3.71231 -7.778175,3.71231 z"
           style="fill:url(#linearGradient8230);stroke:none" />
        <path
           inkscape:connector-curvature="0"
           id="path8392"
           d="m 88.133271,105.16421 c -0.524107,4.74354 -0.318226,4.11535 3.535534,5.65686 0.460036,0.18401 2.397936,1.2759 2.828427,1.06066 1.737664,-0.86883 8.574928,-5.48261 9.192388,-6.71752 0.76381,-1.52762 -3.01259,-8.304806 -5.480078,-7.071064 -3.91693,1.958464 -6.023324,5.449884 -10.076271,7.071064 z"
           style="fill:url(#linearGradient8230);stroke:none" />
        <path
           inkscape:connector-curvature="0"
           id="path8394"
           d="m 105.10383,96.325379 c 4.8331,0.878306 9.54595,-7.406823 9.54595,-0.176777 0,1.683608 0.90612,3.46882 0.35355,5.126528 -0.008,0.0225 -6.40236,1.84457 -7.24785,3.53553 -0.69322,1.38644 0.84299,4.59619 -0.7071,4.59619 -1.61334,0 -0.43776,-6.00203 -0.88389,-6.89429 -1.16726,-2.33453 -4.64439,-3.798025 -1.06066,-6.187181 z"
           style="fill:url(#linearGradient8230);stroke:none" />
        <path
           inkscape:connector-curvature="0"
           id="path8396"
           d="m 119.24597,91.375632 c -2.70316,-1.132435 -1.53234,7.424621 -0.88388,7.424621 1.04456,0 1.08425,-6.422808 0.88388,-7.424621 z"
           style="fill:url(#linearGradient8230);stroke:none" />
      </g>
    </g>
  </g>
</svg>
